{
copyright = "Copyright (c) 2015 Christopher Simpkins / Copyright (c) 2003 by Bitstream, Inc. All Rights Reserved.";
customParameters = (
{
name = glyphOrder;
value = (
    ".notdef",
    space,
    exclam,
    quotedbl,
    numbersign,
    dollar,
    percent,
    ampersand,
    quotesingle,
    parenleft,
    parenright,
    asterisk,
    plus,
    comma,
    hyphen,
    period,
    slash,
    zero,
    one,
    two,
    three,
    four,
    five,
    six,
    seven,
    eight,
    nine,
    colon,
    semicolon,
    less,
    equal,
    greater,
    question,
    at,
    A,
    B,
    C,
    D,
    E,
    F,
    G,
    H,
    I,
    J,
    K,
    L,
    M,
    N,
    O,
    P,
    Q,
    R,
    S,
    T,
    U,
    V,
    W,
    X,
    Y,
    Z,
    bracketleft,
    backslash,
    bracketright,
    asciicircum,
    underscore,
    grave,
    a,
    b,
    c,
    d,
    e,
    f,
    g,
    h,
    i,
    j,
    k,
    l,
    m,
    n,
    o,
    p,
    q,
    r,
    s,
    t,
    u,
    v,
    w,
    x,
    y,
    z,
    braceleft,
    bar,
    braceright,
    asciitilde,
    nonbreakingspace,
    exclamdown,
    cent,
    sterling,
    currency,
    yen,
    brokenbar,
    section,
    dieresis,
    copyright,
    ordfeminine,
    guillemotleft,
    logicalnot,
    sfthyphen,
    registered,
    macron,
    degree,
    plusminus,
    twosuperior,
    threesuperior,
    acute,
    mu,
    paragraph,
    periodcentered,
    cedilla,
    onesuperior,
    ordmasculine,
    guillemotright,
    onequarter,
    onehalf,
    threequarters,
    questiondown,
    Agrave,
    Aacute,
    Acircumflex,
    Atilde,
    Adieresis,
    Aring,
    AE,
    Ccedilla,
    Egrave,
    Eacute,
    Ecircumflex,
    Edieresis,
    Igrave,
    Iacute,
    Icircumflex,
    Idieresis,
    Eth,
    Ntilde,
    Ograve,
    Oacute,
    Ocircumflex,
    Otilde,
    Odieresis,
    multiply,
    Oslash,
    Ugrave,
    Uacute,
    Ucircumflex,
    Udieresis,
    Yacute,
    Thorn,

glyphs = (
{
glyphname = .notdef;
layers = (
{
layerId = "A8E9A3C4-7003-4333-ABE9-545A429BAB07";
name = Regular;
paths = (
{
closed = 1;
nodes = (
"104 -362 LINE",
"1128 -362 LINE",
"1128 1444 LINE",
"104 1444 LINE"
);
},
{
closed = 1;
nodes = (
"219 -248 LINE",
"219 1329 LINE",
"1014 1329 LINE",
"1014 -248 LINE"
);
}
);
width = 1233;
}
);
note = "\012\011.notdef\012  ";
},
{
glyphname = exclam;
lastChange = "2015-07-05 22:46:17 +0000";
layers = (
{
hints = (
{
horizontal = 1;
origin = "{1, 5}";
target = down;
type = TopGhost;
},
{
origin = "{1, 0}";
target = "{1, 5}";
},
{
horizontal = 1;
origin = "{0, 5}";
target = up;
type = BottomGhost;
}
);
layerId = "A8E9A3C4-7003-4333-ABE9-545A429BAB07";
name = Regular;
paths = (
{
closed = 1;
nodes = (
"475 67 OFFCURVE",
"488 32 OFFCURVE",
"515 4 CURVE SMOOTH",
"542 -24 OFFCURVE",
"575 -38 OFFCURVE",
"616 -38 CURVE SMOOTH",
"657 -38 OFFCURVE",
"690 -24 OFFCURVE",
"717 4 CURVE SMOOTH",
"743 31 OFFCURVE",
"757 65 OFFCURVE",
"757 113 CURVE SMOOTH",
"757 158 OFFCURVE",
"744 194 OFFCURVE",
"717 221 CURVE SMOOTH",
"690 248 OFFCURVE",
"657 262 OFFCURVE",
"616 262 CURVE SMOOTH",
"575 262 OFFCURVE",
"542 248 OFFCURVE",
"515 221 CURVE SMOOTH",
"488 193 OFFCURVE",
"475 158 OFFCURVE",
"475 113 CURVE SMOOTH"
);
},
{
closed = 1;
nodes = (
"481 1498 LINE",
"481 1053 LINE",
"558 486 LINE",
"679 486 LINE",
"746 1053 LINE",
"746 1498 LINE"
);
}
);
width = 1233;
}
);
note = "\012\011exclam\012  ";
unicode = 0021;
},
{
glyphname = quotedbl;
lastChange = "2015-07-05 22:49:03 +0000";
layers = (
{
hints = (
{
horizontal = 1;
origin = "{1, 1}";
target = down;
type = TopGhost;
},
{
horizontal = 1;
origin = "{1, 2}";
target = up;
type = BottomGhost;
},
{
origin = "{1, 1}";
target = "{1, 0}";
},
{
origin = "{0, 1}";
target = "{0, 0}";
}
);
layerId = "A8E9A3C4-7003-4333-ABE9-545A429BAB07";
name = Regular;
paths = (
{
closed = 1;
nodes = (
"895 1493 LINE",
"721 1493 LINE",
"721 938 LINE",
"895 938 LINE"
);
},
{
closed = 1;
nodes = (
"512 1493 LINE",
"338 1493 LINE",
"338 938 LINE",
"512 938 LINE"
);
}
);
width = 1233;
}
);
note = "\012\011quotedbl\012  ";
unicode = 0022;
},
{
glyphname = numbersign;
lastChange = "2015-07-05 22:50:05 +0000";
layers = (
{
hints = (
{
horizontal = 1;
origin = "{0, 1}";
target = down;
type = TopGhost;
},
{
horizontal = 1;
origin = "{0, 4}";
target = "{0, 3}";
},
{
horizontal = 1;
origin = "{0, 8}";
target = "{0, 7}";
},
{
horizontal = 1;
origin = "{0, 10}";
target = up;
type = BottomGhost;
}
);
layerId = "A8E9A3C4-7003-4333-ABE9-545A429BAB07";
name = Regular;
paths = (
{
closed = 1;
nodes = (
"684 1470 LINE",
"524 1470 LINE",
"420 1055 LINE",
"117 1055 LINE",
"117 901 LINE",
"383 901 LINE",
"299 567 LINE",
"2 567 LINE",
"2 414 LINE",
"260 414 LINE",
"156 0 LINE",
"315 0 LINE",
"420 414 LINE",
"666 414 LINE",
"561 0 LINE",
"721 0 LINE",
"825 414 LINE",
"1114 414 LINE",
"1114 567 LINE",
"864 567 LINE",
"948 901 LINE",
"1229 901 LINE",
"1229 1055 LINE",
"985 1055 LINE",
"1090 1470 LINE",
"930 1470 LINE",
"825 1055 LINE",
"580 1055 LINE"
);
},
{
closed = 1;
nodes = (
"788 901 LINE",
"705 567 LINE",
"459 567 LINE",
"543 901 LINE"
);
}
);
width = 1233;
}
);
note = "\012\011numbersign\012  ";
unicode = 0023;
},
{
glyphname = dollar;
lastChange = "2015-07-05 22:54:00 +0000";
layers = (
{
hints = (
{
horizontal = 1;
origin = "{2, 29}";
target = down;
type = TopGhost;
},
{
horizontal = 1;
origin = "{2, 57}";
target = up;
type = BottomGhost;
},
{
origin = "{2, 57}";
target = "{2, 0}";
},
{
origin = "{2, 36}";
target = "{1, 6}";
},
{
origin = "{0, 6}";
target = "{2, 7}";
},
{
horizontal = 1;
origin = "{2, 56}";
target = "{2, 43}";
},
{
horizontal = 1;
origin = "{2, 20}";
target = "{2, 21}";
}
);
layerId = "A8E9A3C4-7003-4333-ABE9-545A429BAB07";
name = Regular;
paths = (
{
closed = 1;
nodes = (
"692 580 LINE",
"773 567 OFFCURVE",
"833 544 OFFCURVE",
"870 510 CURVE SMOOTH",
"908 475 OFFCURVE",
"926 424 OFFCURVE",
"926 363 CURVE SMOOTH",
"926 298 OFFCURVE",
"905 246 OFFCURVE",
"864 207 CURVE SMOOTH",
"823 168 OFFCURVE",
"765 148 OFFCURVE",
"692 146 CURVE"
);
},
{
closed = 1;
nodes = (
"592 770 LINE",
"518 781 OFFCURVE",
"463 803 OFFCURVE",
"426 837 CURVE SMOOTH",
"390 870 OFFCURVE",
"371 913 OFFCURVE",
"371 974 CURVE SMOOTH",
"371 1036 OFFCURVE",
"391 1086 OFFCURVE",
"430 1123 CURVE SMOOTH",
"469 1160 OFFCURVE",
"523 1180 OFFCURVE",
"592 1183 CURVE"
);
},
{
closed = 1;
nodes = (
"693 -301 LINE",
"693 2 LINE",
"818 8 OFFCURVE",
"920 45 OFFCURVE",
"998 114 CURVE SMOOTH",
"1078 185 OFFCURVE",
"1114 272 OFFCURVE",
"1114 373 CURVE SMOOTH",
"1114 473 OFFCURVE",
"1078 557 OFFCURVE",
"1006 622 CURVE SMOOTH",
"934 687 OFFCURVE",
"829 729 OFFCURVE",
"692 750 CURVE",
"692 1181 LINE",
"747 1178 OFFCURVE",
"808 1167 OFFCURVE",
"853 1154 CURVE SMOOTH",
"891 1143 OFFCURVE",
"960 1117 OFFCURVE",
"1018 1087 CURVE",
"1018 1260 LINE",
"962 1277 OFFCURVE",
"907 1291 OFFCURVE",
"853 1301 CURVE SMOOTH",
"804 1310 OFFCURVE",
"746 1318 OFFCURVE",
"692 1321 CURVE",
"692 1556 LINE",
"592 1556 LINE",
"592 1321 LINE",
"465 1312 OFFCURVE",
"366 1276 OFFCURVE",
"296 1214 CURVE SMOOTH",
"225 1151 OFFCURVE",
"190 1067 OFFCURVE",
"190 964 CURVE SMOOTH",
"190 862 OFFCURVE",
"224 783 OFFCURVE",
"291 722 CURVE SMOOTH",
"360 660 OFFCURVE",
"459 621 OFFCURVE",
"592 600 CURVE",
"592 142 LINE",
"526 143 OFFCURVE",
"459 155 OFFCURVE",
"392 177 CURVE SMOOTH",
"323 200 OFFCURVE",
"262 228 OFFCURVE",
"190 272 CURVE",
"190 92 LINE",
"260 63 OFFCURVE",
"323 43 OFFCURVE",
"389 28 CURVE SMOOTH",
"456 13 OFFCURVE",
"523 3 OFFCURVE",
"591 0 CURVE",
"591 -301 LINE"
);
}
);
width = 1233;
}
);
note = "\012\011dollar\012  ";
unicode = 0024;
},
{
glyphname = percent;
lastChange = "2015-07-05 23:58:29 +0000";
layers = (
{
hints = (
{
horizontal = 1;
origin = "{3, 5}";
target = "{4, 23}";
},
{
horizontal = 1;
origin = "{4, 5}";
target = "{3, 17}";
},
{
origin = "{3, 11}";
target = "{4, 11}";
},
{
origin = "{4, 29}";
target = "{3, 23}";
},
{
horizontal = 1;
origin = "{0, 5}";
target = "{1, 23}";
},
{
horizontal = 1;
origin = "{1, 5}";
target = "{0, 17}";
},
{
origin = "{0, 11}";
target = "{1, 11}";
}
);
layerId = "A8E9A3C4-7003-4333-ABE9-545A429BAB07";
name = Regular;
paths = (
{
closed = 1;
nodes = (
"696 372 OFFCURVE",
"714 416 OFFCURVE",
"749 451 CURVE SMOOTH",
"784 486 OFFCURVE",
"827 504 OFFCURVE",
"879 504 CURVE SMOOTH",
"930 504 OFFCURVE",
"973 486 OFFCURVE",
"1009 450 CURVE SMOOTH",
"1045 414 OFFCURVE",
"1063 370 OFFCURVE",
"1063 319 CURVE SMOOTH",
"1063 268 OFFCURVE",
"1045 224 OFFCURVE",
"1010 189 CURVE SMOOTH",
"974 153 OFFCURVE",
"930 135 OFFCURVE",
"879 135 CURVE SMOOTH",
"827 135 OFFCURVE",
"784 153 OFFCURVE",
"749 188 CURVE SMOOTH",
"714 223 OFFCURVE",
"696 267 OFFCURVE",
"696 319 CURVE SMOOTH"
);
},
{
closed = 1;
nodes = (
"561 232 OFFCURVE",
"591 153 OFFCURVE",
"651 92 CURVE SMOOTH",
"711 32 OFFCURVE",
"790 0 OFFCURVE",
"879 0 CURVE SMOOTH",
"966 0 OFFCURVE",
"1045 31 OFFCURVE",
"1107 92 CURVE SMOOTH",
"1170 155 OFFCURVE",
"1200 235 OFFCURVE",
"1200 319 CURVE SMOOTH",
"1200 362 OFFCURVE",
"1192 401 OFFCURVE",
"1175 440 CURVE SMOOTH",
"1160 475 OFFCURVE",
"1137 512 OFFCURVE",
"1104 545 CURVE SMOOTH",
"1073 576 OFFCURVE",
"1039 599 OFFCURVE",
"1001 615 CURVE SMOOTH",
"963 631 OFFCURVE",
"922 639 OFFCURVE",
"879 639 CURVE SMOOTH",
"789 639 OFFCURVE",
"709 604 OFFCURVE",
"653 548 CURVE SMOOTH",
"597 492 OFFCURVE",
"561 412 OFFCURVE",
"561 318 CURVE SMOOTH"
);
},
{
closed = 1;
nodes = (
"42 453 LINE",
"1192 883 LINE",
"1192 996 LINE",
"42 560 LINE"
);
},
{
closed = 1;
nodes = (
"168 1165 OFFCURVE",
"189 1212 OFFCURVE",
"222 1244 CURVE SMOOTH",
"257 1278 OFFCURVE",
"303 1296 OFFCURVE",
"353 1296 CURVE SMOOTH",
"403 1296 OFFCURVE",
"447 1278 OFFCURVE",
"483 1243 CURVE SMOOTH",
"519 1207 OFFCURVE",
"537 1162 OFFCURVE",
"537 1113 CURVE SMOOTH",
"537 1057 OFFCURVE",
"514 1011 OFFCURVE",
"483 981 CURVE SMOOTH",
"447 946 OFFCURVE",
"400 928 OFFCURVE",
"351 928 CURVE SMOOTH",
"296 928 OFFCURVE",
"250 951 OFFCURVE",
"221 980 CURVE SMOOTH",
"187 1014 OFFCURVE",
"168 1061 OFFCURVE",
"168 1112 CURVE SMOOTH"
);
},
{
closed = 1;
nodes = (
"33 1024 OFFCURVE",
"65 944 OFFCURVE",
"125 884 CURVE SMOOTH",
"181 828 OFFCURVE",
"261 793 OFFCURVE",
"351 793 CURVE SMOOTH",
"443 793 OFFCURVE",
"525 830 OFFCURVE",
"580 885 CURVE SMOOTH",
"638 943 OFFCURVE",
"672 1025 OFFCURVE",
"672 1113 CURVE SMOOTH",
"672 1155 OFFCURVE",
"664 1197 OFFCURVE",
"648 1236 CURVE SMOOTH",
"633 1272 OFFCURVE",
"608 1309 OFFCURVE",
"578 1339 CURVE SMOOTH",
"548 1369 OFFCURVE",
"514 1392 OFFCURVE",
"475 1408 CURVE SMOOTH",
"436 1424 OFFCURVE",
"396 1432 OFFCURVE",
"352 1432 CURVE SMOOTH",
"261 1432 OFFCURVE",
"181 1397 OFFCURVE",
"125 1341 CURVE SMOOTH",
"70 1286 OFFCURVE",
"33 1206 OFFCURVE",
"33 1112 CURVE SMOOTH"
);
}
);
width = 1233;
}
);
note = "\012\011percent\012  ";
unicode = 0025;
},
{
glyphname = ampersand;
lastChange = "2015-07-05 23:59:46 +0000";
layers = (
{
hints = (
{
horizontal = 1;
origin = "{0, 12}";
target = "{0, 25}";
},
{
origin = "{0, 56}";
target = "{0, 57}";
},
{
horizontal = 1;
origin = "{0, 49}";
target = "{1, 12}";
},
{
origin = "{0, 43}";
target = "{1, 18}";
}
);
layerId = "A8E9A3C4-7003-4333-ABE9-545A429BAB07";
name = Regular;
paths = (
{
closed = 1;
nodes = (
"547 907 LINE SMOOTH",
"492 981 OFFCURVE",
"459 1035 OFFCURVE",
"441 1075 CURVE SMOOTH",
"422 1117 OFFCURVE",
"412 1160 OFFCURVE",
"412 1197 CURVE SMOOTH",
"412 1248 OFFCURVE",
"431 1291 OFFCURVE",
"468 1321 CURVE SMOOTH",
"505 1351 OFFCURVE",
"555 1366 OFFCURVE",
"624 1366 CURVE SMOOTH",
"668 1366 OFFCURVE",
"711 1360 OFFCURVE",
"752 1348 CURVE SMOOTH",
"790 1337 OFFCURVE",
"835 1316 OFFCURVE",
"874 1290 CURVE",
"874 1473 LINE",
"824 1489 OFFCURVE",
"777 1501 OFFCURVE",
"739 1508 CURVE SMOOTH",
"695 1516 OFFCURVE",
"651 1520 OFFCURVE",
"608 1520 CURVE SMOOTH",
"493 1520 OFFCURVE",
"402 1491 OFFCURVE",
"336 1433 CURVE SMOOTH",
"273 1378 OFFCURVE",
"236 1302 OFFCURVE",
"236 1197 CURVE SMOOTH",
"236 1148 OFFCURVE",
"244 1102 OFFCURVE",
"260 1056 CURVE SMOOTH",
"276 1010 OFFCURVE",
"301 963 OFFCURVE",
"334 915 CURVE",
"241 848 OFFCURVE",
"171 775 OFFCURVE",
"126 698 CURVE SMOOTH",
"80 620 OFFCURVE",
"56 528 OFFCURVE",
"56 439 CURVE SMOOTH",
"56 303 OFFCURVE",
"113 187 OFFCURVE",
"198 106 CURVE SMOOTH",
"286 22 OFFCURVE",
"410 -30 OFFCURVE",
"552 -30 CURVE SMOOTH",
"628 -30 OFFCURVE",
"697 -15 OFFCURVE",
"753 5 CURVE SMOOTH",
"820 29 OFFCURVE",
"877 64 OFFCURVE",
"930 109 CURVE",
"1008 0 LINE",
"1221 0 LINE",
"1051 229 LINE",
"1102 289 OFFCURVE",
"1139 361 OFFCURVE",
"1163 439 CURVE SMOOTH",
"1188 520 OFFCURVE",
"1200 614 OFFCURVE",
"1200 721 CURVE SMOOTH",
"1200 760 LINE",
"1036 760 LINE",
"1037 753 LINE",
"1039 706 OFFCURVE",
"1040 673 OFFCURVE",
"1040 647 CURVE SMOOTH",
"1040 583 OFFCURVE",
"1034 522 OFFCURVE",
"1021 472 CURVE SMOOTH",
"1008 422 OFFCURVE",
"989 381 OFFCURVE",
"963 348 CURVE"
);
},
{
closed = 1;
nodes = (
"844 223 LINE",
"822 205 OFFCURVE",
"817 203 OFFCURVE",
"811 199 CURVE SMOOTH",
"797 190 OFFCURVE",
"781 180 OFFCURVE",
"766 172 CURVE SMOOTH",
"738 157 OFFCURVE",
"707 145 OFFCURVE",
"676 137 CURVE SMOOTH",
"645 129 OFFCURVE",
"618 125 OFFCURVE",
"585 125 CURVE SMOOTH",
"483 125 OFFCURVE",
"394 163 OFFCURVE",
"332 225 CURVE SMOOTH",
"266 291 OFFCURVE",
"233 378 OFFCURVE",
"233 473 CURVE SMOOTH",
"233 537 OFFCURVE",
"248 594 OFFCURVE",
"279 649 CURVE SMOOTH",
"309 703 OFFCURVE",
"355 754 OFFCURVE",
"416 803 CURVE"
);
}
);
width = 1233;
}
);
note = "\012\011ampersand\012  ";
unicode = 0026;
},
{
glyphname = quotesingle;
layers = (
{
layerId = "A8E9A3C4-7003-4333-ABE9-545A429BAB07";
name = Regular;
paths = (
{
closed = 1;
nodes = (
"702 1493 LINE",
"528 1493 LINE",
"528 938 LINE",
"702 938 LINE"
);
}
);
width = 1233;
}
);
note = "\012\011quotesingle\012  ";
unicode = 0027;
},
{
glyphname = parenleft;
lastChange = "2015-07-05 23:38:54 +0000";
layers = (
{
hints = (
{
horizontal = 1;
origin = "{0, 0}";
target = down;
type = TopGhost;
},
{
horizontal = 1;
origin = "{0, 12}";
target = up;
type = BottomGhost;
},
{
origin = "{0, 0}";
target = "{0, 25}";
},
{
origin = "{0, 6}";
target = "{0, 19}";
}
);
layerId = "A8E9A3C4-7003-4333-ABE9-545A429BAB07";
name = Regular;
paths = (
{
closed = 1;
nodes = (
"585 1554 LINE",
"483 1395 OFFCURVE",
"410 1245 OFFCURVE",
"360 1092 CURVE SMOOTH",
"311 941 OFFCURVE",
"286 792 OFFCURVE",
"286 643 CURVE SMOOTH",
"286 494 OFFCURVE",
"311 344 OFFCURVE",
"360 194 CURVE SMOOTH",
"409 44 OFFCURVE",
"481 -106 OFFCURVE",
"585 -270 CURVE",
"745 -270 LINE",
"653 -111 OFFCURVE",
"591 34 OFFCURVE",
"547 187 CURVE SMOOTH",
"503 340 OFFCURVE",
"481 487 OFFCURVE",
"481 643 CURVE SMOOTH",
"481 795 OFFCURVE",
"502 944 OFFCURVE",
"547 1100 CURVE SMOOTH",
"590 1249 OFFCURVE",
"651 1393 OFFCURVE",
"745 1554 CURVE"
);
}
);
width = 1233;
}
);
note = "\012\011parenleft\012  ";
unicode = 0028;
},
{
glyphname = parenright;
lastChange = "2015-07-05 23:39:29 +0000";
layers = (
{
hints = (
{
horizontal = 1;
origin = "{0, 12}";
target = up;
type = BottomGhost;
},
{
horizontal = 1;
origin = "{0, 0}";
target = down;
type = TopGhost;
},
{
origin = "{0, 0}";
target = "{0, 25}";
},
{
origin = "{0, 6}";
target = "{0, 19}";
}
);
layerId = "A8E9A3C4-7003-4333-ABE9-545A429BAB07";
name = Regular;
paths = (
{
closed = 1;
nodes = (
"488 1554 LINE",
"580 1396 OFFCURVE",
"646 1240 OFFCURVE",
"687 1098 CURVE SMOOTH",
"730 949 OFFCURVE",
"752 792 OFFCURVE",
"752 643 CURVE SMOOTH",
"752 488 OFFCURVE",
"728 331 OFFCURVE",
"687 189 CURVE SMOOTH",
"643 38 OFFCURVE",
"577 -115 OFFCURVE",
"488 -270 CURVE",
"648 -270 LINE",
"749 -113 OFFCURVE",
"824 41 OFFCURVE",
"873 192 CURVE SMOOTH",
"922 343 OFFCURVE",
"947 493 OFFCURVE",
"947 643 CURVE SMOOTH",
"947 792 OFFCURVE",
"922 941 OFFCURVE",
"873 1092 CURVE SMOOTH",
"825 1241 OFFCURVE",
"749 1397 OFFCURVE",
"648 1554 CURVE"
);
}
);
width = 1233;
}
);
note = "\012\011parenright\012  ";
unicode = 0029;
},
{
glyphname = asterisk;
lastChange = "2015-07-05 23:41:15 +0000";
layers = (
{
hints = (
{
horizontal = 1;
origin = "{0, 9}";
target = down;
type = TopGhost;
},
{
origin = "{0, 9}";
target = "{0, 8}";
},
{
horizontal = 1;
origin = "{0, 12}";
target = "{0, 11}";
},
{
horizontal = 1;
origin = "{0, 1}";
target = "{0, 13}";
},
{
horizontal = 1;
origin = "{0, 0}";
target = up;
type = BottomGhost;
}
);
layerId = "A8E9A3C4-7003-4333-ABE9-545A429BAB07";
name = Regular;
paths = (
{
closed = 1;
nodes = (
"344 499 LINE",
"614 856 LINE",
"884 499 LINE",
"978 566 LINE",
"736 937 LINE",
"1100 1095 LINE",
"1064 1198 LINE",
"688 1075 LINE",
"668 1500 LINE",
"560 1500 LINE",
"540 1075 LINE",
"164 1198 LINE",
"128 1095 LINE",
"492 937 LINE",
"250 566 LINE"
);
}
);
width = 1233;
}
);
note = "\012\011asterisk\012  ";
unicode = 002A;
},
{
glyphname = plus;
layers = (
{
layerId = "A8E9A3C4-7003-4333-ABE9-545A429BAB07";
name = Regular;
paths = (
{
closed = 1;
nodes = (
"700 1171 LINE",
"532 1171 LINE",
"532 727 LINE",
"88 727 LINE",
"88 557 LINE",
"532 557 LINE",
"532 113 LINE",
"700 113 LINE",
"700 557 LINE",
"1145 557 LINE",
"1145 727 LINE",
"700 727 LINE"
);
}
);
width = 1233;
}
);
note = "\012\011plus\012  ";
unicode = 002B;
},
{
glyphname = comma;
layers = (
{
layerId = "A8E9A3C4-7003-4333-ABE9-545A429BAB07";
name = Regular;
paths = (
{
closed = 1;
nodes = (
"446 -387 LINE",
"558 -346 OFFCURVE",
"645 -284 OFFCURVE",
"706 -202 CURVE SMOOTH",
"767 -120 OFFCURVE",
"798 -22 OFFCURVE",
"798 93 CURVE SMOOTH",
"798 173 OFFCURVE",
"783 236 OFFCURVE",
"752 281 CURVE SMOOTH",
"721 326 OFFCURVE",
"676 349 OFFCURVE",
"620 349 CURVE SMOOTH",
"572 349 OFFCURVE",
"530 332 OFFCURVE",
"504 309 CURVE SMOOTH",
"472 281 OFFCURVE",
"458 240 OFFCURVE",
"458 196 CURVE SMOOTH",
"458 150 OFFCURVE",
"473 112 OFFCURVE",
"502 86 CURVE SMOOTH",
"531 60 OFFCURVE",
"570 47 OFFCURVE",
"612 47 CURVE SMOOTH",
"624 47 OFFCURVE",
"636 48 OFFCURVE",
"652 51 CURVE",
"647 -98 OFFCURVE",
"563 -210 OFFCURVE",
"400 -283 CURVE"
);
}
);
width = 1233;
}
);
note = "\012\011comma\012  ";
unicode = 002C;
},
{
glyphname = hyphen;
layers = (
{
layerId = "A8E9A3C4-7003-4333-ABE9-545A429BAB07";
name = Regular;
paths = (
{
closed = 1;
nodes = (
"206 683 LINE",
"206 519 LINE",
"1027 519 LINE",
"1027 683 LINE"
);
}
);
width = 1233;
}
);
note = "\012\011hyphen\012  ";
unicode = 002D;
},
{
glyphname = period;
layers = (
{
layerId = "A8E9A3C4-7003-4333-ABE9-545A429BAB07";
name = Regular;
paths = (
{
closed = 1;
nodes = (
"451 92 OFFCURVE",
"467 51 OFFCURVE",
"498 20 CURVE SMOOTH",
"529 -11 OFFCURVE",
"568 -27 OFFCURVE",
"613 -27 CURVE SMOOTH",
"658 -27 OFFCURVE",
"697 -11 OFFCURVE",
"728 20 CURVE SMOOTH",
"759 51 OFFCURVE",
"775 92 OFFCURVE",
"775 142 CURVE SMOOTH",
"775 192 OFFCURVE",
"759 233 OFFCURVE",
"728 264 CURVE SMOOTH",
"697 295 OFFCURVE",
"658 311 OFFCURVE",
"613 311 CURVE SMOOTH",
"568 311 OFFCURVE",
"529 295 OFFCURVE",
"498 264 CURVE SMOOTH",
"467 233 OFFCURVE",
"451 192 OFFCURVE",
"451 142 CURVE SMOOTH"
);
}
);
width = 1233;
}
);
note = "\012\011period\012  ";
unicode = 002E;
},
{
glyphname = slash;
lastChange = "2015-07-05 23:45:16 +0000";
layers = (
{
hints = (
{
horizontal = 1;
origin = "{0, 1}";
target = up;
type = BottomGhost;
},
{
horizontal = 1;
origin = "{0, 0}";
target = down;
type = TopGhost;
},
{
origin = "{0, 1}";
target = "{0, 2}";
},
{
origin = "{0, 0}";
target = "{0, 3}";
}
);
layerId = "A8E9A3C4-7003-4333-ABE9-545A429BAB07";
name = Regular;
paths = (
{
closed = 1;
nodes = (
"889 1493 LINE",
"102 -190 LINE",
"293 -190 LINE",
"1079 1493 LINE"
);
}
);
width = 1233;
}
);
note = "\012\011slash\012  ";
unicode = 002F;
},
{
glyphname = zero;
lastChange = "2015-07-05 22:38:41 +0000";
layers = (
{
hints = (
{
horizontal = 1;
origin = "{2, 11}";
target = "{1, 11}";
},
{
horizontal = 1;
origin = "{1, 23}";
target = "{2, 23}";
},
{
origin = "{2, 5}";
target = "{1, 17}";
},
{
origin = "{1, 5}";
target = "{2, 17}";
},
{
origin = "{0, 23}";
target = "{0, 11}";
},
{
horizontal = 1;
origin = "{0, 5}";
target = "{0, 17}";
}
);
layerId = "A8E9A3C4-7003-4333-ABE9-545A429BAB07";
name = Regular;
paths = (
{
closed = 1;
nodes = (
"523 710 OFFCURVE",
"534 627 OFFCURVE",
"545 576 CURVE SMOOTH",
"561 501 OFFCURVE",
"584 458 OFFCURVE",
"618 458 CURVE SMOOTH",
"648 458 OFFCURVE",
"676 491 OFFCURVE",
"693 577 CURVE SMOOTH",
"706 644 OFFCURVE",
"710 719 OFFCURVE",
"710 742 CURVE SMOOTH",
"710 777 OFFCURVE",
"701 856 OFFCURVE",
"689 912 CURVE SMOOTH",
"672 990 OFFCURVE",
"647 1030 OFFCURVE",
"615 1030 CURVE SMOOTH",
"584 1030 OFFCURVE",
"559 994 OFFCURVE",
"542 913 CURVE SMOOTH",
"529 852 OFFCURVE",
"523 774 OFFCURVE",
"523 747 CURVE SMOOTH"
);
},
{
closed = 1;
nodes = (
"714 1360 OFFCURVE",
"783 1306 OFFCURVE",
"828 1207 CURVE SMOOTH",
"874 1107 OFFCURVE",
"897 953 OFFCURVE",
"897 745 CURVE SMOOTH",
"897 537 OFFCURVE",
"874 384 OFFCURVE",
"828 283 CURVE SMOOTH",
"783 185 OFFCURVE",
"713 131 OFFCURVE",
"616 131 CURVE SMOOTH",
"524 131 OFFCURVE",
"454 179 OFFCURVE",
"406 283 CURVE SMOOTH",
"359 384 OFFCURVE",
"336 538 OFFCURVE",
"336 745 CURVE SMOOTH",
"336 958 OFFCURVE",
"360 1108 OFFCURVE",
"406 1208 CURVE SMOOTH",
"452 1309 OFFCURVE",
"522 1360 OFFCURVE",
"616 1360 CURVE SMOOTH"
);
},
{
closed = 1;
nodes = (
"457 1520 OFFCURVE",
"336 1455 OFFCURVE",
"255 1324 CURVE SMOOTH",
"174 1193 OFFCURVE",
"133 1000 OFFCURVE",
"133 745 CURVE SMOOTH",
"133 490 OFFCURVE",
"174 298 OFFCURVE",
"255 167 CURVE SMOOTH",
"336 36 OFFCURVE",
"457 -29 OFFCURVE",
"616 -29 CURVE SMOOTH",
"775 -29 OFFCURVE",
"896 36 OFFCURVE",
"978 167 CURVE SMOOTH",
"1057 294 OFFCURVE",
"1100 485 OFFCURVE",
"1100 745 CURVE SMOOTH",
"1100 1005 OFFCURVE",
"1057 1197 OFFCURVE",
"978 1324 CURVE SMOOTH",
"896 1456 OFFCURVE",
"773 1520 OFFCURVE",
"616 1520 CURVE SMOOTH"
);
}
);
width = 1233;
}
);
note = "\012\011zero\012  ";
unicode = 0030;
},
{
glyphname = one;
lastChange = "2015-07-05 23:46:13 +0000";
layers = (
{
hints = (
{
horizontal = 1;
origin = "{0, 6}";
target = down;
type = TopGhost;
},
{
horizontal = 1;
origin = "{0, 1}";
target = "{0, 0}";
},
{
origin = "{0, 6}";
target = "{0, 5}";
},
{
horizontal = 1;
origin = "{0, 8}";
target = "{0, 7}";
}
);
layerId = "A8E9A3C4-7003-4333-ABE9-545A429BAB07";
name = Regular;
paths = (
{
closed = 1;
nodes = (
"270 170 LINE",
"270 0 LINE",
"1094 0 LINE",
"1094 170 LINE",
"784 170 LINE",
"784 1493 LINE",
"582 1493 LINE",
"246 1419 LINE",
"246 1235 LINE",
"584 1311 LINE",
"584 170 LINE"
);
}
);
width = 1233;
}
);
note = "\012\011one\012  ";
unicode = 0031;
},
{
glyphname = two;
lastChange = "2015-07-05 23:47:14 +0000";
layers = (
{
hints = (
{
horizontal = 1;
origin = "{0, 31}";
target = "{0, 18}";
},
{
horizontal = 1;
origin = "{0, 50}";
target = "{0, 49}";
},
{
origin = "{0, 37}";
target = "{0, 12}";
},
{
origin = "{0, 49}";
target = "{0, 0}";
}
);
layerId = "A8E9A3C4-7003-4333-ABE9-545A429BAB07";
name = Regular;
paths = (
{
closed = 1;
nodes = (
"373 170 LINE",
"552 359 OFFCURVE",
"596 404 OFFCURVE",
"698 514 CURVE SMOOTH",
"770 592 OFFCURVE",
"805 630 OFFCURVE",
"860 695 CURVE SMOOTH",
"937 786 OFFCURVE",
"975 839 OFFCURVE",
"1005 906 CURVE SMOOTH",
"1034 970 OFFCURVE",
"1049 1033 OFFCURVE",
"1049 1102 CURVE SMOOTH",
"1049 1230 OFFCURVE",
"997 1334 OFFCURVE",
"917 1404 CURVE SMOOTH",
"830 1480 OFFCURVE",
"707 1520 OFFCURVE",
"563 1520 CURVE SMOOTH",
"499 1520 OFFCURVE",
"433 1512 OFFCURVE",
"367 1495 CURVE SMOOTH",
"303 1479 OFFCURVE",
"233 1454 OFFCURVE",
"164 1421 CURVE",
"164 1217 LINE",
"239 1262 OFFCURVE",
"309 1295 OFFCURVE",
"376 1317 CURVE SMOOTH",
"443 1339 OFFCURVE",
"507 1350 OFFCURVE",
"566 1350 CURVE SMOOTH",
"653 1350 OFFCURVE",
"720 1326 OFFCURVE",
"769 1279 CURVE SMOOTH",
"818 1232 OFFCURVE",
"842 1165 OFFCURVE",
"842 1085 CURVE SMOOTH",
"842 1029 OFFCURVE",
"830 979 OFFCURVE",
"807 929 CURVE SMOOTH",
"780 871 OFFCURVE",
"744 818 OFFCURVE",
"671 731 CURVE SMOOTH",
"637 690 OFFCURVE",
"591 639 OFFCURVE",
"479 518 CURVE SMOOTH",
"374 404 OFFCURVE",
"277 301 OFFCURVE",
"152 170 CURVE",
"152 0 LINE",
"1059 0 LINE",
"1059 170 LINE"
);
}
);
width = 1233;
}
);
note = "\012\011two\012  ";
unicode = 0032;
},
{
glyphname = three;
lastChange = "2015-07-05 23:47:47 +0000";
layers = (
{
hints = (
{
horizontal = 1;
origin = "{0, 24}";
target = "{0, 11}";
},
{
horizontal = 1;
origin = "{0, 38}";
target = "{0, 37}";
},
{
horizontal = 1;
origin = "{0, 64}";
target = "{0, 51}";
},
{
origin = "{0, 45}";
target = "{0, 70}";
}
);
layerId = "A8E9A3C4-7003-4333-ABE9-545A429BAB07";
name = Regular;
paths = (
{
closed = 1;
nodes = (
"863 822 OFFCURVE",
"930 860 OFFCURVE",
"976 915 CURVE SMOOTH",
"1020 968 OFFCURVE",
"1044 1036 OFFCURVE",
"1044 1122 CURVE SMOOTH",
"1044 1242 OFFCURVE",
"997 1342 OFFCURVE",
"915 1411 CURVE SMOOTH",
"828 1484 OFFCURVE",
"706 1520 OFFCURVE",
"567 1520 CURVE SMOOTH",
"515 1520 OFFCURVE",
"461 1515 OFFCURVE",
"398 1504 CURVE SMOOTH",
"335 1493 OFFCURVE",
"263 1477 OFFCURVE",
"182 1456 CURVE",
"182 1270 LINE",
"251 1297 OFFCURVE",
"318 1317 OFFCURVE",
"381 1330 CURVE SMOOTH",
"444 1343 OFFCURVE",
"508 1350 OFFCURVE",
"562 1350 CURVE SMOOTH",
"654 1350 OFFCURVE",
"724 1330 OFFCURVE",
"772 1289 CURVE SMOOTH",
"820 1248 OFFCURVE",
"844 1187 OFFCURVE",
"844 1115 CURVE SMOOTH",
"844 1041 OFFCURVE",
"818 982 OFFCURVE",
"767 942 CURVE SMOOTH",
"716 902 OFFCURVE",
"641 881 OFFCURVE",
"549 881 CURVE SMOOTH",
"395 881 LINE",
"395 715 LINE",
"549 715 LINE SMOOTH",
"651 715 OFFCURVE",
"734 688 OFFCURVE",
"791 639 CURVE SMOOTH",
"849 589 OFFCURVE",
"879 517 OFFCURVE",
"879 429 CURVE SMOOTH",
"879 340 OFFCURVE",
"849 266 OFFCURVE",
"790 216 CURVE SMOOTH",
"731 166 OFFCURVE",
"645 141 OFFCURVE",
"535 141 CURVE SMOOTH",
"469 141 OFFCURVE",
"404 150 OFFCURVE",
"338 167 CURVE SMOOTH",
"269 185 OFFCURVE",
"205 211 OFFCURVE",
"137 246 CURVE",
"137 45 LINE",
"208 20 OFFCURVE",
"286 1 OFFCURVE",
"347 -10 CURVE SMOOTH",
"418 -23 OFFCURVE",
"490 -29 OFFCURVE",
"554 -29 CURVE SMOOTH",
"722 -29 OFFCURVE",
"852 12 OFFCURVE",
"942 89 CURVE SMOOTH",
"1033 167 OFFCURVE",
"1079 278 OFFCURVE",
"1079 411 CURVE SMOOTH",
"1079 507 OFFCURVE",
"1055 592 OFFCURVE",
"1001 661 CURVE SMOOTH",
"949 727 OFFCURVE",
"874 773 OFFCURVE",
"776 799 CURVE"
);
}
);
width = 1233;
}
);
note = "\012\011three\012  ";
unicode = 0033;
},
{
glyphname = four;
lastChange = "2015-07-05 23:48:36 +0000";
layers = (
{
hints = (
{
horizontal = 1;
origin = "{1, 0}";
target = down;
type = TopGhost;
},
{
horizontal = 1;
origin = "{1, 4}";
target = up;
type = BottomGhost;
},
{
origin = "{1, 4}";
target = "{1, 5}";
},
{
horizontal = 1;
origin = "{1, 7}";
target = "{1, 8}";
}
);
layerId = "A8E9A3C4-7003-4333-ABE9-545A429BAB07";
name = Regular;
paths = (
{
closed = 1;
nodes = (
"735 1309 LINE",
"735 520 LINE",
"264 520 LINE"
);
},
{
closed = 1;
nodes = (
"702 1493 LINE",
"102 547 LINE",
"102 356 LINE",
"735 356 LINE",
"735 0 LINE",
"936 0 LINE",
"936 356 LINE",
"1135 356 LINE",
"1135 520 LINE",
"936 520 LINE",
"936 1493 LINE"
);
}
);
width = 1233;
}
);
note = "\012\011four\012  ";
unicode = 0034;
},
{
glyphname = five;
lastChange = "2015-07-05 23:50:01 +0000";
layers = (
{
hints = (
{
horizontal = 1;
origin = "{0, 53}";
target = "{0, 52}";
},
{
origin = "{0, 0}";
target = "{0, 51}";
},
{
horizontal = 1;
origin = "{0, 32}";
target = "{0, 19}";
},
{
origin = "{0, 13}";
target = "{0, 38}";
},
{
horizontal = 1;
origin = "{0, 7}";
target = "{0, 44}";
}
);
layerId = "A8E9A3C4-7003-4333-ABE9-545A429BAB07";
name = Regular;
paths = (
{
closed = 1;
nodes = (
"207 1493 LINE",
"207 743 LINE",
"250 766 OFFCURVE",
"305 787 OFFCURVE",
"354 799 CURVE SMOOTH",
"405 811 OFFCURVE",
"459 817 OFFCURVE",
"508 817 CURVE SMOOTH",
"628 817 OFFCURVE",
"717 782 OFFCURVE",
"773 729 CURVE SMOOTH",
"830 675 OFFCURVE",
"866 592 OFFCURVE",
"866 477 CURVE SMOOTH",
"866 372 OFFCURVE",
"836 288 OFFCURVE",
"776 229 CURVE SMOOTH",
"716 170 OFFCURVE",
"630 141 OFFCURVE",
"513 141 CURVE SMOOTH",
"452 141 OFFCURVE",
"392 149 OFFCURVE",
"328 166 CURVE SMOOTH",
"266 182 OFFCURVE",
"204 207 OFFCURVE",
"143 240 CURVE",
"143 35 LINE",
"196 14 OFFCURVE",
"253 -2 OFFCURVE",
"320 -13 CURVE SMOOTH",
"385 -24 OFFCURVE",
"466 -29 OFFCURVE",
"525 -29 CURVE SMOOTH",
"704 -29 OFFCURVE",
"837 18 OFFCURVE",
"928 106 CURVE SMOOTH",
"1020 195 OFFCURVE",
"1069 324 OFFCURVE",
"1069 481 CURVE SMOOTH",
"1069 631 OFFCURVE",
"1024 759 OFFCURVE",
"934 850 CURVE SMOOTH",
"851 934 OFFCURVE",
"726 987 OFFCURVE",
"566 987 CURVE SMOOTH",
"535 987 OFFCURVE",
"507 985 OFFCURVE",
"478 980 CURVE SMOOTH",
"449 975 OFFCURVE",
"420 967 OFFCURVE",
"391 956 CURVE",
"391 1323 LINE",
"963 1323 LINE",
"963 1493 LINE"
);
}
);
width = 1233;
}
);
note = "\012\011five\012  ";
unicode = 0035;
},
{
glyphname = six;
lastChange = "2015-07-05 23:50:56 +0000";
layers = (
{
hints = (
{
horizontal = 1;
origin = "{0, 42}";
target = "{0, 6}";
},
{
horizontal = 1;
origin = "{1, 23}";
target = "{0, 30}";
},
{
horizontal = 1;
origin = "{0, 18}";
target = "{1, 11}";
},
{
origin = "{1, 5}";
target = "{0, 24}";
},
{
origin = "{0, 12}";
target = "{0, 36}";
}
);
layerId = "A8E9A3C4-7003-4333-ABE9-545A429BAB07";
name = Regular;
paths = (
{
closed = 1;
nodes = (
"991 1460 LINE",
"949 1477 OFFCURVE",
"901 1494 OFFCURVE",
"848 1505 CURVE SMOOTH",
"806 1514 OFFCURVE",
"752 1520 OFFCURVE",
"698 1520 CURVE SMOOTH",
"517 1520 OFFCURVE",
"374 1452 OFFCURVE",
"278 1322 CURVE SMOOTH",
"182 1192 OFFCURVE",
"133 999 OFFCURVE",
"133 724 CURVE SMOOTH",
"133 482 OFFCURVE",
"171 289 OFFCURVE",
"255 159 CURVE SMOOTH",
"333 38 OFFCURVE",
"451 -29 OFFCURVE",
"633 -29 CURVE SMOOTH",
"783 -29 OFFCURVE",
"900 17 OFFCURVE",
"979 104 CURVE SMOOTH",
"1058 191 OFFCURVE",
"1100 319 OFFCURVE",
"1100 481 CURVE SMOOTH",
"1100 638 OFFCURVE",
"1061 767 OFFCURVE",
"982 855 CURVE SMOOTH",
"903 943 OFFCURVE",
"787 987 OFFCURVE",
"655 987 CURVE SMOOTH",
"576 987 OFFCURVE",
"511 971 OFFCURVE",
"452 934 CURVE SMOOTH",
"395 898 OFFCURVE",
"351 847 OFFCURVE",
"319 780 CURVE",
"319 967 OFFCURVE",
"352 1109 OFFCURVE",
"418 1206 CURVE SMOOTH",
"484 1303 OFFCURVE",
"581 1350 OFFCURVE",
"711 1350 CURVE SMOOTH",
"758 1350 OFFCURVE",
"810 1344 OFFCURVE",
"857 1331 CURVE SMOOTH",
"902 1319 OFFCURVE",
"951 1298 OFFCURVE",
"991 1274 CURVE"
);
},
{
closed = 1;
nodes = (
"716 829 OFFCURVE",
"786 802 OFFCURVE",
"833 741 CURVE SMOOTH",
"878 682 OFFCURVE",
"901 595 OFFCURVE",
"901 479 CURVE SMOOTH",
"901 364 OFFCURVE",
"878 277 OFFCURVE",
"833 218 CURVE SMOOTH",
"788 159 OFFCURVE",
"719 129 OFFCURVE",
"633 129 CURVE SMOOTH",
"541 129 OFFCURVE",
"473 164 OFFCURVE",
"428 221 CURVE SMOOTH",
"382 279 OFFCURVE",
"354 367 OFFCURVE",
"354 479 CURVE SMOOTH",
"354 591 OFFCURVE",
"382 679 OFFCURVE",
"428 737 CURVE SMOOTH",
"473 794 OFFCURVE",
"541 829 OFFCURVE",
"634 829 CURVE SMOOTH"
);
}
);
width = 1233;
}
);
note = "\012\011six\012  ";
unicode = 0036;
},
{
glyphname = seven;
lastChange = "2015-07-05 23:51:28 +0000";
layers = (
{
hints = (
{
horizontal = 1;
origin = "{0, 0}";
target = "{0, 1}";
},
{
horizontal = 1;
origin = "{0, 3}";
target = up;
type = BottomGhost;
},
{
origin = "{0, 3}";
target = "{0, 4}";
}
);
layerId = "A8E9A3C4-7003-4333-ABE9-545A429BAB07";
name = Regular;
paths = (
{
closed = 1;
nodes = (
"139 1493 LINE",
"139 1323 LINE",
"854 1323 LINE",
"334 0 LINE",
"545 0 LINE",
"1079 1407 LINE",
"1079 1493 LINE"
);
}
);
width = 1233;
}
);
note = "\012\011seven\012  ";
unicode = 0037;
},
{
glyphname = eight;
lastChange = "2015-07-05 23:52:44 +0000";
layers = (
{
hints = (
{
horizontal = 1;
origin = "{2, 5}";
target = "{1, 35}";
},
{
horizontal = 1;
origin = "{0, 23}";
target = "{2, 17}";
},
{
horizontal = 1;
origin = "{1, 11}";
target = "{0, 11}";
},
{
origin = "{2, 11}";
target = "{1, 29}";
},
{
origin = "{1, 41}";
target = "{2, 23}";
}
);
layerId = "A8E9A3C4-7003-4333-ABE9-545A429BAB07";
name = Regular;
paths = (
{
closed = 1;
nodes = (
"705 709 OFFCURVE",
"775 684 OFFCURVE",
"825 633 CURVE SMOOTH",
"871 586 OFFCURVE",
"899 516 OFFCURVE",
"899 418 CURVE SMOOTH",
"899 328 OFFCURVE",
"875 255 OFFCURVE",
"826 205 CURVE SMOOTH",
"777 154 OFFCURVE",
"706 129 OFFCURVE",
"619 129 CURVE SMOOTH",
"531 129 OFFCURVE",
"458 154 OFFCURVE",
"408 206 CURVE SMOOTH",
"359 257 OFFCURVE",
"334 331 OFFCURVE",
"334 421 CURVE SMOOTH",
"334 514 OFFCURVE",
"361 586 OFFCURVE",
"408 634 CURVE SMOOTH",
"457 684 OFFCURVE",
"526 709 OFFCURVE",
"616 709 CURVE SMOOTH"
);
},
{
closed = 1;
nodes = (
"340 771 OFFCURVE",
"264 727 OFFCURVE",
"211 660 CURVE SMOOTH",
"158 593 OFFCURVE",
"131 505 OFFCURVE",
"131 400 CURVE SMOOTH",
"131 261 OFFCURVE",
"178 156 OFFCURVE",
"260 84 CURVE SMOOTH",
"342 12 OFFCURVE",
"461 -29 OFFCURVE",
"615 -29 CURVE SMOOTH",
"768 -29 OFFCURVE",
"890 11 OFFCURVE",
"973 84 CURVE SMOOTH",
"1055 156 OFFCURVE",
"1102 263 OFFCURVE",
"1102 402 CURVE SMOOTH",
"1102 506 OFFCURVE",
"1076 593 OFFCURVE",
"1023 660 CURVE SMOOTH",
"970 727 OFFCURVE",
"893 771 OFFCURVE",
"793 793 CURVE",
"880 815 OFFCURVE",
"948 858 OFFCURVE",
"995 916 CURVE SMOOTH",
"1042 974 OFFCURVE",
"1067 1046 OFFCURVE",
"1067 1136 CURVE SMOOTH",
"1067 1253 OFFCURVE",
"1025 1348 OFFCURVE",
"946 1416 CURVE SMOOTH",
"868 1483 OFFCURVE",
"758 1520 OFFCURVE",
"616 1520 CURVE SMOOTH",
"474 1520 OFFCURVE",
"365 1483 OFFCURVE",
"287 1416 CURVE SMOOTH",
"206 1346 OFFCURVE",
"166 1250 OFFCURVE",
"166 1137 CURVE SMOOTH",
"166 1054 OFFCURVE",
"188 977 OFFCURVE",
"239 915 CURVE SMOOTH",
"287 856 OFFCURVE",
"359 813 OFFCURVE",
"440 793 CURVE"
);
},
{
closed = 1;
nodes = (
"367 1195 OFFCURVE",
"388 1257 OFFCURVE",
"431 1300 CURVE SMOOTH",
"474 1343 OFFCURVE",
"535 1364 OFFCURVE",
"616 1364 CURVE SMOOTH",
"698 1364 OFFCURVE",
"760 1343 OFFCURVE",
"803 1300 CURVE SMOOTH",
"845 1257 OFFCURVE",
"866 1195 OFFCURVE",
"866 1114 CURVE SMOOTH",
"866 1034 OFFCURVE",
"845 973 OFFCURVE",
"802 931 CURVE SMOOTH",
"759 889 OFFCURVE",
"697 868 OFFCURVE",
"616 868 CURVE SMOOTH",
"535 868 OFFCURVE",
"474 889 OFFCURVE",
"431 931 CURVE SMOOTH",
"388 973 OFFCURVE",
"367 1034 OFFCURVE",
"367 1114 CURVE SMOOTH"
);
}
);
width = 1233;
}
);
note = "\012\011eight\012  ";
unicode = 0038;
},
{
glyphname = nine;
lastChange = "2015-07-05 23:53:35 +0000";
layers = (
{
hints = (
{
horizontal = 1;
origin = "{0, 11}";
target = "{1, 18}";
},
{
horizontal = 1;
origin = "{1, 6}";
target = "{1, 42}";
},
{
horizontal = 1;
origin = "{1, 30}";
target = "{0, 23}";
},
{
origin = "{1, 24}";
target = "{0, 5}";
}
);
layerId = "A8E9A3C4-7003-4333-ABE9-545A429BAB07";
name = Regular;
paths = (
{
closed = 1;
nodes = (
"508 662 OFFCURVE",
"439 691 OFFCURVE",
"394 750 CURVE SMOOTH",
"349 809 OFFCURVE",
"326 896 OFFCURVE",
"326 1012 CURVE SMOOTH",
"326 1127 OFFCURVE",
"349 1215 OFFCURVE",
"394 1274 CURVE SMOOTH",
"441 1335 OFFCURVE",
"511 1362 OFFCURVE",
"593 1362 CURVE SMOOTH",
"686 1362 OFFCURVE",
"754 1327 OFFCURVE",
"799 1270 CURVE SMOOTH",
"845 1212 OFFCURVE",
"872 1124 OFFCURVE",
"872 1012 CURVE SMOOTH",
"872 900 OFFCURVE",
"845 812 OFFCURVE",
"799 754 CURVE SMOOTH",
"754 697 OFFCURVE",
"686 662 OFFCURVE",
"593 662 CURVE SMOOTH"
);
},
{
closed = 1;
nodes = (
"236 31 LINE",
"282 12 OFFCURVE",
"336 -5 OFFCURVE",
"379 -14 CURVE SMOOTH",
"426 -24 OFFCURVE",
"479 -29 OFFCURVE",
"528 -29 CURVE SMOOTH",
"706 -29 OFFCURVE",
"852 37 OFFCURVE",
"950 169 CURVE SMOOTH",
"1049 303 OFFCURVE",
"1094 503 OFFCURVE",
"1094 766 CURVE SMOOTH",
"1094 1004 OFFCURVE",
"1057 1200 OFFCURVE",
"972 1332 CURVE SMOOTH",
"894 1453 OFFCURVE",
"776 1520 OFFCURVE",
"594 1520 CURVE SMOOTH",
"447 1520 OFFCURVE",
"329 1476 OFFCURVE",
"249 1389 CURVE SMOOTH",
"166 1299 OFFCURVE",
"127 1167 OFFCURVE",
"127 1010 CURVE SMOOTH",
"127 852 OFFCURVE",
"167 726 OFFCURVE",
"246 637 CURVE SMOOTH",
"324 550 OFFCURVE",
"437 504 OFFCURVE",
"569 504 CURVE SMOOTH",
"651 504 OFFCURVE",
"720 522 OFFCURVE",
"775 557 CURVE SMOOTH",
"827 590 OFFCURVE",
"877 644 OFFCURVE",
"907 711 CURVE",
"907 524 OFFCURVE",
"874 382 OFFCURVE",
"809 286 CURVE SMOOTH",
"743 189 OFFCURVE",
"647 141 OFFCURVE",
"517 141 CURVE SMOOTH",
"468 141 OFFCURVE",
"417 148 OFFCURVE",
"370 161 CURVE SMOOTH",
"326 173 OFFCURVE",
"278 192 OFFCURVE",
"236 217 CURVE"
);
}
);
width = 1233;
}
);
note = "\012\011nine\012  ";
unicode = 0039;
},
{
glyphname = colon;
layers = (
{
layerId = "A8E9A3C4-7003-4333-ABE9-545A429BAB07";
name = Regular;
paths = (
{
closed = 1;
nodes = (
"458 835 OFFCURVE",
"474 794 OFFCURVE",
"505 763 CURVE SMOOTH",
"536 732 OFFCURVE",
"575 716 OFFCURVE",
"620 716 CURVE SMOOTH",
"665 716 OFFCURVE",
"704 732 OFFCURVE",
"735 763 CURVE SMOOTH",
"766 794 OFFCURVE",
"782 835 OFFCURVE",
"782 885 CURVE SMOOTH",
"782 935 OFFCURVE",
"766 976 OFFCURVE",
"735 1007 CURVE SMOOTH",
"704 1038 OFFCURVE",
"665 1054 OFFCURVE",
"620 1054 CURVE SMOOTH",
"575 1054 OFFCURVE",
"536 1038 OFFCURVE",
"505 1007 CURVE SMOOTH",
"474 976 OFFCURVE",
"458 935 OFFCURVE",
"458 885 CURVE SMOOTH"
);
},
{
closed = 1;
nodes = (
"458 119 OFFCURVE",
"474 78 OFFCURVE",
"505 47 CURVE SMOOTH",
"536 16 OFFCURVE",
"575 0 OFFCURVE",
"620 0 CURVE SMOOTH",
"665 0 OFFCURVE",
"704 16 OFFCURVE",
"735 47 CURVE SMOOTH",
"766 78 OFFCURVE",
"782 119 OFFCURVE",
"782 169 CURVE SMOOTH",
"782 219 OFFCURVE",
"766 260 OFFCURVE",
"735 291 CURVE SMOOTH",
"704 322 OFFCURVE",
"665 338 OFFCURVE",
"620 338 CURVE SMOOTH",
"575 338 OFFCURVE",
"536 322 OFFCURVE",
"505 291 CURVE SMOOTH",
"474 260 OFFCURVE",
"458 219 OFFCURVE",
"458 169 CURVE SMOOTH"
);
}
);
width = 1233;
}
);
note = "\012\011colon\012  ";
unicode = 003A;
},
{
glyphname = semicolon;
layers = (
{
layerId = "A8E9A3C4-7003-4333-ABE9-545A429BAB07";
name = Regular;
paths = (
{
closed = 1;
nodes = (
"655 694 OFFCURVE",
"694 710 OFFCURVE",
"725 741 CURVE SMOOTH",
"756 772 OFFCURVE",
"772 813 OFFCURVE",
"772 863 CURVE SMOOTH",
"772 913 OFFCURVE",
"756 954 OFFCURVE",
"725 985 CURVE SMOOTH",
"694 1016 OFFCURVE",
"655 1032 OFFCURVE",
"610 1032 CURVE SMOOTH",
"565 1032 OFFCURVE",
"526 1016 OFFCURVE",
"495 985 CURVE SMOOTH",
"464 954 OFFCURVE",
"448 913 OFFCURVE",
"448 863 CURVE SMOOTH",
"448 813 OFFCURVE",
"464 772 OFFCURVE",
"495 741 CURVE SMOOTH",
"526 710 OFFCURVE",
"565 694 OFFCURVE",
"610 694 CURVE SMOOTH"
);
},
{
closed = 1;
nodes = (
"450 -424 LINE",
"562 -383 OFFCURVE",
"649 -321 OFFCURVE",
"710 -239 CURVE SMOOTH",
"771 -157 OFFCURVE",
"802 -59 OFFCURVE",
"802 56 CURVE SMOOTH",
"802 136 OFFCURVE",
"787 199 OFFCURVE",
"756 244 CURVE SMOOTH",
"725 289 OFFCURVE",
"680 312 OFFCURVE",
"624 312 CURVE SMOOTH",
"576 312 OFFCURVE",
"534 295 OFFCURVE",
"508 272 CURVE SMOOTH",
"476 244 OFFCURVE",
"462 203 OFFCURVE",
"462 159 CURVE SMOOTH",
"462 113 OFFCURVE",
"477 75 OFFCURVE",
"506 49 CURVE SMOOTH",
"535 23 OFFCURVE",
"574 10 OFFCURVE",
"616 10 CURVE SMOOTH",
"628 10 OFFCURVE",
"640 11 OFFCURVE",
"656 14 CURVE",
"651 -135 OFFCURVE",
"567 -247 OFFCURVE",
"404 -320 CURVE"
);
}
);
width = 1233;
}
);
note = "\012\011semicolon\012  ";
unicode = 003B;
},
{
glyphname = less;
layers = (
{
layerId = "A8E9A3C4-7003-4333-ABE9-545A429BAB07";
name = Regular;
paths = (
{
closed = 1;
nodes = (
"1145 961 LINE",
"1145 1143 LINE",
"88 725 LINE",
"88 559 LINE",
"1145 141 LINE",
"1145 324 LINE",
"295 641 LINE"
);
}
);
width = 1233;
}
);
note = "\012\011less\012  ";
unicode = 003C;
},
{
glyphname = equal;
layers = (
{
layerId = "A8E9A3C4-7003-4333-ABE9-545A429BAB07";
name = Regular;
paths = (
{
closed = 1;
nodes = (
"88 524 LINE",
"88 352 LINE",
"1145 352 LINE",
"1145 524 LINE"
);
},
{
closed = 1;
nodes = (
"88 930 LINE",
"88 760 LINE",
"1145 760 LINE",
"1145 930 LINE"
);
}
);
width = 1233;
}
);
note = "\012\011equal\012  ";
unicode = 003D;
},
{
glyphname = greater;
layers = (
{
layerId = "A8E9A3C4-7003-4333-ABE9-545A429BAB07";
name = Regular;
paths = (
{
closed = 1;
nodes = (
"88 961 LINE",
"938 641 LINE",
"88 324 LINE",
"88 141 LINE",
"1145 559 LINE",
"1145 725 LINE",
"88 1143 LINE"
);
}
);
width = 1233;
}
);
note = "\012\011greater\012  ";
unicode = 003E;
},
{
glyphname = question;
lastChange = "2015-07-05 23:54:23 +0000";
layers = (
{
hints = (
{
horizontal = 1;
origin = "{1, 34}";
target = "{1, 21}";
},
{
origin = "{1, 40}";
target = "{1, 15}";
},
{
origin = "{1, 54}";
target = "{1, 0}";
},
{
horizontal = 1;
origin = "{0, 5}";
target = up;
type = BottomGhost;
}
);
layerId = "A8E9A3C4-7003-4333-ABE9-545A429BAB07";
name = Regular;
paths = (
{
closed = 1;
nodes = (
"446 70 OFFCURVE",
"460 31 OFFCURVE",
"489 2 CURVE SMOOTH",
"517 -26 OFFCURVE",
"553 -40 OFFCURVE",
"593 -40 CURVE SMOOTH",
"633 -40 OFFCURVE",
"667 -26 OFFCURVE",
"696 3 CURVE SMOOTH",
"724 31 OFFCURVE",
"738 69 OFFCURVE",
"738 113 CURVE SMOOTH",
"738 156 OFFCURVE",
"724 194 OFFCURVE",
"696 222 CURVE SMOOTH",
"670 248 OFFCURVE",
"634 264 OFFCURVE",
"592 264 CURVE SMOOTH",
"547 264 OFFCURVE",
"511 245 OFFCURVE",
"488 222 CURVE SMOOTH",
"460 194 OFFCURVE",
"446 155 OFFCURVE",
"446 113 CURVE SMOOTH"
);
},
{
closed = 1;
nodes = (
"684 472 LINE",
"684 552 LINE",
"684 599 LINE SMOOTH",
"684 627 OFFCURVE",
"691 657 OFFCURVE",
"703 682 CURVE SMOOTH",
"715 708 OFFCURVE",
"744 744 OFFCURVE",
"791 790 CURVE SMOOTH",
"879 876 LINE SMOOTH",
"941 937 OFFCURVE",
"982 988 OFFCURVE",
"1006 1033 CURVE SMOOTH",
"1029 1077 OFFCURVE",
"1040 1123 OFFCURVE",
"1040 1178 CURVE SMOOTH",
"1040 1278 OFFCURVE",
"1003 1368 OFFCURVE",
"931 1432 CURVE SMOOTH",
"863 1492 OFFCURVE",
"761 1528 OFFCURVE",
"629 1528 CURVE SMOOTH",
"560 1528 OFFCURVE",
"495 1518 OFFCURVE",
"434 1500 CURVE SMOOTH",
"375 1483 OFFCURVE",
"307 1453 OFFCURVE",
"244 1415 CURVE",
"244 1227 LINE",
"309 1272 OFFCURVE",
"372 1307 OFFCURVE",
"431 1330 CURVE SMOOTH",
"490 1353 OFFCURVE",
"545 1364 OFFCURVE",
"600 1364 CURVE SMOOTH",
"670 1364 OFFCURVE",
"729 1346 OFFCURVE",
"773 1309 CURVE SMOOTH",
"812 1276 OFFCURVE",
"838 1228 OFFCURVE",
"838 1166 CURVE SMOOTH",
"838 1132 OFFCURVE",
"830 1101 OFFCURVE",
"814 1072 CURVE SMOOTH",
"799 1044 OFFCURVE",
"768 1008 OFFCURVE",
"729 969 CURVE SMOOTH",
"639 880 LINE SMOOTH",
"582 823 OFFCURVE",
"546 777 OFFCURVE",
"524 729 CURVE SMOOTH",
"504 684 OFFCURVE",
"494 635 OFFCURVE",
"494 583 CURVE SMOOTH",
"494 472 LINE"
);
}
);
width = 1233;
}
);
note = "\012\011question\012  ";
unicode = 003F;
},
{
glyphname = at;
lastChange = "2015-07-05 23:55:29 +0000";
layers = (
{
hints = (
{
horizontal = 1;
origin = "{1, 44}";
target = "{1, 7}";
},
{
origin = "{1, 76}";
target = "{1, 0}";
},
{
origin = "{1, 63}";
target = "{0, 11}";
},
{
origin = "{1, 13}";
target = "{1, 38}";
},
{
horizontal = 1;
origin = "{1, 19}";
target = "{1, 32}";
},
{
horizontal = 1;
origin = "{1, 69}";
target = "{0, 5}";
},
{
horizontal = 1;
origin = "{0, 17}";
target = "{1, 57}";
}
);
layerId = "A8E9A3C4-7003-4333-ABE9-545A429BAB07";
name = Regular;
paths = (
{
closed = 1;
nodes = (
"1038 461 OFFCURVE",
"1017 389 OFFCURVE",
"975 338 CURVE SMOOTH",
"933 287 OFFCURVE",
"872 260 OFFCURVE",
"803 260 CURVE SMOOTH",
"734 260 OFFCURVE",
"675 286 OFFCURVE",
"632 337 CURVE SMOOTH",
"590 387 OFFCURVE",
"567 459 OFFCURVE",
"567 546 CURVE SMOOTH",
"567 631 OFFCURVE",
"589 700 OFFCURVE",
"632 752 CURVE SMOOTH",
"675 803 OFFCURVE",
"732 829 OFFCURVE",
"803 829 CURVE SMOOTH",
"869 829 OFFCURVE",
"929 806 OFFCURVE",
"974 752 CURVE SMOOTH",
"1017 700 OFFCURVE",
"1038 631 OFFCURVE",
"1038 546 CURVE SMOOTH"
);
},
{
closed = 1;
nodes = (
"1178 135 LINE",
"1178 905 LINE SMOOTH",
"1178 1052 OFFCURVE",
"1133 1178 OFFCURVE",
"1054 1263 CURVE SMOOTH",
"975 1348 OFFCURVE",
"860 1395 OFFCURVE",
"709 1395 CURVE SMOOTH",
"519 1395 OFFCURVE",
"341 1320 OFFCURVE",
"214 1164 CURVE SMOOTH",
"90 1011 OFFCURVE",
"27 796 OFFCURVE",
"27 547 CURVE SMOOTH",
"27 276 OFFCURVE",
"102 61 OFFCURVE",
"236 -87 CURVE SMOOTH",
"376 -241 OFFCURVE",
"573 -319 OFFCURVE",
"796 -319 CURVE SMOOTH",
"846 -319 OFFCURVE",
"882 -315 OFFCURVE",
"923 -307 CURVE SMOOTH",
"967 -298 OFFCURVE",
"1002 -288 OFFCURVE",
"1047 -270 CURVE",
"999 -135 LINE",
"961 -149 OFFCURVE",
"924 -159 OFFCURVE",
"888 -166 CURVE SMOOTH",
"852 -173 OFFCURVE",
"816 -176 OFFCURVE",
"778 -176 CURVE SMOOTH",
"596 -176 OFFCURVE",
"444 -105 OFFCURVE",
"340 18 CURVE SMOOTH",
"234 143 OFFCURVE",
"176 324 OFFCURVE",
"176 549 CURVE SMOOTH",
"176 763 OFFCURVE",
"228 939 OFFCURVE",
"322 1062 CURVE SMOOTH",
"419 1189 OFFCURVE",
"554 1253 OFFCURVE",
"702 1253 CURVE SMOOTH",
"808 1253 OFFCURVE",
"891 1220 OFFCURVE",
"947 1159 CURVE SMOOTH",
"1002 1099 OFFCURVE",
"1034 1010 OFFCURVE",
"1034 907 CURVE SMOOTH",
"1034 844 LINE",
"1010 885 OFFCURVE",
"977 916 OFFCURVE",
"931 940 CURVE SMOOTH",
"886 963 OFFCURVE",
"838 975 OFFCURVE",
"782 975 CURVE SMOOTH",
"680 975 OFFCURVE",
"588 935 OFFCURVE",
"517 854 CURVE SMOOTH",
"447 773 OFFCURVE",
"412 666 OFFCURVE",
"412 546 CURVE SMOOTH",
"412 415 OFFCURVE",
"454 307 OFFCURVE",
"517 235 CURVE SMOOTH",
"584 158 OFFCURVE",
"679 115 OFFCURVE",
"785 115 CURVE SMOOTH",
"839 115 OFFCURVE",
"888 126 OFFCURVE",
"932 149 CURVE SMOOTH",
"975 172 OFFCURVE",
"1009 204 OFFCURVE",
"1034 246 CURVE",
"1034 135 LINE"
);
}
);
width = 1233;
}
);
note = "\012\011at\012  ";
unicode = 0040;
},
{
glyphname = A;
lastChange = "2015-07-05 23:56:47 +0000";
layers = (
{
hints = (
{
horizontal = 1;
origin = "{1, 0}";
target = down;
type = TopGhost;
},
{
horizontal = 1;
origin = "{1, 1}";
target = up;
type = BottomGhost;
},
{
origin = "{1, 1}";
target = "{1, 2}";
},
{
origin = "{1, 0}";
target = "{1, 7}";
},
{
origin = "{1, 5}";
target = "{1, 6}";
},
{
horizontal = 1;
origin = "{1, 4}";
target = "{0, 1}";
}
);
layerId = "A8E9A3C4-7003-4333-ABE9-545A429BAB07";
name = Regular;
paths = (
{
closed = 1;
nodes = (
"616 1315 LINE",
"829 551 LINE",
"403 551 LINE"
);
},
{
closed = 1;
nodes = (
"494 1493 LINE",
"37 0 LINE",
"246 0 LINE",
"354 389 LINE",
"877 389 LINE",
"987 0 LINE",
"1196 0 LINE",
"739 1493 LINE"
);
}
);
width = 1233;
}
);
note = "\012\011A\012  ";
unicode = 0041;
},
{
glyphname = B;
lastChange = "2015-07-06 00:05:16 +0000";
layers = (
{
hints = (
{
horizontal = 1;
origin = "{2, 26}";
target = "{1, 1}";
},
{
horizontal = 1;
origin = "{2, 2}";
target = "{0, 13}";
},
{
origin = "{2, 0}";
target = "{1, 0}";
},
{
origin = "{0, 7}";
target = "{2, 8}";
},
{
horizontal = 1;
origin = "{0, 0}";
target = "{1, 14}";
}
);
layerId = "A8E9A3C4-7003-4333-ABE9-545A429BAB07";
name = Regular;
paths = (
{
closed = 1;
nodes = (
"369 713 LINE",
"608 713 LINE SMOOTH",
"720 713 OFFCURVE",
"802 690 OFFCURVE",
"855 645 CURVE SMOOTH",
"908 599 OFFCURVE",
"934 527 OFFCURVE",
"934 430 CURVE SMOOTH",
"934 336 OFFCURVE",
"909 269 OFFCURVE",
"859 228 CURVE SMOOTH",
"809 187 OFFCURVE",
"725 166 OFFCURVE",
"608 166 CURVE SMOOTH",
"369 166 LINE"
);
},
{
closed = 1;
nodes = (
"369 1327 LINE",
"604 1327 LINE SMOOTH",
"703 1327 OFFCURVE",
"774 1310 OFFCURVE",
"817 1277 CURVE SMOOTH",
"860 1244 OFFCURVE",
"881 1191 OFFCURVE",
"881 1111 CURVE SMOOTH",
"881 1031 OFFCURVE",
"860 972 OFFCURVE",
"816 934 CURVE SMOOTH",
"772 896 OFFCURVE",
"705 877 OFFCURVE",
"604 877 CURVE SMOOTH",
"369 877 LINE"
);
},
{
closed = 1;
nodes = (
"166 1493 LINE",
"166 0 LINE",
"608 0 LINE SMOOTH",
"783 0 OFFCURVE",
"915 35 OFFCURVE",
"1004 104 CURVE SMOOTH",
"1093 173 OFFCURVE",
"1137 275 OFFCURVE",
"1137 409 CURVE SMOOTH",
"1137 518 OFFCURVE",
"1108 607 OFFCURVE",
"1054 674 CURVE SMOOTH",
"998 743 OFFCURVE",
"921 784 OFFCURVE",
"823 799 CURVE",
"912 812 OFFCURVE",
"978 847 OFFCURVE",
"1020 898 CURVE SMOOTH",
"1061 948 OFFCURVE",
"1085 1020 OFFCURVE",
"1085 1113 CURVE SMOOTH",
"1085 1235 OFFCURVE",
"1044 1328 OFFCURVE",
"961 1394 CURVE SMOOTH",
"878 1460 OFFCURVE",
"761 1493 OFFCURVE",
"608 1493 CURVE SMOOTH"
);
}
);
width = 1233;
}
);
note = "\012\011B\012  ";
unicode = 0042;
},
{
glyphname = C;
lastChange = "2015-07-06 00:05:45 +0000";
layers = (
{
hints = (
{
horizontal = 1;
origin = "{0, 18}";
target = "{0, 31}";
},
{
horizontal = 1;
origin = "{0, 43}";
target = "{0, 6}";
},
{
origin = "{0, 37}";
target = "{0, 12}";
}
);
layerId = "A8E9A3C4-7003-4333-ABE9-545A429BAB07";
name = Regular;
paths = (
{
closed = 1;
nodes = (
"1073 260 LINE",
"1024 219 OFFCURVE",
"972 188 OFFCURVE",
"916 167 CURVE SMOOTH",
"859 146 OFFCURVE",
"803 135 OFFCURVE",
"743 135 CURVE SMOOTH",
"613 135 OFFCURVE",
"513 186 OFFCURVE",
"448 287 CURVE SMOOTH",
"383 388 OFFCURVE",
"350 541 OFFCURVE",
"350 745 CURVE SMOOTH",
"350 950 OFFCURVE",
"383 1103 OFFCURVE",
"448 1204 CURVE SMOOTH",
"513 1305 OFFCURVE",
"613 1356 OFFCURVE",
"741 1356 CURVE SMOOTH",
"801 1356 OFFCURVE",
"857 1345 OFFCURVE",
"914 1324 CURVE SMOOTH",
"973 1302 OFFCURVE",
"1024 1272 OFFCURVE",
"1073 1231 CURVE",
"1073 1438 LINE",
"1025 1464 OFFCURVE",
"963 1488 OFFCURVE",
"915 1500 CURVE SMOOTH",
"867 1512 OFFCURVE",
"806 1520 OFFCURVE",
"742 1520 CURVE SMOOTH",
"557 1520 OFFCURVE",
"404 1452 OFFCURVE",
"298 1316 CURVE SMOOTH",
"192 1180 OFFCURVE",
"139 984 OFFCURVE",
"139 744 CURVE SMOOTH",
"139 504 OFFCURVE",
"192 309 OFFCURVE",
"297 174 CURVE SMOOTH",
"403 38 OFFCURVE",
"557 -29 OFFCURVE",
"742 -29 CURVE SMOOTH",
"802 -29 OFFCURVE",
"863 -22 OFFCURVE",
"915 -9 CURVE SMOOTH",
"969 5 OFFCURVE",
"1022 26 OFFCURVE",
"1073 53 CURVE"
);
}
);
width = 1233;
}
);
note = "\012\011C\012  ";
unicode = 0043;
},
{
glyphname = D;
lastChange = "2015-07-06 00:06:23 +0000";
layers = (
{
hints = (
{
horizontal = 1;
origin = "{1, 14}";
target = "{0, 2}";
},
{
horizontal = 1;
origin = "{1, 2}";
target = "{0, 14}";
},
{
origin = "{1, 1}";
target = "{0, 0}";
},
{
origin = "{0, 8}";
target = "{1, 8}";
}
);
layerId = "A8E9A3C4-7003-4333-ABE9-545A429BAB07";
name = Regular;
paths = (
{
closed = 1;
nodes = (
"340 166 LINE",
"340 1327 LINE",
"436 1327 LINE SMOOTH",
"602 1327 OFFCURVE",
"725 1287 OFFCURVE",
"793 1202 CURVE SMOOTH",
"860 1118 OFFCURVE",
"893 965 OFFCURVE",
"893 747 CURVE SMOOTH",
"893 525 OFFCURVE",
"859 375 OFFCURVE",
"792 292 CURVE SMOOTH",
"725 208 OFFCURVE",
"606 166 OFFCURVE",
"436 166 CURVE SMOOTH"
);
},
{
closed = 1;
nodes = (
"137 1493 LINE",
"137 0 LINE",
"440 0 LINE SMOOTH",
"668 0 OFFCURVE",
"836 61 OFFCURVE",
"944 182 CURVE SMOOTH",
"1052 303 OFFCURVE",
"1106 490 OFFCURVE",
"1106 745 CURVE SMOOTH",
"1106 1001 OFFCURVE",
"1052 1190 OFFCURVE",
"944 1311 CURVE SMOOTH",
"836 1432 OFFCURVE",
"668 1493 OFFCURVE",
"440 1493 CURVE SMOOTH"
);
}
);
width = 1233;
}
);
note = "\012\011D\012  ";
unicode = 0044;
},
{
glyphname = E;
lastChange = "2015-07-06 00:06:48 +0000";
layers = (
{
hints = (
{
horizontal = 1;
origin = "{0, 11}";
target = "{0, 10}";
},
{
horizontal = 1;
origin = "{0, 6}";
target = "{0, 7}";
},
{
horizontal = 1;
origin = "{0, 2}";
target = "{0, 3}";
},
{
origin = "{0, 1}";
target = "{0, 4}";
}
);
layerId = "A8E9A3C4-7003-4333-ABE9-545A429BAB07";
name = Regular;
paths = (
{
closed = 1;
nodes = (
"197 1493 LINE",
"197 0 LINE",
"1102 0 LINE",
"1102 170 LINE",
"399 170 LINE",
"399 711 LINE",
"1053 711 LINE",
"1053 881 LINE",
"399 881 LINE",
"399 1323 LINE",
"1083 1323 LINE",
"1083 1493 LINE"
);
}
);
width = 1233;
}
);
note = "\012\011E\012  ";
unicode = 0045;
},
{
glyphname = F;
lastChange = "2015-07-06 00:07:11 +0000";
layers = (
{
hints = (
{
horizontal = 1;
origin = "{0, 9}";
target = "{0, 8}";
},
{
horizontal = 1;
origin = "{0, 4}";
target = "{0, 5}";
},
{
origin = "{0, 1}";
target = "{0, 2}";
},
{
horizontal = 1;
origin = "{0, 1}";
target = up;
type = BottomGhost;
}
);
layerId = "A8E9A3C4-7003-4333-ABE9-545A429BAB07";
name = Regular;
paths = (
{
closed = 1;
nodes = (
"233 1493 LINE",
"233 0 LINE",
"436 0 LINE",
"436 713 LINE",
"1049 713 LINE",
"1049 883 LINE",
"436 883 LINE",
"436 1323 LINE",
"1112 1323 LINE",
"1112 1493 LINE"
);
}
);
width = 1233;
}
);
note = "\012\011F\012  ";
unicode = 0046;
},
{
glyphname = G;
lastChange = "2015-07-06 00:07:51 +0000";
layers = (
{
hints = (
{
horizontal = 1;
origin = "{0, 22}";
target = "{0, 35}";
},
{
horizontal = 1;
origin = "{0, 2}";
target = "{0, 1}";
},
{
horizontal = 1;
origin = "{0, 47}";
target = "{0, 10}";
},
{
origin = "{0, 3}";
target = "{0, 0}";
},
{
origin = "{0, 41}";
target = "{0, 16}";
}
);
layerId = "A8E9A3C4-7003-4333-ABE9-545A429BAB07";
name = Regular;
paths = (
{
closed = 1;
nodes = (
"1104 766 LINE",
"694 766 LINE",
"694 600 LINE",
"911 600 LINE",
"911 199 LINE",
"883 176 OFFCURVE",
"852 161 OFFCURVE",
"820 151 CURVE SMOOTH",
"786 140 OFFCURVE",
"746 135 OFFCURVE",
"703 135 CURVE SMOOTH",
"569 135 OFFCURVE",
"472 185 OFFCURVE",
"409 285 CURVE SMOOTH",
"346 384 OFFCURVE",
"313 534 OFFCURVE",
"313 743 CURVE SMOOTH",
"313 951 OFFCURVE",
"346 1102 OFFCURVE",
"412 1204 CURVE SMOOTH",
"479 1307 OFFCURVE",
"578 1356 OFFCURVE",
"706 1356 CURVE SMOOTH",
"766 1356 OFFCURVE",
"829 1345 OFFCURVE",
"887 1320 CURVE SMOOTH",
"938 1298 OFFCURVE",
"996 1260 OFFCURVE",
"1053 1206 CURVE",
"1053 1413 LINE",
"1001 1448 OFFCURVE",
"945 1476 OFFCURVE",
"887 1494 CURVE SMOOTH",
"832 1511 OFFCURVE",
"769 1520 OFFCURVE",
"703 1520 CURVE SMOOTH",
"518 1520 OFFCURVE",
"366 1449 OFFCURVE",
"262 1317 CURVE SMOOTH",
"158 1185 OFFCURVE",
"102 991 OFFCURVE",
"102 744 CURVE SMOOTH",
"102 504 OFFCURVE",
"155 310 OFFCURVE",
"259 175 CURVE SMOOTH",
"361 43 OFFCURVE",
"511 -29 OFFCURVE",
"700 -29 CURVE SMOOTH",
"781 -29 OFFCURVE",
"854 -16 OFFCURVE",
"922 10 CURVE SMOOTH",
"991 36 OFFCURVE",
"1050 73 OFFCURVE",
"1104 123 CURVE"
);
}
);
width = 1233;
}
);
note = "\012\011G\012  ";
unicode = 0047;
},
{
glyphname = H;
lastChange = "2015-07-06 00:08:18 +0000";
layers = (
{
hints = (
{
horizontal = 1;
origin = "{0, 0}";
target = down;
type = TopGhost;
},
{
horizontal = 1;
origin = "{0, 1}";
target = up;
type = BottomGhost;
},
{
origin = "{0, 1}";
target = "{0, 2}";
},
{
origin = "{0, 5}";
target = "{0, 6}";
},
{
horizontal = 1;
origin = "{0, 3}";
target = "{0, 10}";
}
);
layerId = "A8E9A3C4-7003-4333-ABE9-545A429BAB07";
name = Regular;
paths = (
{
closed = 1;
nodes = (
"137 1493 LINE",
"137 0 LINE",
"340 0 LINE",
"340 711 LINE",
"893 711 LINE",
"893 0 LINE",
"1096 0 LINE",
"1096 1493 LINE",
"893 1493 LINE",
"893 881 LINE",
"340 881 LINE",
"340 1493 LINE"
);
}
);
width = 1233;
}
);
note = "\012\011H\012  ";
unicode = 0048;
},
{
glyphname = I;
lastChange = "2015-07-06 00:08:45 +0000";
layers = (
{
hints = (
{
horizontal = 1;
origin = "{0, 0}";
target = "{0, 1}";
},
{
horizontal = 1;
origin = "{0, 5}";
target = "{0, 4}";
},
{
origin = "{0, 3}";
target = "{0, 8}";
}
);
layerId = "A8E9A3C4-7003-4333-ABE9-545A429BAB07";
name = Regular;
paths = (
{
closed = 1;
nodes = (
"201 1493 LINE",
"201 1323 LINE",
"514 1323 LINE",
"514 170 LINE",
"201 170 LINE",
"201 0 LINE",
"1030 0 LINE",
"1030 170 LINE",
"717 170 LINE",
"717 1323 LINE",
"1030 1323 LINE",
"1030 1493 LINE"
);
}
);
width = 1233;
}
);
note = "\012\011I\012  ";
unicode = 0049;
},
{
glyphname = J;
lastChange = "2015-07-06 00:10:19 +0000";
layers = (
{
hints = (
{
horizontal = 1;
origin = "{0, 14}";
target = "{0, 15}";
},
{
origin = "{0, 17}";
target = "{0, 12}";
},
{
horizontal = 1;
origin = "{0, 6}";
target = "{0, 23}";
}
);
layerId = "A8E9A3C4-7003-4333-ABE9-545A429BAB07";
name = Regular;
paths = (
{
closed = 1;
nodes = (
"109 61 LINE",
"176 31 OFFCURVE",
"243 8 OFFCURVE",
"307 -7 CURVE SMOOTH",
"370 -22 OFFCURVE",
"432 -29 OFFCURVE",
"502 -29 CURVE SMOOTH",
"664 -29 OFFCURVE",
"777 8 OFFCURVE",
"850 89 CURVE SMOOTH",
"923 170 OFFCURVE",
"956 296 OFFCURVE",
"956 487 CURVE SMOOTH",
"956 1493 LINE",
"373 1493 LINE",
"373 1323 LINE",
"754 1323 LINE",
"754 487 LINE SMOOTH",
"754 352 OFFCURVE",
"735 259 OFFCURVE",
"698 210 CURVE SMOOTH",
"659 158 OFFCURVE",
"588 135 OFFCURVE",
"499 135 CURVE SMOOTH",
"429 135 OFFCURVE",
"362 149 OFFCURVE",
"297 176 CURVE SMOOTH",
"232 203 OFFCURVE",
"170 243 OFFCURVE",
"109 297 CURVE"
);
}
);
width = 1233;
}
);
note = "\012\011J\012  ";
unicode = 004A;
},
{
glyphname = K;
lastChange = "2015-07-06 00:43:41 +0000";
layers = (
{
hints = (
{
horizontal = 1;
origin = "{0, 0}";
target = down;
type = TopGhost;
},
{
horizontal = 1;
origin = "{0, 1}";
target = up;
type = BottomGhost;
},
{
origin = "{0, 1}";
target = "{0, 2}";
},
{
origin = "{0, 5}";
target = "{0, 6}";
}
);
layerId = "A8E9A3C4-7003-4333-ABE9-545A429BAB07";
name = Regular;
paths = (
{
closed = 1;
nodes = (
"137 1493 LINE",
"137 0 LINE",
"340 0 LINE",
"340 584 LINE",
"494 748 LINE",
"981 0 LINE",
"1225 0 LINE",
"627 883 LINE",
"1208 1493 LINE",
"971 1493 LINE",
"340 829 LINE",
"340 1493 LINE"
);
}
);
width = 1233;
}
);
note = "\012\011K\012  ";
unicode = 004B;
},
{
glyphname = L;
lastChange = "2015-07-06 00:11:30 +0000";
layers = (
{
hints = (
{
horizontal = 1;
origin = "{0, 0}";
target = down;
type = TopGhost;
},
{
horizontal = 1;
origin = "{0, 2}";
target = "{0, 3}";
},
{
origin = "{0, 0}";
target = "{0, 5}";
}
);
layerId = "A8E9A3C4-7003-4333-ABE9-545A429BAB07";
name = Regular;
paths = (
{
closed = 1;
nodes = (
"215 1493 LINE",
"215 0 LINE",
"1139 0 LINE",
"1139 170 LINE",
"418 170 LINE",
"418 1493 LINE"
);
}
);
width = 1233;
}
);
note = "\012\011L\012  ";
unicode = 004C;
},
{
glyphname = M;
lastChange = "2015-07-06 00:42:36 +0000";
layers = (
{
hints = (
{
horizontal = 1;
origin = "{0, 1}";
target = up;
type = BottomGhost;
},
{
horizontal = 1;
origin = "{0, 0}";
target = down;
type = TopGhost;
},
{
origin = "{0, 1}";
target = "{0, 2}";
},
{
origin = "{0, 7}";
target = "{0, 8}";
}
);
layerId = "A8E9A3C4-7003-4333-ABE9-545A429BAB07";
name = Regular;
paths = (
{
closed = 1;
nodes = (
"86 1493 LINE",
"86 0 LINE",
"272 0 LINE",
"272 1319 LINE",
"539 532 LINE",
"692 532 LINE",
"958 1319 LINE",
"958 0 LINE",
"1145 0 LINE",
"1145 1493 LINE",
"874 1493 LINE",
"614 733 LINE",
"356 1493 LINE"
);
}
);
width = 1233;
}
);
note = "\012\011M\012  ";
unicode = 004D;
},
{
glyphname = N;
lastChange = "2015-07-06 00:03:08 +0000";
layers = (
{
hints = (
{
horizontal = 1;
origin = "{0, 0}";
target = down;
type = TopGhost;
},
{
horizontal = 1;
origin = "{0, 1}";
target = up;
type = BottomGhost;
},
{
origin = "{0, 1}";
target = "{0, 2}";
},
{
origin = "{0, 7}";
target = "{0, 6}";
}
);
layerId = "A8E9A3C4-7003-4333-ABE9-545A429BAB07";
name = Regular;
paths = (
{
closed = 1;
nodes = (
"139 1493 LINE",
"139 0 LINE",
"334 0 LINE",
"334 1229 LINE",
"838 0 LINE",
"1094 0 LINE",
"1094 1493 LINE",
"899 1493 LINE",
"899 264 LINE",
"395 1493 LINE"
);
}
);
width = 1233;
}
);
note = "\012\011N\012  ";
unicode = 004E;
},
{
glyphname = O;
lastChange = "2015-07-06 00:03:35 +0000";
layers = (
{
hints = (
{
horizontal = 1;
origin = "{0, 17}";
target = "{1, 5}";
},
{
horizontal = 1;
origin = "{1, 17}";
target = "{0, 5}";
},
{
origin = "{0, 23}";
target = "{1, 23}";
},
{
origin = "{1, 11}";
target = "{0, 11}";
}
);
layerId = "A8E9A3C4-7003-4333-ABE9-545A429BAB07";
name = Regular;
paths = (
{
closed = 1;
nodes = (
"905 526 OFFCURVE",
"883 369 OFFCURVE",
"838 276 CURVE SMOOTH",
"793 182 OFFCURVE",
"719 135 OFFCURVE",
"616 135 CURVE SMOOTH",
"514 135 OFFCURVE",
"441 182 OFFCURVE",
"396 276 CURVE SMOOTH",
"351 370 OFFCURVE",
"328 526 OFFCURVE",
"328 745 CURVE SMOOTH",
"328 964 OFFCURVE",
"351 1121 OFFCURVE",
"396 1215 CURVE SMOOTH",
"441 1309 OFFCURVE",
"514 1356 OFFCURVE",
"616 1356 CURVE SMOOTH",
"719 1356 OFFCURVE",
"793 1309 OFFCURVE",
"838 1215 CURVE SMOOTH",
"883 1121 OFFCURVE",
"905 964 OFFCURVE",
"905 745 CURVE SMOOTH"
);
},
{
closed = 1;
nodes = (
"1116 1006 OFFCURVE",
"1075 1200 OFFCURVE",
"993 1328 CURVE SMOOTH",
"908 1460 OFFCURVE",
"779 1520 OFFCURVE",
"616 1520 CURVE SMOOTH",
"446 1520 OFFCURVE",
"323 1455 OFFCURVE",
"241 1328 CURVE SMOOTH",
"158 1200 OFFCURVE",
"117 1006 OFFCURVE",
"117 745 CURVE SMOOTH",
"117 484 OFFCURVE",
"158 289 OFFCURVE",
"240 162 CURVE SMOOTH",
"322 35 OFFCURVE",
"447 -29 OFFCURVE",
"616 -29 CURVE SMOOTH",
"779 -29 OFFCURVE",
"908 31 OFFCURVE",
"993 163 CURVE SMOOTH",
"1075 291 OFFCURVE",
"1116 485 OFFCURVE",
"1116 745 CURVE SMOOTH"
);
}
);
width = 1233;
}
);
note = "\012\011O\012  ";
unicode = 004F;
},
{
glyphname = P;
lastChange = "2015-07-06 00:04:11 +0000";
layers = (
{
hints = (
{
horizontal = 1;
origin = "{1, 1}";
target = up;
type = BottomGhost;
},
{
horizontal = 1;
origin = "{1, 16}";
target = "{0, 1}";
},
{
horizontal = 1;
origin = "{1, 3}";
target = "{0, 14}";
},
{
origin = "{0, 7}";
target = "{1, 10}";
},
{
origin = "{1, 1}";
target = "{1, 2}";
}
);
layerId = "A8E9A3C4-7003-4333-ABE9-545A429BAB07";
name = Regular;
paths = (
{
closed = 1;
nodes = (
"399 1327 LINE",
"633 1327 LINE SMOOTH",
"727 1327 OFFCURVE",
"800 1303 OFFCURVE",
"852 1254 CURVE SMOOTH",
"904 1205 OFFCURVE",
"930 1136 OFFCURVE",
"930 1047 CURVE SMOOTH",
"930 958 OFFCURVE",
"904 889 OFFCURVE",
"852 840 CURVE SMOOTH",
"804 795 OFFCURVE",
"732 766 OFFCURVE",
"633 766 CURVE SMOOTH",
"399 766 LINE"
);
},
{
closed = 1;
nodes = (
"197 1493 LINE",
"197 0 LINE",
"399 0 LINE",
"399 600 LINE",
"633 600 LINE SMOOTH",
"801 600 OFFCURVE",
"929 639 OFFCURVE",
"1013 713 CURVE SMOOTH",
"1098 788 OFFCURVE",
"1141 900 OFFCURVE",
"1141 1046 CURVE SMOOTH",
"1141 1187 OFFCURVE",
"1101 1302 OFFCURVE",
"1012 1380 CURVE SMOOTH",
"926 1455 OFFCURVE",
"800 1493 OFFCURVE",
"633 1493 CURVE SMOOTH"
);
}
);
width = 1233;
}
);
note = "\012\011P\012  ";
unicode = 0050;
},
{
glyphname = Q;
lastChange = "2015-07-06 00:44:06 +0000";
layers = (
{
hints = (
{
horizontal = 1;
origin = "{1, 17}";
target = "{0, 14}";
},
{
horizontal = 1;
origin = "{0, 26}";
target = "{1, 5}";
},
{
origin = "{1, 23}";
target = "{0, 8}";
},
{
origin = "{0, 20}";
target = "{1, 11}";
}
);
layerId = "A8E9A3C4-7003-4333-ABE9-545A429BAB07";
name = Regular;
paths = (
{
closed = 1;
nodes = (
"889 -270 LINE",
"1040 -170 LINE",
"840 20 LINE",
"934 68 OFFCURVE",
"1004 156 OFFCURVE",
"1048 272 CURVE SMOOTH",
"1093 391 OFFCURVE",
"1116 549 OFFCURVE",
"1116 745 CURVE SMOOTH",
"1116 1006 OFFCURVE",
"1075 1200 OFFCURVE",
"993 1328 CURVE SMOOTH",
"908 1460 OFFCURVE",
"779 1520 OFFCURVE",
"616 1520 CURVE SMOOTH",
"446 1520 OFFCURVE",
"323 1455 OFFCURVE",
"241 1328 CURVE SMOOTH",
"158 1200 OFFCURVE",
"117 1006 OFFCURVE",
"117 745 CURVE SMOOTH",
"117 490 OFFCURVE",
"156 295 OFFCURVE",
"241 163 CURVE SMOOTH",
"326 31 OFFCURVE",
"451 -29 OFFCURVE",
"617 -29 CURVE SMOOTH",
"619 -29 OFFCURVE",
"626 -29 OFFCURVE",
"635 -28 CURVE SMOOTH",
"644 -27 OFFCURVE",
"650 -27 OFFCURVE",
"655 -27 CURVE"
);
},
{
closed = 1;
nodes = (
"905 526 OFFCURVE",
"883 369 OFFCURVE",
"838 276 CURVE SMOOTH",
"793 182 OFFCURVE",
"719 135 OFFCURVE",
"616 135 CURVE SMOOTH",
"514 135 OFFCURVE",
"441 182 OFFCURVE",
"396 276 CURVE SMOOTH",
"351 370 OFFCURVE",
"328 526 OFFCURVE",
"328 745 CURVE SMOOTH",
"328 964 OFFCURVE",
"351 1121 OFFCURVE",
"396 1215 CURVE SMOOTH",
"441 1309 OFFCURVE",
"514 1356 OFFCURVE",
"616 1356 CURVE SMOOTH",
"719 1356 OFFCURVE",
"793 1309 OFFCURVE",
"838 1215 CURVE SMOOTH",
"883 1121 OFFCURVE",
"905 964 OFFCURVE",
"905 745 CURVE SMOOTH"
);
}
);
width = 1233;
}
);
note = "\012\011Q\012  ";
unicode = 0051;
},
{
glyphname = R;
lastChange = "2015-07-06 00:13:43 +0000";
layers = (
{
hints = (
{
horizontal = 1;
origin = "{0, 11}";
target = "{1, 1}";
},
{
horizontal = 1;
origin = "{0, 16}";
target = "{1, 13}";
},
{
origin = "{1, 7}";
target = "{0, 5}";
},
{
origin = "{0, 13}";
target = "{0, 14}";
},
{
horizontal = 1;
origin = "{0, 13}";
target = up;
type = BottomGhost;
}
);
layerId = "A8E9A3C4-7003-4333-ABE9-545A429BAB07";
name = Regular;
paths = (
{
closed = 1;
nodes = (
"857 719 OFFCURVE",
"933 757 OFFCURVE",
"987 820 CURVE SMOOTH",
"1040 882 OFFCURVE",
"1067 960 OFFCURVE",
"1067 1065 CURVE SMOOTH",
"1067 1199 OFFCURVE",
"1023 1308 OFFCURVE",
"936 1382 CURVE SMOOTH",
"849 1456 OFFCURVE",
"723 1493 OFFCURVE",
"559 1493 CURVE SMOOTH",
"143 1493 LINE",
"143 0 LINE",
"346 0 LINE",
"346 631 LINE",
"539 631 LINE SMOOTH",
"601 631 OFFCURVE",
"659 617 OFFCURVE",
"700 585 CURVE SMOOTH",
"740 554 OFFCURVE",
"786 487 OFFCURVE",
"838 377 CURVE SMOOTH",
"1016 0 LINE",
"1233 0 LINE",
"1030 408 LINE SMOOTH",
"972 525 OFFCURVE",
"930 592 OFFCURVE",
"893 630 CURVE SMOOTH",
"860 664 OFFCURVE",
"813 692 OFFCURVE",
"760 705 CURVE"
);
},
{
closed = 1;
nodes = (
"346 1327 LINE",
"559 1327 LINE SMOOTH",
"658 1327 OFFCURVE",
"731 1302 OFFCURVE",
"779 1259 CURVE SMOOTH",
"830 1213 OFFCURVE",
"854 1145 OFFCURVE",
"854 1059 CURVE SMOOTH",
"854 973 OFFCURVE",
"830 905 OFFCURVE",
"783 862 CURVE SMOOTH",
"736 819 OFFCURVE",
"664 797 OFFCURVE",
"567 797 CURVE SMOOTH",
"346 797 LINE"
);
}
);
width = 1233;
}
);
note = "\012\011R\012  ";
unicode = 0052;
},
{
glyphname = S;
lastChange = "2015-07-06 00:14:19 +0000";
layers = (
{
hints = (
{
horizontal = 1;
origin = "{0, 69}";
target = "{0, 6}";
},
{
horizontal = 1;
origin = "{0, 19}";
target = "{0, 56}";
},
{
horizontal = 1;
origin = "{0, 44}";
target = "{0, 31}";
},
{
origin = "{0, 25}";
target = "{0, 50}";
},
{
origin = "{0, 12}";
target = "{0, 63}";
}
);
layerId = "A8E9A3C4-7003-4333-ABE9-545A429BAB07";
name = Regular;
paths = (
{
closed = 1;
nodes = (
"1012 1442 LINE",
"942 1468 OFFCURVE",
"875 1488 OFFCURVE",
"812 1501 CURVE SMOOTH",
"749 1514 OFFCURVE",
"688 1520 OFFCURVE",
"631 1520 CURVE SMOOTH",
"480 1520 OFFCURVE",
"359 1477 OFFCURVE",
"274 1401 CURVE SMOOTH",
"188 1324 OFFCURVE",
"139 1214 OFFCURVE",
"139 1079 CURVE SMOOTH",
"139 972 OFFCURVE",
"170 887 OFFCURVE",
"233 824 CURVE SMOOTH",
"299 757 OFFCURVE",
"401 713 OFFCURVE",
"535 682 CURVE SMOOTH",
"643 657 LINE SMOOTH",
"742 634 OFFCURVE",
"804 609 OFFCURVE",
"847 565 CURVE SMOOTH",
"885 526 OFFCURVE",
"905 474 OFFCURVE",
"905 400 CURVE SMOOTH",
"905 315 OFFCURVE",
"878 249 OFFCURVE",
"820 203 CURVE SMOOTH",
"763 158 OFFCURVE",
"681 135 OFFCURVE",
"581 135 CURVE SMOOTH",
"512 135 OFFCURVE",
"445 146 OFFCURVE",
"376 169 CURVE SMOOTH",
"307 192 OFFCURVE",
"235 227 OFFCURVE",
"158 276 CURVE",
"158 61 LINE",
"229 31 OFFCURVE",
"311 6 OFFCURVE",
"371 -7 CURVE SMOOTH",
"440 -22 OFFCURVE",
"514 -29 OFFCURVE",
"584 -29 CURVE SMOOTH",
"748 -29 OFFCURVE",
"880 9 OFFCURVE",
"967 83 CURVE SMOOTH",
"1048 152 OFFCURVE",
"1098 259 OFFCURVE",
"1098 410 CURVE SMOOTH",
"1098 531 OFFCURVE",
"1066 624 OFFCURVE",
"1001 694 CURVE SMOOTH",
"936 764 OFFCURVE",
"837 816 OFFCURVE",
"696 848 CURVE SMOOTH",
"590 872 LINE SMOOTH",
"491 895 OFFCURVE",
"428 921 OFFCURVE",
"387 960 CURVE SMOOTH",
"353 993 OFFCURVE",
"332 1037 OFFCURVE",
"332 1105 CURVE SMOOTH",
"332 1180 OFFCURVE",
"358 1245 OFFCURVE",
"414 1290 CURVE SMOOTH",
"470 1335 OFFCURVE",
"552 1356 OFFCURVE",
"642 1356 CURVE SMOOTH",
"704 1356 OFFCURVE",
"766 1346 OFFCURVE",
"828 1326 CURVE SMOOTH",
"888 1306 OFFCURVE",
"948 1278 OFFCURVE",
"1012 1237 CURVE"
);
}
);
width = 1233;
}
);
note = "\012\011S\012  ";
unicode = 0053;
},
{
glyphname = T;
lastChange = "2015-07-06 00:14:39 +0000";
layers = (
{
hints = (
{
horizontal = 1;
origin = "{0, 0}";
target = "{0, 1}";
},
{
horizontal = 1;
origin = "{0, 3}";
target = up;
type = BottomGhost;
},
{
origin = "{0, 3}";
target = "{0, 4}";
}
);
layerId = "A8E9A3C4-7003-4333-ABE9-545A429BAB07";
name = Regular;
paths = (
{
closed = 1;
nodes = (
"47 1493 LINE",
"47 1323 LINE",
"516 1323 LINE",
"516 0 LINE",
"719 0 LINE",
"719 1323 LINE",
"1186 1323 LINE",
"1186 1493 LINE"
);
}
);
width = 1233;
}
);
note = "\012\011T\012  ";
unicode = 0054;
},
{
glyphname = U;
lastChange = "2015-07-06 00:15:03 +0000";
layers = (
{
hints = (
{
horizontal = 1;
origin = "{0, 12}";
target = "{0, 40}";
},
{
horizontal = 1;
origin = "{0, 26}";
target = down;
type = TopGhost;
},
{
origin = "{0, 27}";
target = "{0, 24}";
},
{
origin = "{0, 0}";
target = "{0, 52}";
}
);
layerId = "A8E9A3C4-7003-4333-ABE9-545A429BAB07";
name = Regular;
paths = (
{
closed = 1;
nodes = (
"147 573 LINE SMOOTH",
"147 409 OFFCURVE",
"157 316 OFFCURVE",
"177 249 CURVE SMOOTH",
"198 176 OFFCURVE",
"230 127 OFFCURVE",
"273 88 CURVE SMOOTH",
"319 47 OFFCURVE",
"375 18 OFFCURVE",
"427 0 CURVE SMOOTH",
"483 -19 OFFCURVE",
"544 -29 OFFCURVE",
"616 -29 CURVE SMOOTH",
"694 -29 OFFCURVE",
"757 -17 OFFCURVE",
"806 0 CURVE SMOOTH",
"858 18 OFFCURVE",
"915 48 OFFCURVE",
"959 88 CURVE SMOOTH",
"1002 127 OFFCURVE",
"1038 182 OFFCURVE",
"1057 249 CURVE SMOOTH",
"1074 308 OFFCURVE",
"1085 398 OFFCURVE",
"1085 573 CURVE SMOOTH",
"1085 1493 LINE",
"883 1493 LINE",
"883 573 LINE",
"883 479 LINE SMOOTH",
"883 407 OFFCURVE",
"881 356 OFFCURVE",
"877 325 CURVE SMOOTH",
"873 293 OFFCURVE",
"867 274 OFFCURVE",
"856 254 CURVE SMOOTH",
"836 217 OFFCURVE",
"803 185 OFFCURVE",
"763 165 CURVE SMOOTH",
"723 145 OFFCURVE",
"674 135 OFFCURVE",
"616 135 CURVE SMOOTH",
"559 135 OFFCURVE",
"510 145 OFFCURVE",
"470 165 CURVE SMOOTH",
"429 185 OFFCURVE",
"398 215 OFFCURVE",
"377 254 CURVE",
"367 271 OFFCURVE",
"360 295 OFFCURVE",
"356 326 CURVE SMOOTH",
"352 357 OFFCURVE",
"350 408 OFFCURVE",
"350 481 CURVE SMOOTH",
"350 1493 LINE",
"147 1493 LINE"
);
}
);
width = 1233;
}
);
note = "\012\011U\012  ";
unicode = 0055;
},
{
glyphname = V;
lastChange = "2015-07-06 00:15:29 +0000";
layers = (
{
hints = (
{
horizontal = 1;
origin = "{0, 3}";
target = up;
type = BottomGhost;
},
{
horizontal = 1;
origin = "{0, 2}";
target = down;
type = TopGhost;
},
{
origin = "{0, 2}";
target = "{0, 1}";
},
{
origin = "{0, 3}";
target = "{0, 4}";
},
{
origin = "{0, 6}";
target = "{0, 5}";
}
);
layerId = "A8E9A3C4-7003-4333-ABE9-545A429BAB07";
name = Regular;
paths = (
{
closed = 1;
nodes = (
"616 170 LINE",
"266 1493 LINE",
"57 1493 LINE",
"494 0 LINE",
"739 0 LINE",
"1176 1493 LINE",
"967 1493 LINE"
);
}
);
width = 1233;
}
);
note = "\012\011V\012  ";
unicode = 0056;
},
{
glyphname = W;
lastChange = "2015-07-06 00:43:10 +0000";
layers = (
{
hints = (
{
horizontal = 1;
origin = "{0, 1}";
target = up;
type = BottomGhost;
},
{
horizontal = 1;
origin = "{0, 0}";
target = down;
type = TopGhost;
},
{
origin = "{0, 0}";
target = "{0, 12}";
},
{
origin = "{0, 10}";
target = "{0, 9}";
},
{
origin = "{0, 7}";
target = "{0, 6}";
}
);
layerId = "A8E9A3C4-7003-4333-ABE9-545A429BAB07";
name = Regular;
paths = (
{
closed = 1;
nodes = (
"0 1493 LINE",
"223 0 LINE",
"414 0 LINE",
"616 887 LINE",
"819 0 LINE",
"1010 0 LINE",
"1233 1493 LINE",
"1036 1493 LINE",
"893 279 LINE",
"721 1083 LINE",
"510 1083 LINE",
"340 281 LINE",
"197 1493 LINE"
);
}
);
width = 1233;
}
);
note = "\012\011W\012  ";
unicode = 0057;
},
{
glyphname = X;
lastChange = "2015-07-06 00:17:00 +0000";
layers = (
{
hints = (
{
horizontal = 1;
origin = "{0, 0}";
target = down;
type = TopGhost;
},
{
horizontal = 1;
origin = "{0, 2}";
target = up;
type = BottomGhost;
},
{
origin = "{0, 2}";
target = "{0, 3}";
},
{
origin = "{0, 5}";
target = "{0, 6}";
},
{
horizontal = 1;
origin = "{0, 4}";
target = "{0, 10}";
},
{
origin = "{0, 1}";
target = "{0, 7}";
}
);
layerId = "A8E9A3C4-7003-4333-ABE9-545A429BAB07";
name = Regular;
paths = (
{
closed = 1;
nodes = (
"86 1493 LINE",
"518 791 LINE",
"18 0 LINE",
"236 0 LINE",
"631 643 LINE",
"997 0 LINE",
"1214 0 LINE",
"735 791 LINE",
"1182 1493 LINE",
"965 1493 LINE",
"631 930 LINE",
"303 1493 LINE"
);
}
);
width = 1233;
}
);
note = "\012\011X\012  ";
unicode = 0058;
},
{
glyphname = Y;
lastChange = "2015-07-06 00:17:26 +0000";
layers = (
{
hints = (
{
horizontal = 1;
origin = "{0, 0}";
target = down;
type = TopGhost;
},
{
horizontal = 1;
origin = "{0, 2}";
target = up;
type = BottomGhost;
},
{
origin = "{0, 2}";
target = "{0, 3}";
},
{
origin = "{0, 6}";
target = "{0, 5}";
},
{
origin = "{0, 0}";
target = "{0, 8}";
}
);
layerId = "A8E9A3C4-7003-4333-ABE9-545A429BAB07";
name = Regular;
paths = (
{
closed = 1;
nodes = (
"37 1493 LINE",
"514 670 LINE",
"514 0 LINE",
"717 0 LINE",
"717 670 LINE",
"1196 1493 LINE",
"979 1493 LINE",
"616 834 LINE",
"252 1493 LINE"
);
}
);
width = 1233;
}
);
note = "\012\011Y\012  ";
unicode = 0059;
},
{
glyphname = Z;
lastChange = "2015-07-06 00:17:55 +0000";
layers = (
{
hints = (
{
horizontal = 1;
origin = "{0, 0}";
target = "{0, 1}";
},
{
horizontal = 1;
origin = "{0, 5}";
target = "{0, 6}";
},
{
origin = "{0, 3}";
target = "{0, 7}";
},
{
origin = "{0, 2}";
target = "{0, 8}";
}
);
layerId = "A8E9A3C4-7003-4333-ABE9-545A429BAB07";
name = Regular;
paths = (
{
closed = 1;
nodes = (
"178 1493 LINE",
"178 1323 LINE",
"915 1323 LINE",
"156 154 LINE",
"156 0 LINE",
"1169 0 LINE",
"1169 170 LINE",
"367 170 LINE",
"1147 1339 LINE",
"1147 1493 LINE"
);
}
);
width = 1233;
}
);
note = "\012\011Z\012  ";
unicode = 005A;
},
{
glyphname = bracketleft;
lastChange = "2015-07-06 00:01:01 +0000";
layers = (
{
hints = (
{
horizontal = 1;
origin = "{0, 6}";
target = "{0, 7}";
},
{
horizontal = 1;
origin = "{0, 2}";
target = "{0, 3}";
},
{
origin = "{0, 0}";
target = "{0, 5}";
}
);
layerId = "A8E9A3C4-7003-4333-ABE9-545A429BAB07";
name = Regular;
paths = (
{
closed = 1;
nodes = (
"463 1636 LINE",
"463 -270 LINE",
"887 -270 LINE",
"887 -127 LINE",
"647 -127 LINE",
"647 1493 LINE",
"887 1493 LINE",
"887 1636 LINE"
);
}
);
width = 1233;
}
);
note = "\012\011bracketleft\012  ";
unicode = 005B;
},
{
glyphname = backslash;
lastChange = "2015-07-06 00:01:24 +0000";
layers = (
{
hints = (
{
horizontal = 1;
origin = "{0, 1}";
target = down;
type = TopGhost;
},
{
horizontal = 1;
origin = "{0, 2}";
target = up;
type = BottomGhost;
},
{
origin = "{0, 2}";
target = "{0, 3}";
},
{
origin = "{0, 1}";
target = "{0, 0}";
}
);
layerId = "A8E9A3C4-7003-4333-ABE9-545A429BAB07";
name = Regular;
paths = (
{
closed = 1;
nodes = (
"293 1493 LINE",
"102 1493 LINE",
"889 -190 LINE",
"1079 -190 LINE"
);
}
);
width = 1233;
}
);
note = "\012\011backslash\012  ";
unicode = 005C;
},
{
glyphname = bracketright;
lastChange = "2015-07-06 00:01:44 +0000";
layers = (
{
hints = (
{
horizontal = 1;
origin = "{0, 2}";
target = "{0, 1}";
},
{
horizontal = 1;
origin = "{0, 6}";
target = "{0, 5}";
},
{
origin = "{0, 3}";
target = "{0, 0}";
}
);
layerId = "A8E9A3C4-7003-4333-ABE9-545A429BAB07";
name = Regular;
paths = (
{
closed = 1;
nodes = (
"770 1635 LINE",
"346 1635 LINE",
"346 1492 LINE",
"586 1492 LINE",
"586 -127 LINE",
"346 -127 LINE",
"346 -270 LINE",
"770 -270 LINE"
);
}
);
width = 1233;
}
);
note = "\012\011bracketright\012  ";
unicode = 005D;
},
{
glyphname = asciicircum;
layers = (
{
layerId = "A8E9A3C4-7003-4333-ABE9-545A429BAB07";
name = Regular;
paths = (
{
closed = 1;
nodes = (
"705 1493 LINE",
"528 1493 LINE",
"72 936 LINE",
"250 936 LINE",
"616 1331 LINE",
"983 936 LINE",
"1161 936 LINE"
);
}
);
width = 1233;
}
);
note = "\012\011asciicircum\012  ";
unicode = 005E;
},
{
glyphname = underscore;
layers = (
{
layerId = "A8E9A3C4-7003-4333-ABE9-545A429BAB07";
name = Regular;
paths = (
{
closed = 1;
nodes = (
"1024 -403 LINE",
"0 -403 LINE",
"0 -483 LINE",
"1024 -483 LINE"
);
}
);
width = 1233;
}
);
note = "\012\011underscore\012  ";
unicode = 005F;
},
{
glyphname = grave;
layers = (
{
layerId = "A8E9A3C4-7003-4333-ABE9-545A429BAB07";
name = Regular;
paths = (
{
closed = 1;
nodes = (
"477 1638 LINE",
"279 1638 LINE",
"604 1262 LINE",
"758 1262 LINE"
);
}
);
width = 1233;
}
);
note = "\012\011grave\012  ";
unicode = 0060;
},
{
glyphname = a;
lastChange = "2015-07-06 00:18:54 +0000";
layers = (
{
hints = (
{
horizontal = 1;
origin = "{1, 25}";
target = "{1, 12}";
},
{
horizontal = 1;
origin = "{1, 45}";
target = "{0, 8}";
},
{
origin = "{1, 52}";
target = "{1, 53}";
},
{
origin = "{1, 39}";
target = "{0, 14}";
},
{
horizontal = 1;
origin = "{0, 20}";
target = "{1, 33}";
}
);
layerId = "A8E9A3C4-7003-4333-ABE9-545A429BAB07";
name = Regular;
paths = (
{
closed = 1;
nodes = (
"702 563 LINE",
"874 563 LINE",
"874 522 LINE SMOOTH",
"874 401 OFFCURVE",
"844 302 OFFCURVE",
"786 231 CURVE SMOOTH",
"728 160 OFFCURVE",
"647 125 OFFCURVE",
"548 125 CURVE SMOOTH",
"471 125 OFFCURVE",
"416 146 OFFCURVE",
"378 181 CURVE SMOOTH",
"339 217 OFFCURVE",
"317 268 OFFCURVE",
"317 337 CURVE SMOOTH",
"317 411 OFFCURVE",
"342 468 OFFCURVE",
"399 507 CURVE SMOOTH",
"453 544 OFFCURVE",
"534 563 OFFCURVE",
"641 563 CURVE SMOOTH"
);
},
{
closed = 1;
nodes = (
"1059 639 LINE SMOOTH",
"1059 737 OFFCURVE",
"1054 811 OFFCURVE",
"1043 860 CURVE SMOOTH",
"1034 901 OFFCURVE",
"1017 945 OFFCURVE",
"989 984 CURVE SMOOTH",
"951 1037 OFFCURVE",
"896 1077 OFFCURVE",
"830 1105 CURVE SMOOTH",
"764 1133 OFFCURVE",
"691 1147 OFFCURVE",
"595 1147 CURVE SMOOTH",
"532 1147 OFFCURVE",
"473 1141 OFFCURVE",
"411 1128 CURVE SMOOTH",
"345 1114 OFFCURVE",
"286 1096 OFFCURVE",
"215 1069 CURVE",
"215 885 LINE",
"276 920 OFFCURVE",
"338 946 OFFCURVE",
"402 964 CURVE SMOOTH",
"466 982 OFFCURVE",
"529 991 OFFCURVE",
"593 991 CURVE SMOOTH",
"688 991 OFFCURVE",
"762 971 OFFCURVE",
"806 931 CURVE SMOOTH",
"851 890 OFFCURVE",
"874 821 OFFCURVE",
"874 736 CURVE SMOOTH",
"874 707 LINE",
"627 707 LINE SMOOTH",
"465 707 OFFCURVE",
"342 675 OFFCURVE",
"259 610 CURVE SMOOTH",
"175 545 OFFCURVE",
"133 450 OFFCURVE",
"133 327 CURVE SMOOTH",
"133 210 OFFCURVE",
"171 129 OFFCURVE",
"235 68 CURVE SMOOTH",
"303 3 OFFCURVE",
"393 -29 OFFCURVE",
"510 -29 CURVE SMOOTH",
"592 -29 OFFCURVE",
"666 -13 OFFCURVE",
"726 19 CURVE SMOOTH",
"785 50 OFFCURVE",
"835 99 OFFCURVE",
"874 166 CURVE",
"874 0 LINE",
"1059 0 LINE"
);
}
);
width = 1233;
}
);
note = "\012\011a\012  ";
unicode = 0061;
},
{
glyphname = b;
lastChange = "2015-07-06 00:19:24 +0000";
layers = (
{
hints = (
{
horizontal = 1;
origin = "{1, 1}";
target = down;
type = TopGhost;
},
{
horizontal = 1;
origin = "{1, 10}";
target = "{0, 5}";
},
{
origin = "{1, 1}";
target = "{1, 0}";
},
{
horizontal = 1;
origin = "{0, 17}";
target = "{1, 22}";
},
{
origin = "{0, 23}";
target = "{1, 16}";
}
);
layerId = "A8E9A3C4-7003-4333-ABE9-545A429BAB07";
name = Regular;
paths = (
{
closed = 1;
nodes = (
"918 416 OFFCURVE",
"895 309 OFFCURVE",
"850 236 CURVE SMOOTH",
"805 163 OFFCURVE",
"738 127 OFFCURVE",
"650 127 CURVE SMOOTH",
"560 127 OFFCURVE",
"492 164 OFFCURVE",
"446 237 CURVE SMOOTH",
"400 310 OFFCURVE",
"377 418 OFFCURVE",
"377 559 CURVE SMOOTH",
"377 701 OFFCURVE",
"400 809 OFFCURVE",
"446 882 CURVE SMOOTH",
"492 955 OFFCURVE",
"560 991 OFFCURVE",
"649 991 CURVE SMOOTH",
"738 991 OFFCURVE",
"805 955 OFFCURVE",
"850 882 CURVE SMOOTH",
"895 809 OFFCURVE",
"918 702 OFFCURVE",
"918 559 CURVE SMOOTH"
);
},
{
closed = 1;
nodes = (
"377 1556 LINE",
"193 1556 LINE",
"193 0 LINE",
"377 0 LINE",
"377 141 LINE",
"408 86 OFFCURVE",
"448 45 OFFCURVE",
"500 15 CURVE SMOOTH",
"554 -16 OFFCURVE",
"609 -29 OFFCURVE",
"676 -29 CURVE SMOOTH",
"813 -29 OFFCURVE",
"920 26 OFFCURVE",
"996 129 CURVE SMOOTH",
"1073 234 OFFCURVE",
"1112 380 OFFCURVE",
"1112 561 CURVE SMOOTH",
"1112 741 OFFCURVE",
"1073 890 OFFCURVE",
"996 993 CURVE SMOOTH",
"918 1097 OFFCURVE",
"807 1147 OFFCURVE",
"680 1147 CURVE SMOOTH",
"610 1147 OFFCURVE",
"550 1132 OFFCURVE",
"499 1103 CURVE SMOOTH",
"447 1074 OFFCURVE",
"406 1032 OFFCURVE",
"377 977 CURVE"
);
}
);
width = 1233;
}
);
note = "\012\011b\012  ";
unicode = 0062;
},
{
glyphname = c;
lastChange = "2015-07-06 00:19:45 +0000";
layers = (
{
hints = (
{
horizontal = 1;
origin = "{0, 18}";
target = "{0, 31}";
},
{
horizontal = 1;
origin = "{0, 43}";
target = "{0, 6}";
},
{
origin = "{0, 37}";
target = "{0, 12}";
}
);
layerId = "A8E9A3C4-7003-4333-ABE9-545A429BAB07";
name = Regular;
paths = (
{
closed = 1;
nodes = (
"1061 248 LINE",
"1020 210 OFFCURVE",
"980 180 OFFCURVE",
"920 157 CURVE SMOOTH",
"873 139 OFFCURVE",
"818 127 OFFCURVE",
"752 127 CURVE SMOOTH",
"636 127 OFFCURVE",
"545 164 OFFCURVE",
"482 240 CURVE SMOOTH",
"416 320 OFFCURVE",
"389 433 OFFCURVE",
"389 560 CURVE SMOOTH",
"389 697 OFFCURVE",
"420 804 OFFCURVE",
"482 879 CURVE SMOOTH",
"544 954 OFFCURVE",
"633 991 OFFCURVE",
"749 991 CURVE SMOOTH",
"810 991 OFFCURVE",
"866 981 OFFCURVE",
"915 962 CURVE SMOOTH",
"964 943 OFFCURVE",
"1012 911 OFFCURVE",
"1061 868 CURVE",
"1061 1061 LINE",
"1009 1090 OFFCURVE",
"957 1112 OFFCURVE",
"906 1126 CURVE SMOOTH",
"855 1140 OFFCURVE",
"805 1147 OFFCURVE",
"744 1147 CURVE SMOOTH",
"579 1147 OFFCURVE",
"440 1095 OFFCURVE",
"342 992 CURVE SMOOTH",
"249 894 OFFCURVE",
"195 748 OFFCURVE",
"195 559 CURVE SMOOTH",
"195 378 OFFCURVE",
"244 231 OFFCURVE",
"341 127 CURVE SMOOTH",
"437 25 OFFCURVE",
"577 -29 OFFCURVE",
"743 -29 CURVE SMOOTH",
"807 -29 OFFCURVE",
"862 -21 OFFCURVE",
"909 -8 CURVE SMOOTH",
"959 6 OFFCURVE",
"1016 30 OFFCURVE",
"1061 57 CURVE"
);
}
);
width = 1233;
}
);
note = "\012\011c\012  ";
unicode = 0063;
},
{
glyphname = d;
lastChange = "2015-07-06 00:20:15 +0000";
layers = (
{
hints = (
{
horizontal = 1;
origin = "{0, 28}";
target = down;
type = TopGhost;
},
{
horizontal = 1;
origin = "{0, 18}";
target = "{1, 17}";
},
{
origin = "{0, 28}";
target = "{0, 27}";
},
{
horizontal = 1;
origin = "{1, 5}";
target = "{0, 6}";
},
{
origin = "{0, 12}";
target = "{1, 23}";
}
);
layerId = "A8E9A3C4-7003-4333-ABE9-545A429BAB07";
name = Regular;
paths = (
{
closed = 1;
nodes = (
"858 977 LINE",
"829 1032 OFFCURVE",
"788 1075 OFFCURVE",
"737 1104 CURVE SMOOTH",
"686 1133 OFFCURVE",
"627 1147 OFFCURVE",
"559 1147 CURVE SMOOTH",
"430 1147 OFFCURVE",
"317 1096 OFFCURVE",
"239 992 CURVE SMOOTH",
"161 888 OFFCURVE",
"123 738 OFFCURVE",
"123 562 CURVE SMOOTH",
"123 383 OFFCURVE",
"162 234 OFFCURVE",
"239 129 CURVE SMOOTH",
"311 31 OFFCURVE",
"418 -29 OFFCURVE",
"559 -29 CURVE SMOOTH",
"627 -29 OFFCURVE",
"684 -15 OFFCURVE",
"736 15 CURVE SMOOTH",
"790 46 OFFCURVE",
"828 88 OFFCURVE",
"858 141 CURVE",
"858 0 LINE",
"1042 0 LINE",
"1042 1556 LINE",
"858 1556 LINE"
);
},
{
closed = 1;
nodes = (
"317 702 OFFCURVE",
"340 809 OFFCURVE",
"385 882 CURVE SMOOTH",
"430 955 OFFCURVE",
"497 991 OFFCURVE",
"586 991 CURVE SMOOTH",
"680 991 OFFCURVE",
"746 950 OFFCURVE",
"789 882 CURVE SMOOTH",
"835 809 OFFCURVE",
"858 701 OFFCURVE",
"858 559 CURVE SMOOTH",
"858 418 OFFCURVE",
"835 310 OFFCURVE",
"789 237 CURVE SMOOTH",
"743 164 OFFCURVE",
"674 127 OFFCURVE",
"585 127 CURVE SMOOTH",
"501 127 OFFCURVE",
"432 160 OFFCURVE",
"385 236 CURVE SMOOTH",
"340 309 OFFCURVE",
"317 416 OFFCURVE",
"317 559 CURVE SMOOTH"
);
}
);
width = 1233;
}
);
note = "\012\011d\012  ";
unicode = 0064;
},
{
glyphname = e;
lastChange = "2015-07-06 00:20:49 +0000";
layers = (
{
hints = (
{
horizontal = 1;
origin = "{0, 18}";
target = "{0, 31}";
},
{
horizontal = 1;
origin = "{1, 6}";
target = "{0, 6}";
},
{
origin = "{0, 12}";
target = "{0, 37}";
},
{
origin = "{1, 12}";
target = "{0, 0}";
},
{
horizontal = 1;
origin = "{0, 37}";
target = "{1, 0}";
}
);
layerId = "A8E9A3C4-7003-4333-ABE9-545A429BAB07";
name = Regular;
paths = (
{
closed = 1;
nodes = (
"1112 606 LINE SMOOTH",
"1112 775 OFFCURVE",
"1068 910 OFFCURVE",
"989 1003 CURVE SMOOTH",
"910 1096 OFFCURVE",
"796 1147 OFFCURVE",
"648 1147 CURVE SMOOTH",
"498 1147 OFFCURVE",
"363 1095 OFFCURVE",
"266 987 CURVE SMOOTH",
"177 888 OFFCURVE",
"123 745 OFFCURVE",
"123 558 CURVE SMOOTH",
"123 377 OFFCURVE",
"174 229 OFFCURVE",
"270 127 CURVE SMOOTH",
"366 25 OFFCURVE",
"505 -29 OFFCURVE",
"676 -29 CURVE SMOOTH",
"738 -29 OFFCURVE",
"804 -22 OFFCURVE",
"867 -8 CURVE SMOOTH",
"932 7 OFFCURVE",
"999 28 OFFCURVE",
"1069 57 CURVE",
"1069 240 LINE",
"996 202 OFFCURVE",
"928 174 OFFCURVE",
"864 155 CURVE SMOOTH",
"800 136 OFFCURVE",
"739 127 OFFCURVE",
"679 127 CURVE SMOOTH",
"558 127 OFFCURVE",
"472 163 OFFCURVE",
"411 227 CURVE SMOOTH",
"347 294 OFFCURVE",
"315 388 OFFCURVE",
"315 510 CURVE SMOOTH",
"315 516 LINE",
"1112 516 LINE"
);
},
{
closed = 1;
nodes = (
"322 659 LINE",
"333 763 OFFCURVE",
"367 844 OFFCURVE",
"424 903 CURVE SMOOTH",
"481 962 OFFCURVE",
"554 991 OFFCURVE",
"644 991 CURVE SMOOTH",
"732 991 OFFCURVE",
"804 963 OFFCURVE",
"852 907 CURVE SMOOTH",
"896 856 OFFCURVE",
"925 774 OFFCURVE",
"928 660 CURVE"
);
}
);
width = 1233;
}
);
note = "\012\011e\012  ";
unicode = 0065;
},
{
glyphname = f;
lastChange = "2015-07-06 00:21:14 +0000";
layers = (
{
hints = (
{
horizontal = 1;
origin = "{0, 12}";
target = up;
type = BottomGhost;
},
{
horizontal = 1;
origin = "{0, 1}";
target = "{0, 24}";
},
{
horizontal = 1;
origin = "{0, 9}";
target = "{0, 10}";
},
{
origin = "{0, 12}";
target = "{0, 13}";
}
);
layerId = "A8E9A3C4-7003-4333-ABE9-545A429BAB07";
name = Regular;
paths = (
{
closed = 1;
nodes = (
"1063 1556 LINE",
"842 1556 LINE SMOOTH",
"723 1556 OFFCURVE",
"635 1527 OFFCURVE",
"579 1469 CURVE SMOOTH",
"522 1411 OFFCURVE",
"494 1321 OFFCURVE",
"494 1198 CURVE SMOOTH",
"494 1120 LINE",
"195 1120 LINE",
"195 977 LINE",
"494 977 LINE",
"494 0 LINE",
"678 0 LINE",
"678 977 LINE",
"1063 977 LINE",
"1063 1120 LINE",
"678 1120 LINE",
"678 1219 LINE SMOOTH",
"678 1288 OFFCURVE",
"691 1336 OFFCURVE",
"717 1363 CURVE SMOOTH",
"741 1388 OFFCURVE",
"782 1403 OFFCURVE",
"854 1403 CURVE SMOOTH",
"1063 1403 LINE"
);
}
);
width = 1233;
}
);
note = "\012\011f\012  ";
unicode = 0066;
},
{
glyphname = g;
lastChange = "2015-07-06 00:21:50 +0000";
layers = (
{
hints = (
{
horizontal = 1;
origin = "{0, 17}";
target = "{1, 8}";
},
{
horizontal = 1;
origin = "{1, 47}";
target = "{1, 34}";
},
{
origin = "{1, 1}";
target = "{1, 0}";
},
{
horizontal = 1;
origin = "{1, 20}";
target = "{0, 5}";
},
{
origin = "{1, 14}";
target = "{0, 11}";
}
);
layerId = "A8E9A3C4-7003-4333-ABE9-545A429BAB07";
name = Regular;
paths = (
{
closed = 1;
nodes = (
"858 432 OFFCURVE",
"836 327 OFFCURVE",
"791 254 CURVE SMOOTH",
"746 181 OFFCURVE",
"682 145 OFFCURVE",
"594 145 CURVE SMOOTH",
"505 145 OFFCURVE",
"437 181 OFFCURVE",
"389 254 CURVE SMOOTH",
"341 327 OFFCURVE",
"317 430 OFFCURVE",
"317 568 CURVE SMOOTH",
"317 706 OFFCURVE",
"341 813 OFFCURVE",
"388 884 CURVE SMOOTH",
"435 955 OFFCURVE",
"505 991 OFFCURVE",
"593 991 CURVE SMOOTH",
"675 991 OFFCURVE",
"744 959 OFFCURVE",
"791 884 CURVE SMOOTH",
"836 812 OFFCURVE",
"858 707 OFFCURVE",
"858 569 CURVE SMOOTH"
);
},
{
closed = 1;
nodes = (
"1042 1116 LINE",
"858 1116 LINE",
"858 971 LINE",
"827 1031 OFFCURVE",
"786 1075 OFFCURVE",
"736 1104 CURVE SMOOTH",
"686 1133 OFFCURVE",
"624 1147 OFFCURVE",
"555 1147 CURVE SMOOTH",
"421 1147 OFFCURVE",
"318 1095 OFFCURVE",
"240 990 CURVE SMOOTH",
"162 885 OFFCURVE",
"123 745 OFFCURVE",
"123 569 CURVE SMOOTH",
"123 394 OFFCURVE",
"162 254 OFFCURVE",
"240 149 CURVE SMOOTH",
"318 44 OFFCURVE",
"421 -8 OFFCURVE",
"554 -8 CURVE SMOOTH",
"625 -8 OFFCURVE",
"687 7 OFFCURVE",
"738 38 CURVE SMOOTH",
"789 69 OFFCURVE",
"829 115 OFFCURVE",
"858 178 CURVE",
"858 53 LINE",
"858 45 LINE SMOOTH",
"858 -74 OFFCURVE",
"835 -158 OFFCURVE",
"790 -211 CURVE SMOOTH",
"744 -266 OFFCURVE",
"675 -293 OFFCURVE",
"577 -293 CURVE SMOOTH",
"527 -293 OFFCURVE",
"479 -286 OFFCURVE",
"426 -271 CURVE SMOOTH",
"376 -257 OFFCURVE",
"313 -234 OFFCURVE",
"248 -203 CURVE",
"248 -385 LINE",
"306 -404 OFFCURVE",
"360 -417 OFFCURVE",
"414 -426 CURVE SMOOTH",
"469 -435 OFFCURVE",
"521 -440 OFFCURVE",
"573 -440 CURVE SMOOTH",
"726 -440 OFFCURVE",
"844 -397 OFFCURVE",
"923 -310 CURVE SMOOTH",
"1002 -223 OFFCURVE",
"1042 -96 OFFCURVE",
"1042 72 CURVE SMOOTH"
);
}
);
width = 1233;
}
);
note = "\012\011g\012  ";
unicode = 0067;
},
{
glyphname = h;
lastChange = "2015-07-06 00:22:24 +0000";
layers = (
{
hints = (
{
horizontal = 1;
origin = "{0, 14}";
target = down;
type = TopGhost;
},
{
horizontal = 1;
origin = "{0, 15}";
target = up;
type = BottomGhost;
},
{
origin = "{0, 14}";
target = "{0, 13}";
},
{
horizontal = 1;
origin = "{0, 23}";
target = "{0, 6}";
},
{
origin = "{0, 30}";
target = "{0, 31}";
}
);
layerId = "A8E9A3C4-7003-4333-ABE9-545A429BAB07";
name = Regular;
paths = (
{
closed = 1;
nodes = (
"1051 694 LINE SMOOTH",
"1051 846 OFFCURVE",
"1023 960 OFFCURVE",
"967 1035 CURVE SMOOTH",
"913 1107 OFFCURVE",
"829 1147 OFFCURVE",
"710 1147 CURVE SMOOTH",
"635 1147 OFFCURVE",
"568 1131 OFFCURVE",
"512 1098 CURVE SMOOTH",
"456 1065 OFFCURVE",
"412 1016 OFFCURVE",
"379 952 CURVE",
"379 1556 LINE",
"195 1556 LINE",
"195 0 LINE",
"379 0 LINE",
"379 633 LINE SMOOTH",
"379 747 OFFCURVE",
"402 835 OFFCURVE",
"449 896 CURVE SMOOTH",
"494 955 OFFCURVE",
"558 987 OFFCURVE",
"646 987 CURVE SMOOTH",
"722 987 OFFCURVE",
"778 963 OFFCURVE",
"813 916 CURVE SMOOTH",
"848 869 OFFCURVE",
"866 795 OFFCURVE",
"866 694 CURVE SMOOTH",
"866 0 LINE",
"1051 0 LINE"
);
}
);
width = 1233;
}
);
note = "\012\011h\012  ";
unicode = 0068;
},
{
glyphname = i;
lastChange = "2015-07-06 00:23:52 +0000";
layers = (
{
hints = (
{
horizontal = 1;
origin = "{1, 11}";
target = "{1, 12}";
},
{
origin = "{1, 4}";
target = "{1, 19}";
},
{
horizontal = 1;
origin = "{1, 1}";
target = "{1, 2}";
},
{
horizontal = 1;
origin = "{0, 0}";
target = "{0, 1}";
}
);
layerId = "A8E9A3C4-7003-4333-ABE9-545A429BAB07";
name = Regular;
paths = (
{
closed = 1;
nodes = (
"473 1556 LINE",
"473 1323 LINE",
"657 1323 LINE",
"657 1556 LINE"
);
},
{
closed = 1;
nodes = (
"657 1118 LINE",
"178 1118 LINE",
"178 974 LINE",
"473 974 LINE",
"473 406 LINE SMOOTH",
"473 277 OFFCURVE",
"503 177 OFFCURVE",
"564 106 CURVE SMOOTH",
"627 32 OFFCURVE",
"713 0 OFFCURVE",
"819 0 CURVE SMOOTH",
"1052 0 LINE",
"1052 156 LINE",
"837 156 LINE SMOOTH",
"780 156 OFFCURVE",
"735 175 OFFCURVE",
"703 219 CURVE SMOOTH",
"672 261 OFFCURVE",
"657 323 OFFCURVE",
"657 406 CURVE SMOOTH"
);
}
);
width = 1233;
}
);
note = "\012\011i\012  ";
unicode = 0069;
},
{
glyphname = j;
lastChange = "2015-07-06 00:23:34 +0000";
layers = (
{
hints = (
{
horizontal = 1;
origin = "{1, 0}";
target = "{1, 1}";
},
{
horizontal = 1;
origin = "{0, 17}";
target = "{0, 18}";
},
{
horizontal = 1;
origin = "{0, 8}";
target = "{0, 7}";
},
{
origin = "{0, 0}";
target = "{0, 15}";
}
);
layerId = "A8E9A3C4-7003-4333-ABE9-545A429BAB07";
name = Regular;
paths = (
{
closed = 1;
nodes = (
"600 -20 LINE SMOOTH",
"600 -103 OFFCURVE",
"585 -166 OFFCURVE",
"555 -208 CURVE SMOOTH",
"525 -249 OFFCURVE",
"480 -270 OFFCURVE",
"420 -270 CURVE SMOOTH",
"186 -270 LINE",
"186 -426 LINE",
"440 -426 LINE SMOOTH",
"547 -426 OFFCURVE",
"635 -392 OFFCURVE",
"695 -321 CURVE SMOOTH",
"755 -250 OFFCURVE",
"784 -146 OFFCURVE",
"784 -20 CURVE SMOOTH",
"784 1120 LINE",
"283 1120 LINE",
"283 977 LINE",
"600 977 LINE"
);
},
{
closed = 1;
nodes = (
"600 1556 LINE",
"600 1323 LINE",
"784 1323 LINE",
"784 1556 LINE"
);
}
);
width = 1233;
}
);
note = "\012\011j\012  ";
unicode = 006A;
},
{
glyphname = k;
lastChange = "2015-07-06 00:24:45 +0000";
layers = (
{
hints = (
{
horizontal = 1;
origin = "{0, 1}";
target = up;
type = BottomGhost;
},
{
horizontal = 1;
origin = "{0, 0}";
target = down;
type = TopGhost;
},
{
origin = "{0, 1}";
target = "{0, 2}";
},
{
origin = "{0, 9}";
target = "{0, 8}";
},
{
horizontal = 1;
origin = "{0, 3}";
target = "{0, 10}";
},
{
origin = "{0, 4}";
target = "{0, 7}";
}
);
layerId = "A8E9A3C4-7003-4333-ABE9-545A429BAB07";
name = Regular;
paths = (
{
closed = 1;
nodes = (
"236 1556 LINE",
"236 0 LINE",
"426 0 LINE",
"426 449 LINE",
"563 578 LINE",
"977 0 LINE",
"1202 0 LINE",
"692 698 LINE",
"1133 1120 LINE",
"909 1120 LINE",
"426 655 LINE",
"426 1556 LINE"
);
}
);
width = 1233;
}
);
note = "\012\011k\012  ";
unicode = 006B;
},
{
glyphname = l;
lastChange = "2015-07-06 00:25:04 +0000";
layers = (
{
hints = (
{
horizontal = 1;
origin = "{0, 1}";
target = "{0, 2}";
},
{
horizontal = 1;
origin = "{0, 11}";
target = "{0, 12}";
},
{
origin = "{0, 4}";
target = "{0, 19}";
}
);
layerId = "A8E9A3C4-7003-4333-ABE9-545A429BAB07";
name = Regular;
paths = (
{
closed = 1;
nodes = (
"639 1567 LINE",
"160 1567 LINE",
"160 1423 LINE",
"455 1423 LINE",
"455 406 LINE SMOOTH",
"455 277 OFFCURVE",
"485 177 OFFCURVE",
"546 106 CURVE SMOOTH",
"609 32 OFFCURVE",
"695 0 OFFCURVE",
"801 0 CURVE SMOOTH",
"1034 0 LINE",
"1034 156 LINE",
"819 156 LINE SMOOTH",
"762 156 OFFCURVE",
"717 175 OFFCURVE",
"685 219 CURVE SMOOTH",
"654 261 OFFCURVE",
"639 323 OFFCURVE",
"639 406 CURVE SMOOTH"
);
}
);
width = 1233;
}
);
note = "\012\011l\012  ";
unicode = 006C;
},
{
glyphname = m;
lastChange = "2015-07-06 00:25:40 +0000";
layers = (
{
hints = (
{
horizontal = 1;
origin = "{0, 5}";
target = down;
type = TopGhost;
},
{
origin = "{0, 13}";
target = "{0, 12}";
},
{
origin = "{0, 29}";
target = "{0, 30}";
},
{
origin = "{0, 44}";
target = "{0, 45}";
}
);
layerId = "A8E9A3C4-7003-4333-ABE9-545A429BAB07";
name = Regular;
paths = (
{
closed = 1;
nodes = (
"657 1053 OFFCURVE",
"631 1089 OFFCURVE",
"598 1112 CURVE SMOOTH",
"564 1135 OFFCURVE",
"521 1147 OFFCURVE",
"472 1147 CURVE SMOOTH",
"428 1147 OFFCURVE",
"392 1137 OFFCURVE",
"359 1116 CURVE SMOOTH",
"326 1095 OFFCURVE",
"298 1064 OFFCURVE",
"276 1024 CURVE",
"276 1120 LINE",
"109 1120 LINE",
"109 0 LINE",
"276 0 LINE",
"276 641 LINE SMOOTH",
"276 819 OFFCURVE",
"288 893 OFFCURVE",
"306 932 CURVE SMOOTH",
"322 967 OFFCURVE",
"347 993 OFFCURVE",
"406 993 CURVE SMOOTH",
"459 993 OFFCURVE",
"491 972 OFFCURVE",
"508 937 CURVE SMOOTH",
"525 903 OFFCURVE",
"537 836 OFFCURVE",
"537 641 CURVE SMOOTH",
"537 0 LINE",
"705 0 LINE",
"705 641 LINE SMOOTH",
"705 799 OFFCURVE",
"714 886 OFFCURVE",
"736 932 CURVE SMOOTH",
"756 975 OFFCURVE",
"791 993 OFFCURVE",
"841 993 CURVE SMOOTH",
"897 993 OFFCURVE",
"925 971 OFFCURVE",
"940 936 CURVE SMOOTH",
"958 895 OFFCURVE",
"967 811 OFFCURVE",
"967 641 CURVE SMOOTH",
"967 0 LINE",
"1135 0 LINE",
"1135 649 LINE SMOOTH",
"1135 842 OFFCURVE",
"1117 973 OFFCURVE",
"1080 1043 CURVE SMOOTH",
"1045 1110 OFFCURVE",
"980 1147 OFFCURVE",
"889 1147 CURVE SMOOTH",
"840 1147 OFFCURVE",
"798 1136 OFFCURVE",
"763 1113 CURVE SMOOTH",
"728 1090 OFFCURVE",
"699 1054 OFFCURVE",
"676 1006 CURVE"
);
}
);
width = 1233;
}
);
note = "\012\011m\012  ";
unicode = 006D;
},
{
glyphname = n;
lastChange = "2015-07-06 00:26:14 +0000";
layers = (
{
hints = (
{
horizontal = 1;
origin = "{0, 23}";
target = "{0, 6}";
},
{
horizontal = 1;
origin = "{0, 15}";
target = up;
type = BottomGhost;
},
{
origin = "{0, 15}";
target = "{0, 16}";
},
{
origin = "{0, 30}";
target = "{0, 31}";
}
);
layerId = "A8E9A3C4-7003-4333-ABE9-545A429BAB07";
name = Regular;
paths = (
{
closed = 1;
nodes = (
"1051 694 LINE SMOOTH",
"1051 846 OFFCURVE",
"1023 960 OFFCURVE",
"967 1035 CURVE SMOOTH",
"913 1107 OFFCURVE",
"829 1147 OFFCURVE",
"710 1147 CURVE SMOOTH",
"635 1147 OFFCURVE",
"568 1131 OFFCURVE",
"512 1098 CURVE SMOOTH",
"456 1065 OFFCURVE",
"412 1016 OFFCURVE",
"379 952 CURVE",
"379 1120 LINE",
"195 1120 LINE",
"195 0 LINE",
"379 0 LINE",
"379 633 LINE SMOOTH",
"379 747 OFFCURVE",
"402 835 OFFCURVE",
"449 896 CURVE SMOOTH",
"494 955 OFFCURVE",
"558 987 OFFCURVE",
"646 987 CURVE SMOOTH",
"722 987 OFFCURVE",
"778 963 OFFCURVE",
"813 916 CURVE SMOOTH",
"848 869 OFFCURVE",
"866 795 OFFCURVE",
"866 694 CURVE SMOOTH",
"866 0 LINE",
"1051 0 LINE"
);
}
);
width = 1233;
}
);
note = "\012\011n\012  ";
unicode = 006E;
},
{
glyphname = o;
lastChange = "2015-07-06 00:26:35 +0000";
layers = (
{
hints = (
{
horizontal = 1;
origin = "{0, 23}";
target = "{1, 23}";
},
{
horizontal = 1;
origin = "{1, 11}";
target = "{0, 11}";
},
{
origin = "{0, 5}";
target = "{1, 17}";
},
{
origin = "{1, 5}";
target = "{0, 17}";
}
);
layerId = "A8E9A3C4-7003-4333-ABE9-545A429BAB07";
name = Regular;
paths = (
{
closed = 1;
nodes = (
"710 991 OFFCURVE",
"781 955 OFFCURVE",
"829 882 CURVE SMOOTH",
"877 809 OFFCURVE",
"901 702 OFFCURVE",
"901 559 CURVE SMOOTH",
"901 417 OFFCURVE",
"877 310 OFFCURVE",
"829 237 CURVE SMOOTH",
"781 164 OFFCURVE",
"710 127 OFFCURVE",
"616 127 CURVE SMOOTH",
"523 127 OFFCURVE",
"452 164 OFFCURVE",
"404 237 CURVE SMOOTH",
"356 310 OFFCURVE",
"332 417 OFFCURVE",
"332 559 CURVE SMOOTH",
"332 702 OFFCURVE",
"356 809 OFFCURVE",
"404 882 CURVE SMOOTH",
"452 955 OFFCURVE",
"523 991 OFFCURVE",
"616 991 CURVE SMOOTH"
);
},
{
closed = 1;
nodes = (
"461 1147 OFFCURVE",
"342 1097 OFFCURVE",
"260 996 CURVE SMOOTH",
"178 895 OFFCURVE",
"137 750 OFFCURVE",
"137 560 CURVE SMOOTH",
"137 375 OFFCURVE",
"176 224 OFFCURVE",
"260 121 CURVE SMOOTH",
"342 21 OFFCURVE",
"463 -29 OFFCURVE",
"616 -29 CURVE SMOOTH",
"772 -29 OFFCURVE",
"893 23 OFFCURVE",
"973 121 CURVE SMOOTH",
"1055 221 OFFCURVE",
"1096 371 OFFCURVE",
"1096 561 CURVE SMOOTH",
"1096 750 OFFCURVE",
"1055 895 OFFCURVE",
"973 996 CURVE SMOOTH",
"893 1094 OFFCURVE",
"775 1147 OFFCURVE",
"616 1147 CURVE SMOOTH"
);
}
);
width = 1233;
}
);
note = "\012\011o\012  ";
unicode = 006F;
},
{
glyphname = p;
lastChange = "2015-07-06 00:27:03 +0000";
layers = (
{
hints = (
{
horizontal = 1;
origin = "{0, 27}";
target = up;
type = BottomGhost;
},
{
horizontal = 1;
origin = "{1, 17}";
target = "{0, 18}";
},
{
origin = "{0, 26}";
target = "{0, 25}";
},
{
origin = "{1, 23}";
target = "{0, 12}";
},
{
horizontal = 1;
origin = "{0, 6}";
target = "{1, 5}";
}
);
layerId = "A8E9A3C4-7003-4333-ABE9-545A429BAB07";
name = Regular;
paths = (
{
closed = 1;
nodes = (
"375 141 LINE",
"404 86 OFFCURVE",
"444 45 OFFCURVE",
"496 15 CURVE SMOOTH",
"545 -13 OFFCURVE",
"599 -29 OFFCURVE",
"674 -29 CURVE SMOOTH",
"809 -29 OFFCURVE",
"915 23 OFFCURVE",
"992 127 CURVE SMOOTH",
"1069 230 OFFCURVE",
"1108 372 OFFCURVE",
"1108 557 CURVE SMOOTH",
"1108 739 OFFCURVE",
"1070 885 OFFCURVE",
"993 990 CURVE SMOOTH",
"916 1095 OFFCURVE",
"808 1147 OFFCURVE",
"675 1147 CURVE SMOOTH",
"606 1147 OFFCURVE",
"549 1133 OFFCURVE",
"498 1104 CURVE SMOOTH",
"447 1075 OFFCURVE",
"406 1032 OFFCURVE",
"375 977 CURVE",
"375 1120 LINE",
"190 1120 LINE",
"190 -426 LINE",
"375 -426 LINE"
);
},
{
closed = 1;
nodes = (
"915 416 OFFCURVE",
"893 309 OFFCURVE",
"848 236 CURVE SMOOTH",
"803 163 OFFCURVE",
"736 127 OFFCURVE",
"647 127 CURVE SMOOTH",
"558 127 OFFCURVE",
"490 164 OFFCURVE",
"444 237 CURVE SMOOTH",
"398 310 OFFCURVE",
"375 418 OFFCURVE",
"375 559 CURVE SMOOTH",
"375 701 OFFCURVE",
"398 809 OFFCURVE",
"444 882 CURVE SMOOTH",
"490 955 OFFCURVE",
"558 991 OFFCURVE",
"647 991 CURVE SMOOTH",
"736 991 OFFCURVE",
"803 955 OFFCURVE",
"848 882 CURVE SMOOTH",
"893 809 OFFCURVE",
"915 702 OFFCURVE",
"915 559 CURVE SMOOTH"
);
}
);
width = 1233;
}
);
note = "\012\011p\012  ";
unicode = 0070;
},
{
glyphname = q;
lastChange = "2015-07-06 00:27:32 +0000";
layers = (
{
hints = (
{
horizontal = 1;
origin = "{1, 10}";
target = "{0, 5}";
},
{
horizontal = 1;
origin = "{1, 22}";
target = "{0, 17}";
},
{
horizontal = 1;
origin = "{1, 0}";
target = up;
type = BottomGhost;
},
{
origin = "{1, 3}";
target = "{1, 2}";
},
{
origin = "{1, 16}";
target = "{0, 23}";
}
);
layerId = "A8E9A3C4-7003-4333-ABE9-545A429BAB07";
name = Regular;
paths = (
{
closed = 1;
nodes = (
"332 698 OFFCURVE",
"355 805 OFFCURVE",
"400 878 CURVE SMOOTH",
"445 951 OFFCURVE",
"511 987 OFFCURVE",
"600 987 CURVE SMOOTH",
"687 987 OFFCURVE",
"756 952 OFFCURVE",
"802 878 CURVE SMOOTH",
"847 805 OFFCURVE",
"870 697 OFFCURVE",
"870 555 CURVE SMOOTH",
"870 413 OFFCURVE",
"847 306 OFFCURVE",
"802 233 CURVE SMOOTH",
"756 159 OFFCURVE",
"687 123 OFFCURVE",
"599 123 CURVE SMOOTH",
"511 123 OFFCURVE",
"445 159 OFFCURVE",
"400 232 CURVE SMOOTH",
"355 305 OFFCURVE",
"332 412 OFFCURVE",
"332 555 CURVE SMOOTH"
);
},
{
closed = 1;
nodes = (
"870 -430 LINE",
"1055 -430 LINE",
"1055 1116 LINE",
"870 1116 LINE",
"870 973 LINE",
"839 1028 OFFCURVE",
"799 1071 OFFCURVE",
"748 1100 CURVE SMOOTH",
"697 1129 OFFCURVE",
"639 1143 OFFCURVE",
"570 1143 CURVE SMOOTH",
"439 1143 OFFCURVE",
"330 1091 OFFCURVE",
"253 987 CURVE SMOOTH",
"175 881 OFFCURVE",
"137 729 OFFCURVE",
"137 551 CURVE SMOOTH",
"137 356 OFFCURVE",
"183 217 OFFCURVE",
"253 123 CURVE SMOOTH",
"332 17 OFFCURVE",
"443 -33 OFFCURVE",
"569 -33 CURVE SMOOTH",
"638 -33 OFFCURVE",
"698 -18 OFFCURVE",
"749 12 CURVE SMOOTH",
"803 43 OFFCURVE",
"841 86 OFFCURVE",
"870 139 CURVE"
);
}
);
width = 1233;
}
);
note = "\012\011q\012  ";
unicode = 0071;
},
{
glyphname = r;
lastChange = "2015-07-06 00:27:49 +0000";
layers = (
{
hints = (
{
horizontal = 1;
origin = "{0, 15}";
target = up;
type = BottomGhost;
},
{
horizontal = 1;
origin = "{0, 23}";
target = "{0, 6}";
},
{
origin = "{0, 14}";
target = "{0, 13}";
}
);
layerId = "A8E9A3C4-7003-4333-ABE9-545A429BAB07";
name = Regular;
paths = (
{
closed = 1;
nodes = (
"1155 1077 LINE",
"1120 1101 OFFCURVE",
"1080 1119 OFFCURVE",
"1042 1130 CURVE SMOOTH",
"1003 1141 OFFCURVE",
"960 1147 OFFCURVE",
"914 1147 CURVE SMOOTH",
"828 1147 OFFCURVE",
"752 1126 OFFCURVE",
"689 1084 CURVE SMOOTH",
"625 1041 OFFCURVE",
"578 980 OFFCURVE",
"547 901 CURVE",
"547 1120 LINE",
"362 1120 LINE",
"362 0 LINE",
"547 0 LINE",
"547 557 LINE SMOOTH",
"547 693 OFFCURVE",
"577 797 OFFCURVE",
"638 869 CURVE SMOOTH",
"699 941 OFFCURVE",
"786 977 OFFCURVE",
"900 977 CURVE SMOOTH",
"950 977 OFFCURVE",
"994 970 OFFCURVE",
"1035 956 CURVE SMOOTH",
"1076 942 OFFCURVE",
"1116 920 OFFCURVE",
"1155 889 CURVE"
);
}
);
width = 1233;
}
);
note = "\012\011r\012  ";
unicode = 0072;
},
{
glyphname = s;
lastChange = "2015-07-06 00:28:11 +0000";
layers = (
{
hints = (
{
horizontal = 1;
origin = "{0, 67}";
target = "{0, 6}";
},
{
horizontal = 1;
origin = "{0, 42}";
target = "{0, 29}";
},
{
origin = "{0, 23}";
target = "{0, 48}";
},
{
origin = "{0, 12}";
target = "{0, 61}";
}
);
layerId = "A8E9A3C4-7003-4333-ABE9-545A429BAB07";
name = Regular;
paths = (
{
closed = 1;
nodes = (
"973 1081 LINE",
"918 1104 OFFCURVE",
"860 1121 OFFCURVE",
"810 1131 CURVE SMOOTH",
"755 1142 OFFCURVE",
"696 1147 OFFCURVE",
"639 1147 CURVE SMOOTH",
"509 1147 OFFCURVE",
"402 1121 OFFCURVE",
"326 1060 CURVE SMOOTH",
"255 1003 OFFCURVE",
"217 920 OFFCURVE",
"217 812 CURVE SMOOTH",
"217 726 OFFCURVE",
"241 660 OFFCURVE",
"290 611 CURVE SMOOTH",
"343 558 OFFCURVE",
"423 526 OFFCURVE",
"522 506 CURVE SMOOTH",
"591 492 LINE",
"599 490 LINE",
"767 455 OFFCURVE",
"844 400 OFFCURVE",
"844 307 CURVE SMOOTH",
"844 259 OFFCURVE",
"824 210 OFFCURVE",
"777 175 CURVE SMOOTH",
"732 142 OFFCURVE",
"669 125 OFFCURVE",
"588 125 CURVE SMOOTH",
"527 125 OFFCURVE",
"471 135 OFFCURVE",
"410 152 CURVE SMOOTH",
"353 168 OFFCURVE",
"298 188 OFFCURVE",
"213 231 CURVE",
"213 41 LINE",
"283 18 OFFCURVE",
"358 -2 OFFCURVE",
"410 -12 CURVE SMOOTH",
"467 -23 OFFCURVE",
"532 -29 OFFCURVE",
"590 -29 CURVE SMOOTH",
"720 -29 OFFCURVE",
"831 1 OFFCURVE",
"912 65 CURVE SMOOTH",
"988 125 OFFCURVE",
"1030 209 OFFCURVE",
"1030 323 CURVE SMOOTH",
"1030 408 OFFCURVE",
"1007 475 OFFCURVE",
"960 527 CURVE SMOOTH",
"915 577 OFFCURVE",
"847 613 OFFCURVE",
"752 631 CURVE SMOOTH",
"678 645 LINE SMOOTH",
"546 670 OFFCURVE",
"480 693 OFFCURVE",
"449 717 CURVE SMOOTH",
"418 741 OFFCURVE",
"403 781 OFFCURVE",
"403 828 CURVE SMOOTH",
"403 884 OFFCURVE",
"424 926 OFFCURVE",
"465 953 CURVE SMOOTH",
"506 980 OFFCURVE",
"570 993 OFFCURVE",
"647 993 CURVE SMOOTH",
"708 993 OFFCURVE",
"761 985 OFFCURVE",
"814 970 CURVE SMOOTH",
"867 955 OFFCURVE",
"920 932 OFFCURVE",
"973 901 CURVE"
);
}
);
width = 1233;
}
);
note = "\012\011s\012  ";
unicode = 0073;
},
{
glyphname = t;
lastChange = "2015-07-06 00:28:39 +0000";
layers = (
{
hints = (
{
horizontal = 1;
origin = "{0, 1}";
target = down;
type = TopGhost;
},
{
horizontal = 1;
origin = "{0, 13}";
target = "{0, 14}";
},
{
origin = "{0, 6}";
target = "{0, 21}";
},
{
horizontal = 1;
origin = "{0, 24}";
target = "{0, 23}";
}
);
layerId = "A8E9A3C4-7003-4333-ABE9-545A429BAB07";
name = Regular;
paths = (
{
closed = 1;
nodes = (
"614 1438 LINE",
"430 1438 LINE",
"430 1120 LINE",
"131 1098 LINE",
"131 977 LINE",
"430 977 LINE",
"430 369 LINE SMOOTH",
"430 234 OFFCURVE",
"458 138 OFFCURVE",
"515 83 CURVE SMOOTH",
"572 28 OFFCURVE",
"669 0 OFFCURVE",
"807 0 CURVE SMOOTH",
"1032 0 LINE",
"1032 147 LINE",
"825 147 LINE SMOOTH",
"747 147 OFFCURVE",
"692 163 OFFCURVE",
"661 196 CURVE SMOOTH",
"630 229 OFFCURVE",
"614 286 OFFCURVE",
"614 369 CURVE SMOOTH",
"614 977 LINE",
"1032 977 LINE",
"1032 1120 LINE",
"614 1120 LINE"
);
}
);
width = 1233;
}
);
note = "\012\011t\012  ";
unicode = 0074;
},
{
glyphname = u;
lastChange = "2015-07-06 00:29:02 +0000";
layers = (
{
hints = (
{
horizontal = 1;
origin = "{0, 31}";
target = down;
type = TopGhost;
},
{
horizontal = 1;
origin = "{0, 6}";
target = "{0, 23}";
},
{
origin = "{0, 13}";
target = "{0, 14}";
},
{
origin = "{0, 0}";
target = "{0, 29}";
}
);
layerId = "A8E9A3C4-7003-4333-ABE9-545A429BAB07";
name = Regular;
paths = (
{
closed = 1;
nodes = (
"195 424 LINE SMOOTH",
"195 272 OFFCURVE",
"223 159 OFFCURVE",
"279 84 CURVE SMOOTH",
"335 9 OFFCURVE",
"421 -29 OFFCURVE",
"534 -29 CURVE SMOOTH",
"609 -29 OFFCURVE",
"677 -12 OFFCURVE",
"733 21 CURVE SMOOTH",
"789 54 OFFCURVE",
"833 103 OFFCURVE",
"866 168 CURVE",
"866 0 LINE",
"1051 0 LINE",
"1051 1118 LINE",
"866 1118 LINE",
"866 485 LINE SMOOTH",
"866 371 OFFCURVE",
"843 284 OFFCURVE",
"797 223 CURVE SMOOTH",
"751 162 OFFCURVE",
"685 131 OFFCURVE",
"598 131 CURVE SMOOTH",
"519 131 OFFCURVE",
"467 157 OFFCURVE",
"433 202 CURVE SMOOTH",
"397 249 OFFCURVE",
"379 323 OFFCURVE",
"379 424 CURVE SMOOTH",
"379 1118 LINE",
"195 1118 LINE"
);
}
);
width = 1233;
}
);
note = "\012\011u\012  ";
unicode = 0075;
},
{
glyphname = v;
lastChange = "2015-07-06 00:29:31 +0000";
layers = (
{
hints = (
{
horizontal = 1;
origin = "{0, 1}";
target = up;
type = BottomGhost;
},
{
horizontal = 1;
origin = "{0, 0}";
target = down;
type = TopGhost;
},
{
origin = "{0, 0}";
target = "{0, 6}";
},
{
origin = "{0, 4}";
target = "{0, 3}";
},
{
origin = "{0, 1}";
target = "{0, 2}";
}
);
layerId = "A8E9A3C4-7003-4333-ABE9-545A429BAB07";
name = Regular;
paths = (
{
closed = 1;
nodes = (
"100 1120 LINE",
"498 0 LINE",
"735 0 LINE",
"1133 1120 LINE",
"942 1120 LINE",
"616 180 LINE",
"291 1120 LINE"
);
}
);
width = 1233;
}
);
note = "\012\011v\012  ";
unicode = 0076;
},
{
glyphname = w;
lastChange = "2015-07-06 00:44:50 +0000";
layers = (
{
hints = (
{
horizontal = 1;
origin = "{0, 1}";
target = up;
type = BottomGhost;
},
{
horizontal = 1;
origin = "{0, 0}";
target = down;
type = TopGhost;
},
{
origin = "{0, 0}";
target = "{0, 12}";
},
{
origin = "{0, 10}";
target = "{0, 9}";
},
{
origin = "{0, 7}";
target = "{0, 6}";
}
);
layerId = "A8E9A3C4-7003-4333-ABE9-545A429BAB07";
name = Regular;
paths = (
{
closed = 1;
nodes = (
"0 1120 LINE",
"262 0 LINE",
"438 0 LINE",
"616 614 LINE",
"795 0 LINE",
"971 0 LINE",
"1233 1120 LINE",
"1051 1120 LINE",
"856 215 LINE",
"694 793 LINE",
"537 793 LINE",
"377 215 LINE",
"182 1120 LINE"
);
}
);
width = 1233;
}
);
note = "\012\011w\012  ";
unicode = 0077;
},
{
glyphname = x;
lastChange = "2015-07-06 00:30:54 +0000";
layers = (
{
hints = (
{
horizontal = 1;
origin = "{0, 6}";
target = up;
type = BottomGhost;
},
{
horizontal = 1;
origin = "{0, 4}";
target = down;
type = TopGhost;
},
{
origin = "{0, 9}";
target = "{0, 10}";
},
{
origin = "{0, 6}";
target = "{0, 7}";
},
{
horizontal = 1;
origin = "{0, 8}";
target = "{0, 2}";
},
{
origin = "{0, 5}";
target = "{0, 11}";
}
);
layerId = "A8E9A3C4-7003-4333-ABE9-545A429BAB07";
name = Regular;
paths = (
{
closed = 1;
nodes = (
"1118 1120 LINE",
"911 1120 LINE",
"616 715 LINE",
"319 1120 LINE",
"115 1120 LINE",
"516 584 LINE",
"76 0 LINE",
"289 0 LINE",
"616 449 LINE",
"944 0 LINE",
"1157 0 LINE",
"717 584 LINE"
);
}
);
width = 1233;
}
);
note = "\012\011x\012  ";
unicode = 0078;
},
{
glyphname = y;
lastChange = "2015-07-06 00:31:18 +0000";
layers = (
{
hints = (
{
horizontal = 1;
origin = "{0, 4}";
target = down;
type = TopGhost;
},
{
horizontal = 1;
origin = "{0, 13}";
target = "{0, 12}";
},
{
origin = "{0, 1}";
target = "{0, 0}";
},
{
origin = "{0, 4}";
target = "{0, 3}";
}
);
layerId = "A8E9A3C4-7003-4333-ABE9-545A429BAB07";
name = Regular;
paths = (
{
closed = 1;
nodes = (
"1153 1120 LINE",
"958 1120 LINE",
"631 244 LINE",
"299 1120 LINE",
"104 1120 LINE",
"537 18 LINE",
"485 -126 OFFCURVE",
"450 -194 OFFCURVE",
"420 -225 CURVE SMOOTH",
"394 -252 OFFCURVE",
"352 -272 OFFCURVE",
"293 -272 CURVE SMOOTH",
"184 -272 LINE",
"184 -426 LINE",
"332 -426 LINE SMOOTH",
"393 -426 OFFCURVE",
"447 -413 OFFCURVE",
"493 -387 CURVE SMOOTH",
"543 -359 OFFCURVE",
"579 -319 OFFCURVE",
"608 -269 CURVE SMOOTH",
"631 -230 OFFCURVE",
"662 -158 OFFCURVE",
"741 52 CURVE SMOOTH",
"806 225 OFFCURVE",
"756 98 OFFCURVE",
"858 360 CURVE SMOOTH"
);
}
);
width = 1233;
}
);
note = "\012\011y\012  ";
unicode = 0079;
},
{
glyphname = z;
lastChange = "2015-07-06 00:31:48 +0000";
layers = (
{
hints = (
{
horizontal = 1;
origin = "{0, 0}";
target = "{0, 1}";
},
{
horizontal = 1;
origin = "{0, 5}";
target = "{0, 6}";
},
{
origin = "{0, 3}";
target = "{0, 7}";
},
{
origin = "{0, 2}";
target = "{0, 8}";
}
);
layerId = "A8E9A3C4-7003-4333-ABE9-545A429BAB07";
name = Regular;
paths = (
{
closed = 1;
nodes = (
"227 1122 LINE",
"227 975 LINE",
"846 975 LINE",
"203 170 LINE",
"203 0 LINE",
"1040 0 LINE",
"1040 150 LINE",
"397 150 LINE",
"1040 954 LINE",
"1040 1122 LINE"
);
}
);
width = 1233;
}
);
note = "\012\011z\012  ";
unicode = 007A;
},
{
glyphname = braceleft;
lastChange = "2015-07-06 00:32:17 +0000";
layers = (
{
hints = (
{
horizontal = 1;
origin = "{0, 28}";
target = "{0, 29}";
},
{
horizontal = 1;
origin = "{0, 60}";
target = "{0, 0}";
},
{
horizontal = 1;
origin = "{0, 45}";
target = "{0, 44}";
},
{
origin = "{0, 36}";
target = "{0, 21}";
}
);
layerId = "A8E9A3C4-7003-4333-ABE9-545A429BAB07";
name = Regular;
paths = (
{
closed = 1;
nodes = (
"1012 -109 LINE",
"942 -109 LINE SMOOTH",
"849 -109 OFFCURVE",
"788 -95 OFFCURVE",
"760 -66 CURVE SMOOTH",
"731 -37 OFFCURVE",
"717 25 OFFCURVE",
"717 120 CURVE SMOOTH",
"717 368 LINE SMOOTH",
"717 472 OFFCURVE",
"702 548 OFFCURVE",
"672 595 CURVE SMOOTH",
"642 642 OFFCURVE",
"590 675 OFFCURVE",
"516 693 CURVE",
"590 710 OFFCURVE",
"643 744 OFFCURVE",
"672 789 CURVE SMOOTH",
"702 836 OFFCURVE",
"717 912 OFFCURVE",
"717 1017 CURVE SMOOTH",
"717 1265 LINE SMOOTH",
"717 1360 OFFCURVE",
"731 1422 OFFCURVE",
"760 1451 CURVE SMOOTH",
"788 1480 OFFCURVE",
"849 1494 OFFCURVE",
"942 1494 CURVE SMOOTH",
"1012 1494 LINE",
"1012 1637 LINE",
"948 1637 LINE SMOOTH",
"782 1637 OFFCURVE",
"671 1613 OFFCURVE",
"615 1564 CURVE SMOOTH",
"558 1515 OFFCURVE",
"530 1416 OFFCURVE",
"530 1269 CURVE SMOOTH",
"530 1029 LINE SMOOTH",
"530 929 OFFCURVE",
"512 860 OFFCURVE",
"477 822 CURVE SMOOTH",
"442 784 OFFCURVE",
"377 765 OFFCURVE",
"283 765 CURVE SMOOTH",
"167 765 LINE",
"167 622 LINE",
"283 622 LINE SMOOTH",
"376 622 OFFCURVE",
"441 603 OFFCURVE",
"477 564 CURVE SMOOTH",
"512 525 OFFCURVE",
"530 456 OFFCURVE",
"530 355 CURVE SMOOTH",
"530 116 LINE SMOOTH",
"530 -31 OFFCURVE",
"558 -130 OFFCURVE",
"615 -179 CURVE SMOOTH",
"671 -228 OFFCURVE",
"782 -253 OFFCURVE",
"948 -253 CURVE SMOOTH",
"1012 -253 LINE"
);
}
);
width = 1233;
}
);
note = "\012\011braceleft\012  ";
unicode = 007B;
},
{
glyphname = bar;
lastChange = "2015-07-06 00:32:33 +0000";
layers = (
{
hints = (
{
horizontal = 1;
origin = "{0, 1}";
target = down;
type = TopGhost;
},
{
horizontal = 1;
origin = "{0, 2}";
target = up;
type = BottomGhost;
},
{
origin = "{0, 1}";
target = "{0, 0}";
}
);
layerId = "A8E9A3C4-7003-4333-ABE9-545A429BAB07";
name = Regular;
paths = (
{
closed = 1;
nodes = (
"702 1565 LINE",
"530 1565 LINE",
"530 -483 LINE",
"702 -483 LINE"
);
}
);
width = 1233;
}
);
note = "\012\011bar\012  ";
unicode = 007C;
},
{
glyphname = braceright;
lastChange = "2015-07-06 00:32:55 +0000";
layers = (
{
hints = (
{
horizontal = 1;
origin = "{0, 33}";
target = "{0, 32}";
},
{
horizontal = 1;
origin = "{0, 16}";
target = "{0, 17}";
},
{
horizontal = 1;
origin = "{0, 1}";
target = "{0, 0}";
},
{
origin = "{0, 54}";
target = "{0, 8}";
}
);
layerId = "A8E9A3C4-7003-4333-ABE9-545A429BAB07";
name = Regular;
paths = (
{
closed = 1;
nodes = (
"221 -118 LINE",
"221 -262 LINE",
"283 -262 LINE SMOOTH",
"449 -262 OFFCURVE",
"560 -237 OFFCURVE",
"616 -188 CURVE SMOOTH",
"672 -139 OFFCURVE",
"700 -40 OFFCURVE",
"700 107 CURVE SMOOTH",
"700 346 LINE SMOOTH",
"700 450 OFFCURVE",
"728 514 OFFCURVE",
"784 555 CURVE SMOOTH",
"836 593 OFFCURVE",
"914 613 OFFCURVE",
"1008 613 CURVE SMOOTH",
"1072 613 LINE",
"1072 756 LINE",
"1008 756 LINE SMOOTH",
"917 756 OFFCURVE",
"837 775 OFFCURVE",
"784 813 CURVE SMOOTH",
"728 853 OFFCURVE",
"700 917 OFFCURVE",
"700 1020 CURVE SMOOTH",
"700 1260 LINE SMOOTH",
"700 1407 OFFCURVE",
"672 1506 OFFCURVE",
"616 1555 CURVE SMOOTH",
"560 1604 OFFCURVE",
"449 1628 OFFCURVE",
"283 1628 CURVE SMOOTH",
"221 1628 LINE",
"221 1485 LINE",
"289 1485 LINE SMOOTH",
"383 1485 OFFCURVE",
"444 1470 OFFCURVE",
"473 1441 CURVE SMOOTH",
"502 1412 OFFCURVE",
"516 1350 OFFCURVE",
"516 1256 CURVE SMOOTH",
"516 1008 LINE SMOOTH",
"516 895 OFFCURVE",
"533 825 OFFCURVE",
"562 780 CURVE SMOOTH",
"592 733 OFFCURVE",
"644 701 OFFCURVE",
"717 684 CURVE",
"643 666 OFFCURVE",
"591 633 OFFCURVE",
"561 586 CURVE SMOOTH",
"531 539 OFFCURVE",
"516 463 OFFCURVE",
"516 359 CURVE SMOOTH",
"516 111 LINE SMOOTH",
"516 17 OFFCURVE",
"502 -45 OFFCURVE",
"473 -74 CURVE SMOOTH",
"444 -103 OFFCURVE",
"383 -118 OFFCURVE",
"289 -118 CURVE SMOOTH"
);
}
);
width = 1233;
}
);
note = "\012\011braceright\012  ";
unicode = 007D;
},
{
glyphname = asciitilde;
lastChange = "2015-07-06 00:33:20 +0000";
layers = (
{
hints = (
{
horizontal = 1;
origin = "{0, 31}";
target = "{0, 18}";
}
);
layerId = "A8E9A3C4-7003-4333-ABE9-545A429BAB07";
name = Regular;
paths = (
{
closed = 1;
nodes = (
"1145 780 LINE",
"1091 735 OFFCURVE",
"1045 707 OFFCURVE",
"1003 688 CURVE SMOOTH",
"956 667 OFFCURVE",
"912 657 OFFCURVE",
"865 657 CURVE SMOOTH",
"802 657 OFFCURVE",
"732 675 OFFCURVE",
"655 712 CURVE SMOOTH",
"642 718 OFFCURVE",
"644 718 OFFCURVE",
"623 727 CURVE SMOOTH",
"570 750 OFFCURVE",
"524 763 OFFCURVE",
"497 769 CURVE SMOOTH",
"465 776 OFFCURVE",
"432 780 OFFCURVE",
"395 780 CURVE SMOOTH",
"340 780 OFFCURVE",
"288 771 OFFCURVE",
"239 753 CURVE SMOOTH",
"190 735 OFFCURVE",
"140 706 OFFCURVE",
"88 666 CURVE",
"88 492 LINE",
"139 536 OFFCURVE",
"191 568 OFFCURVE",
"232 585 CURVE SMOOTH",
"275 603 OFFCURVE",
"328 614 OFFCURVE",
"382 614 CURVE SMOOTH",
"415 614 OFFCURVE",
"449 610 OFFCURVE",
"484 602 CURVE SMOOTH",
"518 594 OFFCURVE",
"561 579 OFFCURVE",
"612 557 CURVE",
"615 555 OFFCURVE",
"638 546 OFFCURVE",
"645 543 CURVE SMOOTH",
"720 512 OFFCURVE",
"772 492 OFFCURVE",
"849 492 CURVE SMOOTH",
"900 492 OFFCURVE",
"951 501 OFFCURVE",
"999 520 CURVE SMOOTH",
"1048 539 OFFCURVE",
"1095 567 OFFCURVE",
"1145 606 CURVE"
);
}
);
width = 1233;
}
);
note = "\012\011asciitilde\012  ";
unicode = 007E;
},
{
glyphname = exclamdown;
layers = (
{
layerId = "A8E9A3C4-7003-4333-ABE9-545A429BAB07";
name = Regular;
paths = (
{
closed = 1;
nodes = (
"516 1239 LINE",
"719 1239 LINE",
"719 1493 LINE",
"516 1493 LINE"
);
},
{
closed = 1;
nodes = (
"516 0 LINE",
"719 0 LINE",
"719 655 LINE",
"698 1012 LINE",
"537 1012 LINE",
"516 655 LINE"
);
}
);
width = 1233;
}
);
note = "\012\011exclamdown\012  ";
unicode = 00A1;
},
{
glyphname = cent;
layers = (
{
layerId = "A8E9A3C4-7003-4333-ABE9-545A429BAB07";
name = Regular;
paths = (
{
closed = 1;
nodes = (
"1061 1077 LINE",
"1013 1098 OFFCURVE",
"962 1115 OFFCURVE",
"923 1125 CURVE SMOOTH",
"885 1135 OFFCURVE",
"839 1143 OFFCURVE",
"801 1145 CURVE",
"801 1432 LINE",
"698 1432 LINE",
"698 1145 LINE",
"541 1131 OFFCURVE",
"426 1067 OFFCURVE",
"345 967 CURVE SMOOTH",
"263 866 OFFCURVE",
"210 720 OFFCURVE",
"210 558 CURVE SMOOTH",
"210 399 OFFCURVE",
"261 254 OFFCURVE",
"344 152 CURVE SMOOTH",
"432 44 OFFCURVE",
"550 -12 OFFCURVE",
"698 -27 CURVE",
"698 -313 LINE",
"801 -313 LINE",
"801 -27 LINE",
"839 -25 OFFCURVE",
"881 -18 OFFCURVE",
"923 -7 CURVE SMOOTH",
"970 5 OFFCURVE",
"1014 21 OFFCURVE",
"1061 41 CURVE",
"1061 213 LINE",
"1019 187 OFFCURVE",
"974 166 OFFCURVE",
"930 151 CURVE SMOOTH",
"886 136 OFFCURVE",
"843 126 OFFCURVE",
"801 123 CURVE",
"801 993 LINE",
"842 990 OFFCURVE",
"883 983 OFFCURVE",
"929 967 CURVE SMOOTH",
"971 953 OFFCURVE",
"1021 929 OFFCURVE",
"1061 905 CURVE"
);
},
{
closed = 1;
nodes = (
"698 127 LINE",
"610 136 OFFCURVE",
"540 178 OFFCURVE",
"486 258 CURVE SMOOTH",
"433 336 OFFCURVE",
"406 436 OFFCURVE",
"406 559 CURVE SMOOTH",
"406 682 OFFCURVE",
"433 782 OFFCURVE",
"486 861 CURVE SMOOTH",
"539 940 OFFCURVE",
"610 983 OFFCURVE",
"698 991 CURVE"
);
}
);
width = 1233;
}
);
note = "\012\011cent\012  ";
unicode = 00A2;
},
{
glyphname = sterling;
layers = (
{
layerId = "A8E9A3C4-7003-4333-ABE9-545A429BAB07";
name = Regular;
paths = (
{
closed = 1;
nodes = (
"1092 1462 LINE",
"1039 1483 OFFCURVE",
"980 1500 OFFCURVE",
"951 1506 CURVE SMOOTH",
"909 1515 OFFCURVE",
"858 1520 OFFCURVE",
"810 1520 CURVE SMOOTH",
"671 1520 OFFCURVE",
"558 1478 OFFCURVE",
"485 1395 CURVE SMOOTH",
"412 1312 OFFCURVE",
"375 1185 OFFCURVE",
"375 1016 CURVE SMOOTH",
"375 778 LINE",
"176 778 LINE",
"176 635 LINE",
"375 635 LINE",
"375 170 LINE",
"139 170 LINE",
"139 0 LINE",
"1112 0 LINE",
"1112 170 LINE",
"575 170 LINE",
"575 635 LINE",
"946 635 LINE",
"946 778 LINE",
"575 778 LINE",
"575 995 LINE SMOOTH",
"575 1123 OFFCURVE",
"596 1217 OFFCURVE",
"639 1277 CURVE SMOOTH",
"681 1336 OFFCURVE",
"747 1366 OFFCURVE",
"837 1366 CURVE SMOOTH",
"881 1366 OFFCURVE",
"924 1359 OFFCURVE",
"967 1344 CURVE SMOOTH",
"1001 1332 OFFCURVE",
"1047 1310 OFFCURVE",
"1092 1278 CURVE"
);
}
);
width = 1233;
}
);
note = "\012\011sterling\012  ";
unicode = 00A3;
},
{
glyphname = currency;
layers = (
{
layerId = "A8E9A3C4-7003-4333-ABE9-545A429BAB07";
name = Regular;
paths = (
{
closed = 1;
nodes = (
"868 584 OFFCURVE",
"846 529 OFFCURVE",
"806 488 CURVE SMOOTH",
"765 447 OFFCURVE",
"711 426 OFFCURVE",
"653 426 CURVE SMOOTH",
"592 426 OFFCURVE",
"540 449 OFFCURVE",
"500 489 CURVE SMOOTH",
"459 531 OFFCURVE",
"438 584 OFFCURVE",
"438 642 CURVE SMOOTH",
"438 705 OFFCURVE",
"463 759 OFFCURVE",
"501 796 CURVE SMOOTH",
"542 836 OFFCURVE",
"596 856 OFFCURVE",
"653 856 CURVE SMOOTH",
"712 856 OFFCURVE",
"767 835 OFFCURVE",
"807 795 CURVE SMOOTH",
"845 757 OFFCURVE",
"868 702 OFFCURVE",
"868 643 CURVE SMOOTH"
);
},
{
closed = 1;
nodes = (
"844 924 LINE",
"812 943 OFFCURVE",
"775 960 OFFCURVE",
"746 969 CURVE SMOOTH",
"717 978 OFFCURVE",
"682 983 OFFCURVE",
"651 983 CURVE SMOOTH",
"620 983 OFFCURVE",
"587 978 OFFCURVE",
"557 968 CURVE SMOOTH",
"526 958 OFFCURVE",
"496 943 OFFCURVE",
"465 922 CURVE",
"299 1090 LINE",
"205 995 LINE",
"373 829 LINE",
"352 799 OFFCURVE",
"338 771 OFFCURVE",
"327 738 CURVE SMOOTH",
"317 708 OFFCURVE",
"311 679 OFFCURVE",
"311 642 CURVE SMOOTH",
"311 608 OFFCURVE",
"316 581 OFFCURVE",
"326 549 CURVE SMOOTH",
"336 517 OFFCURVE",
"346 492 OFFCURVE",
"371 451 CURVE",
"205 285 LINE",
"297 195 LINE",
"461 358 LINE",
"499 336 OFFCURVE",
"523 326 OFFCURVE",
"557 316 CURVE SMOOTH",
"591 306 OFFCURVE",
"618 301 OFFCURVE",
"652 301 CURVE SMOOTH",
"686 301 OFFCURVE",
"718 306 OFFCURVE",
"749 316 CURVE SMOOTH",
"779 326 OFFCURVE",
"809 341 OFFCURVE",
"840 362 CURVE",
"1006 195 LINE",
"1100 289 LINE",
"932 455 LINE",
"953 485 OFFCURVE",
"968 515 OFFCURVE",
"978 546 CURVE SMOOTH",
"988 576 OFFCURVE",
"993 609 OFFCURVE",
"993 640 CURVE SMOOTH",
"993 671 OFFCURVE",
"988 707 OFFCURVE",
"979 736 CURVE SMOOTH",
"972 760 OFFCURVE",
"954 798 OFFCURVE",
"934 831 CURVE",
"1100 997 LINE",
"1010 1090 LINE"
);
}
);
width = 1233;
}
);
note = "\012\011currency\012  ";
unicode = 00A4;
},
{
glyphname = yen;
layers = (
{
layerId = "A8E9A3C4-7003-4333-ABE9-545A429BAB07";
name = Regular;
paths = (
{
closed = 1;
nodes = (
"37 1493 LINE",
"358 932 LINE",
"115 932 LINE",
"115 821 LINE",
"424 821 LINE",
"514 670 LINE",
"514 635 LINE",
"115 635 LINE",
"115 524 LINE",
"514 524 LINE",
"514 0 LINE",
"717 0 LINE",
"717 524 LINE",
"1118 524 LINE",
"1118 635 LINE",
"717 635 LINE",
"717 670 LINE",
"803 821 LINE",
"1118 821 LINE",
"1118 932 LINE",
"866 932 LINE",
"1196 1493 LINE",
"979 1493 LINE",
"616 834 LINE",
"252 1493 LINE"
);
}
);
width = 1233;
}
);
note = "\012\011yen\012  ";
unicode = 00A5;
},
{
glyphname = brokenbar;
layers = (
{
layerId = "A8E9A3C4-7003-4333-ABE9-545A429BAB07";
name = Regular;
paths = (
{
closed = 1;
nodes = (
"702 1432 LINE",
"530 1432 LINE",
"530 674 LINE",
"702 674 LINE"
);
},
{
closed = 1;
nodes = (
"702 408 LINE",
"530 408 LINE",
"530 -350 LINE",
"702 -350 LINE"
);
}
);
width = 1233;
}
);
note = "\012\011brokenbar\012  ";
unicode = 00A6;
},
{
glyphname = section;
layers = (
{
layerId = "A8E9A3C4-7003-4333-ABE9-545A429BAB07";
name = Regular;
paths = (
{
closed = 1;
nodes = (
"936 1462 LINE",
"883 1481 OFFCURVE",
"827 1497 OFFCURVE",
"780 1506 CURVE SMOOTH",
"738 1514 OFFCURVE",
"679 1520 OFFCURVE",
"629 1520 CURVE SMOOTH",
"524 1520 OFFCURVE",
"431 1494 OFFCURVE",
"364 1442 CURVE SMOOTH",
"299 1391 OFFCURVE",
"264 1317 OFFCURVE",
"264 1230 CURVE SMOOTH",
"264 1184 OFFCURVE",
"274 1144 OFFCURVE",
"294 1106 CURVE SMOOTH",
"313 1069 OFFCURVE",
"343 1035 OFFCURVE",
"383 1006 CURVE",
"322 973 OFFCURVE",
"276 932 OFFCURVE",
"246 886 CURVE SMOOTH",
"215 838 OFFCURVE",
"199 784 OFFCURVE",
"199 724 CURVE SMOOTH",
"199 655 OFFCURVE",
"220 596 OFFCURVE",
"263 545 CURVE SMOOTH",
"318 480 OFFCURVE",
"409 425 OFFCURVE",
"541 348 CURVE SMOOTH",
"565 334 LINE SMOOTH",
"713 248 OFFCURVE",
"786 185 OFFCURVE",
"786 103 CURVE SMOOTH",
"786 61 OFFCURVE",
"767 19 OFFCURVE",
"730 -9 CURVE SMOOTH",
"694 -36 OFFCURVE",
"639 -51 OFFCURVE",
"573 -51 CURVE SMOOTH",
"532 -51 OFFCURVE",
"489 -45 OFFCURVE",
"440 -32 CURVE SMOOTH",
"391 -19 OFFCURVE",
"337 1 OFFCURVE",
"279 27 CURVE",
"279 -137 LINE",
"337 -156 OFFCURVE",
"396 -172 OFFCURVE",
"444 -181 CURVE SMOOTH",
"487 -189 OFFCURVE",
"543 -195 OFFCURVE",
"595 -195 CURVE SMOOTH",
"708 -195 OFFCURVE",
"801 -167 OFFCURVE",
"869 -111 CURVE SMOOTH",
"937 -55 OFFCURVE",
"971 22 OFFCURVE",
"971 111 CURVE SMOOTH",
"971 161 OFFCURVE",
"960 200 OFFCURVE",
"942 234 CURVE SMOOTH",
"923 270 OFFCURVE",
"893 305 OFFCURVE",
"852 340 CURVE",
"914 375 OFFCURVE",
"961 417 OFFCURVE",
"991 463 CURVE SMOOTH",
"1021 510 OFFCURVE",
"1036 563 OFFCURVE",
"1036 622 CURVE SMOOTH",
"1036 693 OFFCURVE",
"1014 750 OFFCURVE",
"970 801 CURVE SMOOTH",
"924 854 OFFCURVE",
"843 914 OFFCURVE",
"694 997 CURVE SMOOTH",
"683 1003 OFFCURVE",
"669 1011 OFFCURVE",
"654 1020 CURVE SMOOTH",
"522 1098 OFFCURVE",
"449 1154 OFFCURVE",
"449 1231 CURVE SMOOTH",
"449 1269 OFFCURVE",
"467 1309 OFFCURVE",
"503 1336 CURVE SMOOTH",
"536 1361 OFFCURVE",
"584 1376 OFFCURVE",
"651 1376 CURVE SMOOTH",
"693 1376 OFFCURVE",
"734 1370 OFFCURVE",
"782 1357 CURVE SMOOTH",
"829 1344 OFFCURVE",
"881 1324 OFFCURVE",
"936 1298 CURVE"
);
},
{
closed = 1;
nodes = (
"648 848 OFFCURVE",
"753 781 OFFCURVE",
"801 736 CURVE SMOOTH",
"843 697 OFFCURVE",
"872 646 OFFCURVE",
"872 592 CURVE SMOOTH",
"872 561 OFFCURVE",
"862 530 OFFCURVE",
"842 500 CURVE SMOOTH",
"822 470 OFFCURVE",
"791 440 OFFCURVE",
"750 410 CURVE",
"571 507 OFFCURVE",
"486 562 OFFCURVE",
"434 611 CURVE SMOOTH",
"386 656 OFFCURVE",
"362 701 OFFCURVE",
"362 753 CURVE SMOOTH",
"362 790 OFFCURVE",
"374 818 OFFCURVE",
"393 846 CURVE SMOOTH",
"412 875 OFFCURVE",
"444 906 OFFCURVE",
"485 936 CURVE"
);
}
);
width = 1233;
}
);
note = "\012\011section\012  ";
unicode = 00A7;
},
{
glyphname = dieresis;
layers = (
{
layerId = "A8E9A3C4-7003-4333-ABE9-545A429BAB07";
name = Regular;
paths = (
{
closed = 1;
nodes = (
"319 1552 LINE",
"319 1350 LINE",
"522 1350 LINE",
"522 1552 LINE"
);
},
{
closed = 1;
nodes = (
"711 1552 LINE",
"711 1350 LINE",
"913 1350 LINE",
"913 1552 LINE"
);
}
);
width = 1233;
}
);
note = "\012\011dieresis\012  ";
unicode = 00A8;
},
{
glyphname = copyright;
layers = (
{
layerId = "A8E9A3C4-7003-4333-ABE9-545A429BAB07";
name = Regular;
paths = (
{
closed = 1;
nodes = (
"864 1071 LINE",
"824 1088 OFFCURVE",
"792 1098 OFFCURVE",
"755 1105 CURVE SMOOTH",
"717 1112 OFFCURVE",
"678 1116 OFFCURVE",
"638 1116 CURVE SMOOTH",
"521 1116 OFFCURVE",
"423 1082 OFFCURVE",
"354 1016 CURVE SMOOTH",
"286 950 OFFCURVE",
"250 854 OFFCURVE",
"250 741 CURVE SMOOTH",
"250 627 OFFCURVE",
"287 533 OFFCURVE",
"353 469 CURVE SMOOTH",
"419 405 OFFCURVE",
"516 369 OFFCURVE",
"638 369 CURVE SMOOTH",
"679 369 OFFCURVE",
"717 373 OFFCURVE",
"755 380 CURVE SMOOTH",
"793 387 OFFCURVE",
"829 399 OFFCURVE",
"864 414 CURVE",
"864 518 LINE",
"833 502 OFFCURVE",
"803 490 OFFCURVE",
"763 480 CURVE SMOOTH",
"730 472 OFFCURVE",
"698 467 OFFCURVE",
"657 467 CURVE SMOOTH",
"567 467 OFFCURVE",
"502 491 OFFCURVE",
"455 538 CURVE SMOOTH",
"408 585 OFFCURVE",
"385 655 OFFCURVE",
"385 739 CURVE SMOOTH",
"385 827 OFFCURVE",
"410 898 OFFCURVE",
"453 945 CURVE SMOOTH",
"500 996 OFFCURVE",
"565 1018 OFFCURVE",
"641 1018 CURVE SMOOTH",
"674 1018 OFFCURVE",
"714 1014 OFFCURVE",
"751 1005 CURVE SMOOTH",
"788 996 OFFCURVE",
"825 982 OFFCURVE",
"864 963 CURVE"
);
},
{
closed = 1;
nodes = (
"687 1255 OFFCURVE",
"753 1243 OFFCURVE",
"814 1218 CURVE SMOOTH",
"874 1193 OFFCURVE",
"929 1156 OFFCURVE",
"979 1106 CURVE SMOOTH",
"1028 1057 OFFCURVE",
"1066 1002 OFFCURVE",
"1092 939 CURVE SMOOTH",
"1117 878 OFFCURVE",
"1130 813 OFFCURVE",
"1130 741 CURVE SMOOTH",
"1130 672 OFFCURVE",
"1118 606 OFFCURVE",
"1093 546 CURVE SMOOTH",
"1068 485 OFFCURVE",
"1024 423 OFFCURVE",
"979 378 CURVE SMOOTH",
"933 332 OFFCURVE",
"876 292 OFFCURVE",
"812 265 CURVE SMOOTH",
"752 240 OFFCURVE",
"688 227 OFFCURVE",
"617 227 CURVE SMOOTH",
"545 227 OFFCURVE",
"481 240 OFFCURVE",
"421 265 CURVE SMOOTH",
"357 292 OFFCURVE",
"298 334 OFFCURVE",
"254 378 CURVE SMOOTH",
"212 420 OFFCURVE",
"170 478 OFFCURVE",
"141 546 CURVE SMOOTH",
"115 608 OFFCURVE",
"102 670 OFFCURVE",
"102 742 CURVE SMOOTH",
"102 813 OFFCURVE",
"115 877 OFFCURVE",
"141 939 CURVE SMOOTH",
"166 1000 OFFCURVE",
"204 1056 OFFCURVE",
"254 1106 CURVE SMOOTH",
"304 1156 OFFCURVE",
"359 1193 OFFCURVE",
"420 1218 CURVE SMOOTH",
"480 1243 OFFCURVE",
"545 1255 OFFCURVE",
"616 1255 CURVE SMOOTH"
);
},
{
closed = 1;
nodes = (
"532 1358 OFFCURVE",
"454 1343 OFFCURVE",
"381 1313 CURVE SMOOTH",
"308 1283 OFFCURVE",
"241 1238 OFFCURVE",
"182 1178 CURVE SMOOTH",
"123 1118 OFFCURVE",
"77 1050 OFFCURVE",
"46 977 CURVE SMOOTH",
"15 904 OFFCURVE",
"0 825 OFFCURVE",
"0 741 CURVE SMOOTH",
"0 653 OFFCURVE",
"16 579 OFFCURVE",
"46 507 CURVE SMOOTH",
"77 434 OFFCURVE",
"123 365 OFFCURVE",
"181 307 CURVE SMOOTH",
"241 247 OFFCURVE",
"311 201 OFFCURVE",
"382 171 CURVE SMOOTH",
"454 141 OFFCURVE",
"528 125 OFFCURVE",
"616 125 CURVE SMOOTH",
"700 125 OFFCURVE",
"778 140 OFFCURVE",
"851 171 CURVE SMOOTH",
"927 203 OFFCURVE",
"997 252 OFFCURVE",
"1052 307 CURVE SMOOTH",
"1111 366 OFFCURVE",
"1158 437 OFFCURVE",
"1188 508 CURVE SMOOTH",
"1218 579 OFFCURVE",
"1233 658 OFFCURVE",
"1233 742 CURVE SMOOTH",
"1233 825 OFFCURVE",
"1218 904 OFFCURVE",
"1187 977 CURVE SMOOTH",
"1158 1045 OFFCURVE",
"1113 1115 OFFCURVE",
"1051 1178 CURVE SMOOTH",
"995 1235 OFFCURVE",
"927 1282 OFFCURVE",
"852 1313 CURVE SMOOTH",
"779 1343 OFFCURVE",
"701 1358 OFFCURVE",
"616 1358 CURVE SMOOTH"
);
}
);
width = 1233;
}
);
note = "\012\011copyright\012  ";
unicode = 00A9;
},
{
glyphname = ordfeminine;
layers = (
{
layerId = "A8E9A3C4-7003-4333-ABE9-545A429BAB07";
name = Regular;
paths = (
{
closed = 1;
nodes = (
"811 1104 LINE",
"811 1075 LINE SMOOTH",
"811 998 OFFCURVE",
"789 936 OFFCURVE",
"746 889 CURVE SMOOTH",
"704 843 OFFCURVE",
"647 817 OFFCURVE",
"576 817 CURVE SMOOTH",
"526 817 OFFCURVE",
"489 830 OFFCURVE",
"460 856 CURVE SMOOTH",
"434 879 OFFCURVE",
"416 910 OFFCURVE",
"416 958 CURVE SMOOTH",
"416 1010 OFFCURVE",
"437 1047 OFFCURVE",
"478 1070 CURVE SMOOTH",
"519 1093 OFFCURVE",
"588 1104 OFFCURVE",
"684 1104 CURVE SMOOTH"
);
},
{
closed = 1;
nodes = (
"954 1165 LINE SMOOTH",
"954 1290 OFFCURVE",
"925 1377 OFFCURVE",
"867 1434 CURVE SMOOTH",
"808 1492 OFFCURVE",
"721 1520 OFFCURVE",
"603 1520 CURVE SMOOTH",
"553 1520 OFFCURVE",
"513 1515 OFFCURVE",
"468 1506 CURVE SMOOTH",
"421 1496 OFFCURVE",
"382 1485 OFFCURVE",
"332 1464 CURVE",
"332 1337 LINE",
"377 1359 OFFCURVE",
"420 1376 OFFCURVE",
"462 1388 CURVE SMOOTH",
"501 1399 OFFCURVE",
"539 1405 OFFCURVE",
"583 1405 CURVE SMOOTH",
"643 1405 OFFCURVE",
"705 1394 OFFCURVE",
"751 1359 CURVE SMOOTH",
"793 1327 OFFCURVE",
"811 1281 OFFCURVE",
"811 1223 CURVE SMOOTH",
"811 1219 LINE",
"629 1219 LINE SMOOTH",
"516 1219 OFFCURVE",
"426 1196 OFFCURVE",
"363 1149 CURVE SMOOTH",
"301 1102 OFFCURVE",
"270 1034 OFFCURVE",
"270 949 CURVE SMOOTH",
"270 873 OFFCURVE",
"295 811 OFFCURVE",
"345 766 CURVE SMOOTH",
"395 721 OFFCURVE",
"464 698 OFFCURVE",
"547 698 CURVE SMOOTH",
"605 698 OFFCURVE",
"653 709 OFFCURVE",
"697 731 CURVE SMOOTH",
"740 753 OFFCURVE",
"778 786 OFFCURVE",
"811 829 CURVE",
"811 717 LINE",
"954 717 LINE"
);
},
{
closed = 1;
nodes = (
"293 592 LINE",
"293 469 LINE",
"961 469 LINE",
"961 592 LINE"
);
}
);
width = 1233;
}
);
note = "\012\011ordfeminine\012  ";
unicode = 00AA;
},
{
glyphname = guillemotleft;
layers = (
{
layerId = "A8E9A3C4-7003-4333-ABE9-545A429BAB07";
name = Regular;
paths = (
{
closed = 1;
nodes = (
"588 1059 LINE",
"119 641 LINE",
"119 559 LINE",
"588 141 LINE",
"588 332 LINE",
"287 600 LINE",
"588 868 LINE"
);
},
{
closed = 1;
nodes = (
"1042 1059 LINE",
"573 641 LINE",
"573 559 LINE",
"1042 141 LINE",
"1042 332 LINE",
"741 600 LINE",
"1042 868 LINE"
);
}
);
width = 1233;
}
);
note = "\012\011guillemotleft\012  ";
unicode = 00AB;
},
{
glyphname = logicalnot;
layers = (
{
layerId = "A8E9A3C4-7003-4333-ABE9-545A429BAB07";
name = Regular;
paths = (
{
closed = 1;
nodes = (
"88 862 LINE",
"88 690 LINE",
"977 690 LINE",
"977 371 LINE",
"1145 371 LINE",
"1145 862 LINE"
);
}
);
width = 1233;
}
);
note = "\012\011logicalnot\012  ";
unicode = 00AC;
},
{
glyphname = sfthyphen;
layers = (
{
layerId = "A8E9A3C4-7003-4333-ABE9-545A429BAB07";
name = Regular;
paths = (
{
closed = 1;
nodes = (
"356 643 LINE",
"356 479 LINE",
"877 479 LINE",
"877 643 LINE"
);
}
);
width = 1233;
}
);
note = "\012\011sfthyphen\012  ";
unicode = 00AD;
},
{
glyphname = registered;
layers = (
{
layerId = "A8E9A3C4-7003-4333-ABE9-545A429BAB07";
name = Regular;
paths = (
{
closed = 1;
nodes = (
"362 1100 LINE",
"362 406 LINE",
"492 406 LINE",
"492 702 LINE",
"547 702 LINE SMOOTH",
"577 702 OFFCURVE",
"605 694 OFFCURVE",
"623 681 CURVE SMOOTH",
"642 668 OFFCURVE",
"670 632 OFFCURVE",
"702 580 CURVE SMOOTH",
"809 406 LINE",
"952 406 LINE",
"838 592 LINE SMOOTH",
"822 618 OFFCURVE",
"788 665 OFFCURVE",
"771 685 CURVE SMOOTH",
"753 706 OFFCURVE",
"736 720 OFFCURVE",
"723 723 CURVE",
"776 732 OFFCURVE",
"818 753 OFFCURVE",
"847 784 CURVE SMOOTH",
"876 815 OFFCURVE",
"891 853 OFFCURVE",
"891 903 CURVE SMOOTH",
"891 967 OFFCURVE",
"867 1018 OFFCURVE",
"819 1051 CURVE SMOOTH",
"771 1084 OFFCURVE",
"698 1100 OFFCURVE",
"600 1100 CURVE SMOOTH"
);
},
{
closed = 1;
nodes = (
"594 1016 LINE SMOOTH",
"654 1016 OFFCURVE",
"696 1007 OFFCURVE",
"721 990 CURVE SMOOTH",
"748 971 OFFCURVE",
"758 938 OFFCURVE",
"758 900 CURVE SMOOTH",
"758 859 OFFCURVE",
"746 829 OFFCURVE",
"721 811 CURVE SMOOTH",
"696 793 OFFCURVE",
"654 784 OFFCURVE",
"594 784 CURVE SMOOTH",
"492 784 LINE",
"492 1016 LINE"
);
},
{
closed = 1;
nodes = (
"532 1358 OFFCURVE",
"454 1343 OFFCURVE",
"381 1313 CURVE SMOOTH",
"308 1283 OFFCURVE",
"241 1238 OFFCURVE",
"182 1178 CURVE SMOOTH",
"123 1118 OFFCURVE",
"77 1050 OFFCURVE",
"46 977 CURVE SMOOTH",
"15 904 OFFCURVE",
"0 825 OFFCURVE",
"0 741 CURVE SMOOTH",
"0 653 OFFCURVE",
"16 579 OFFCURVE",
"46 507 CURVE SMOOTH",
"77 434 OFFCURVE",
"123 365 OFFCURVE",
"181 307 CURVE SMOOTH",
"241 247 OFFCURVE",
"311 201 OFFCURVE",
"382 171 CURVE SMOOTH",
"454 141 OFFCURVE",
"528 125 OFFCURVE",
"616 125 CURVE SMOOTH",
"700 125 OFFCURVE",
"778 140 OFFCURVE",
"851 171 CURVE SMOOTH",
"927 203 OFFCURVE",
"997 252 OFFCURVE",
"1052 307 CURVE SMOOTH",
"1111 366 OFFCURVE",
"1158 437 OFFCURVE",
"1188 508 CURVE SMOOTH",
"1218 579 OFFCURVE",
"1233 658 OFFCURVE",
"1233 742 CURVE SMOOTH",
"1233 825 OFFCURVE",
"1218 904 OFFCURVE",
"1187 977 CURVE SMOOTH",
"1158 1045 OFFCURVE",
"1113 1115 OFFCURVE",
"1051 1178 CURVE SMOOTH",
"995 1235 OFFCURVE",
"927 1282 OFFCURVE",
"852 1313 CURVE SMOOTH",
"779 1343 OFFCURVE",
"701 1358 OFFCURVE",
"616 1358 CURVE SMOOTH"
);
},
{
closed = 1;
nodes = (
"687 1255 OFFCURVE",
"753 1243 OFFCURVE",
"814 1218 CURVE SMOOTH",
"874 1193 OFFCURVE",
"929 1156 OFFCURVE",
"979 1106 CURVE SMOOTH",
"1028 1057 OFFCURVE",
"1066 1002 OFFCURVE",
"1092 939 CURVE SMOOTH",
"1117 878 OFFCURVE",
"1130 813 OFFCURVE",
"1130 741 CURVE SMOOTH",
"1130 672 OFFCURVE",
"1118 606 OFFCURVE",
"1093 546 CURVE SMOOTH",
"1068 485 OFFCURVE",
"1024 423 OFFCURVE",
"979 378 CURVE SMOOTH",
"933 332 OFFCURVE",
"876 292 OFFCURVE",
"812 265 CURVE SMOOTH",
"752 240 OFFCURVE",
"688 227 OFFCURVE",
"617 227 CURVE SMOOTH",
"545 227 OFFCURVE",
"481 240 OFFCURVE",
"421 265 CURVE SMOOTH",
"357 292 OFFCURVE",
"298 334 OFFCURVE",
"254 378 CURVE SMOOTH",
"212 420 OFFCURVE",
"170 478 OFFCURVE",
"141 546 CURVE SMOOTH",
"115 608 OFFCURVE",
"102 670 OFFCURVE",
"102 742 CURVE SMOOTH",
"102 813 OFFCURVE",
"115 877 OFFCURVE",
"141 939 CURVE SMOOTH",
"166 1000 OFFCURVE",
"204 1056 OFFCURVE",
"254 1106 CURVE SMOOTH",
"304 1156 OFFCURVE",
"359 1193 OFFCURVE",
"420 1218 CURVE SMOOTH",
"480 1243 OFFCURVE",
"545 1255 OFFCURVE",
"616 1255 CURVE SMOOTH"
);
}
);
width = 1233;
}
);
note = "\012\011registered\012  ";
unicode = 00AE;
},
{
glyphname = macron;
layers = (
{
layerId = "A8E9A3C4-7003-4333-ABE9-545A429BAB07";
name = Regular;
paths = (
{
closed = 1;
nodes = (
"317 1526 LINE",
"317 1378 LINE",
"915 1378 LINE",
"915 1526 LINE"
);
}
);
width = 1233;
}
);
note = "\012\011macron\012  ";
unicode = 00AF;
},
{
glyphname = degree;
layers = (
{
layerId = "A8E9A3C4-7003-4333-ABE9-545A429BAB07";
name = Regular;
paths = (
{
closed = 1;
nodes = (
"526 1520 OFFCURVE",
"447 1485 OFFCURVE",
"390 1427 CURVE SMOOTH",
"332 1368 OFFCURVE",
"299 1288 OFFCURVE",
"299 1199 CURVE SMOOTH",
"299 1106 OFFCURVE",
"335 1028 OFFCURVE",
"388 975 CURVE SMOOTH",
"448 915 OFFCURVE",
"528 885 OFFCURVE",
"612 885 CURVE SMOOTH",
"702 885 OFFCURVE",
"785 920 OFFCURVE",
"842 976 CURVE SMOOTH",
"900 1033 OFFCURVE",
"934 1115 OFFCURVE",
"934 1202 CURVE SMOOTH",
"934 1244 OFFCURVE",
"926 1286 OFFCURVE",
"911 1322 CURVE SMOOTH",
"897 1355 OFFCURVE",
"875 1392 OFFCURVE",
"843 1425 CURVE SMOOTH",
"817 1452 OFFCURVE",
"778 1480 OFFCURVE",
"740 1496 CURVE SMOOTH",
"700 1513 OFFCURVE",
"655 1520 OFFCURVE",
"615 1520 CURVE SMOOTH"
);
},
{
closed = 1;
nodes = (
"672 1391 OFFCURVE",
"720 1367 OFFCURVE",
"751 1336 CURVE SMOOTH",
"787 1300 OFFCURVE",
"807 1251 OFFCURVE",
"807 1201 CURVE SMOOTH",
"807 1155 OFFCURVE",
"790 1105 OFFCURVE",
"752 1067 CURVE SMOOTH",
"719 1034 OFFCURVE",
"668 1012 OFFCURVE",
"614 1012 CURVE SMOOTH",
"564 1012 OFFCURVE",
"517 1030 OFFCURVE",
"481 1065 CURVE SMOOTH",
"447 1099 OFFCURVE",
"426 1145 OFFCURVE",
"426 1199 CURVE SMOOTH",
"426 1251 OFFCURVE",
"446 1301 OFFCURVE",
"482 1337 CURVE SMOOTH",
"515 1370 OFFCURVE",
"563 1391 OFFCURVE",
"616 1391 CURVE SMOOTH"
);
}
);
width = 1233;
}
);
note = "\012\011degree\012  ";
unicode = 00B0;
},
{
glyphname = plusminus;
layers = (
{
layerId = "A8E9A3C4-7003-4333-ABE9-545A429BAB07";
name = Regular;
paths = (
{
closed = 1;
nodes = (
"88 170 LINE",
"88 0 LINE",
"1145 0 LINE",
"1145 170 LINE"
);
},
{
closed = 1;
nodes = (
"700 1171 LINE",
"532 1171 LINE",
"532 842 LINE",
"88 842 LINE",
"88 672 LINE",
"532 672 LINE",
"532 340 LINE",
"700 340 LINE",
"700 672 LINE",
"1145 672 LINE",
"1145 842 LINE",
"700 842 LINE"
);
}
);
width = 1233;
}
);
note = "\012\011plusminus\012  ";
unicode = 00B1;
},
{
glyphname = twosuperior;
layers = (
{
layerId = "A8E9A3C4-7003-4333-ABE9-545A429BAB07";
name = Regular;
paths = (
{
closed = 1;
nodes = (
"483 782 LINE",
"694 987 LINE SMOOTH",
"770 1061 OFFCURVE",
"820 1118 OFFCURVE",
"850 1165 CURVE SMOOTH",
"873 1201 OFFCURVE",
"887 1235 OFFCURVE",
"887 1282 CURVE SMOOTH",
"887 1348 OFFCURVE",
"859 1409 OFFCURVE",
"801 1454 CURVE SMOOTH",
"744 1498 OFFCURVE",
"667 1520 OFFCURVE",
"576 1520 CURVE SMOOTH",
"533 1520 OFFCURVE",
"494 1515 OFFCURVE",
"454 1506 CURVE SMOOTH",
"413 1497 OFFCURVE",
"374 1484 OFFCURVE",
"328 1464 CURVE",
"328 1339 LINE",
"370 1363 OFFCURVE",
"410 1381 OFFCURVE",
"448 1393 CURVE SMOOTH",
"485 1405 OFFCURVE",
"519 1411 OFFCURVE",
"555 1411 CURVE SMOOTH",
"607 1411 OFFCURVE",
"652 1398 OFFCURVE",
"685 1373 CURVE SMOOTH",
"718 1348 OFFCURVE",
"735 1315 OFFCURVE",
"735 1275 CURVE SMOOTH",
"735 1240 OFFCURVE",
"722 1203 OFFCURVE",
"695 1162 CURVE SMOOTH",
"668 1122 OFFCURVE",
"636 1085 OFFCURVE",
"553 1004 CURVE SMOOTH",
"322 778 LINE",
"322 668 LINE",
"893 668 LINE",
"893 782 LINE"
);
}
);
width = 1233;
}
);
note = "\012\011twosuperior\012  ";
unicode = 00B2;
},
{
glyphname = threesuperior;
layers = (
{
layerId = "A8E9A3C4-7003-4333-ABE9-545A429BAB07";
name = Regular;
paths = (
{
closed = 1;
nodes = (
"787 1133 OFFCURVE",
"830 1155 OFFCURVE",
"859 1186 CURVE SMOOTH",
"888 1217 OFFCURVE",
"903 1256 OFFCURVE",
"903 1304 CURVE SMOOTH",
"903 1369 OFFCURVE",
"875 1422 OFFCURVE",
"819 1461 CURVE SMOOTH",
"763 1500 OFFCURVE",
"686 1520 OFFCURVE",
"592 1520 CURVE SMOOTH",
"556 1520 OFFCURVE",
"521 1517 OFFCURVE",
"482 1511 CURVE SMOOTH",
"443 1505 OFFCURVE",
"400 1496 OFFCURVE",
"354 1485 CURVE",
"354 1364 LINE",
"393 1379 OFFCURVE",
"432 1391 OFFCURVE",
"469 1399 CURVE SMOOTH",
"506 1407 OFFCURVE",
"538 1411 OFFCURVE",
"572 1411 CURVE SMOOTH",
"625 1411 OFFCURVE",
"672 1401 OFFCURVE",
"704 1380 CURVE SMOOTH",
"735 1360 OFFCURVE",
"752 1331 OFFCURVE",
"752 1291 CURVE SMOOTH",
"752 1253 OFFCURVE",
"736 1222 OFFCURVE",
"703 1201 CURVE SMOOTH",
"670 1180 OFFCURVE",
"623 1169 OFFCURVE",
"561 1169 CURVE SMOOTH",
"487 1169 LINE",
"487 1061 LINE",
"553 1061 LINE SMOOTH",
"626 1061 OFFCURVE",
"680 1048 OFFCURVE",
"717 1023 CURVE SMOOTH",
"752 999 OFFCURVE",
"772 962 OFFCURVE",
"772 915 CURVE SMOOTH",
"772 864 OFFCURVE",
"749 827 OFFCURVE",
"714 803 CURVE SMOOTH",
"674 776 OFFCURVE",
"618 762 OFFCURVE",
"556 762 CURVE SMOOTH",
"523 762 OFFCURVE",
"489 766 OFFCURVE",
"452 775 CURVE SMOOTH",
"414 784 OFFCURVE",
"372 797 OFFCURVE",
"326 815 CURVE",
"326 694 LINE",
"366 681 OFFCURVE",
"399 672 OFFCURVE",
"442 664 CURVE SMOOTH",
"480 657 OFFCURVE",
"515 653 OFFCURVE",
"562 653 CURVE SMOOTH",
"672 653 OFFCURVE",
"766 675 OFFCURVE",
"829 720 CURVE SMOOTH",
"892 765 OFFCURVE",
"924 829 OFFCURVE",
"924 909 CURVE SMOOTH",
"924 965 OFFCURVE",
"908 1009 OFFCURVE",
"875 1045 CURVE SMOOTH",
"842 1081 OFFCURVE",
"794 1106 OFFCURVE",
"731 1120 CURVE"
);
}
);
width = 1233;
}
);
note = "\012\011threesuperior\012  ";
unicode = 00B3;
},
{
glyphname = acute;
layers = (
{
layerId = "A8E9A3C4-7003-4333-ABE9-545A429BAB07";
name = Regular;
paths = (
{
closed = 1;
nodes = (
"756 1638 LINE",
"475 1262 LINE",
"629 1262 LINE",
"954 1638 LINE"
);
}
);
width = 1233;
}
);
note = "\012\011acute\012  ";
unicode = 00B4;
},
{
glyphname = mu;
layers = (
{
layerId = "A8E9A3C4-7003-4333-ABE9-545A429BAB07";
name = Regular;
paths = (
{
closed = 1;
nodes = (
"195 -428 LINE",
"362 -428 LINE",
"362 127 LINE",
"391 74 OFFCURVE",
"426 35 OFFCURVE",
"470 9 CURVE SMOOTH",
"512 -16 OFFCURVE",
"565 -29 OFFCURVE",
"624 -29 CURVE SMOOTH",
"683 -29 OFFCURVE",
"737 -16 OFFCURVE",
"781 10 CURVE SMOOTH",
"825 36 OFFCURVE",
"862 76 OFFCURVE",
"893 129 CURVE",
"901 76 OFFCURVE",
"918 37 OFFCURVE",
"943 11 CURVE SMOOTH",
"968 -16 OFFCURVE",
"1001 -29 OFFCURVE",
"1042 -29 CURVE SMOOTH",
"1065 -29 OFFCURVE",
"1087 -25 OFFCURVE",
"1110 -18 CURVE SMOOTH",
"1131 -12 OFFCURVE",
"1157 1 OFFCURVE",
"1182 16 CURVE",
"1182 164 LINE",
"1163 155 OFFCURVE",
"1149 149 OFFCURVE",
"1140 146 CURVE SMOOTH",
"1131 143 OFFCURVE",
"1122 141 OFFCURVE",
"1113 141 CURVE SMOOTH",
"1095 141 OFFCURVE",
"1078 150 OFFCURVE",
"1067 169 CURVE SMOOTH",
"1056 188 OFFCURVE",
"1051 217 OFFCURVE",
"1051 256 CURVE SMOOTH",
"1051 1120 LINE",
"866 1120 LINE",
"866 467 LINE SMOOTH",
"866 356 OFFCURVE",
"845 273 OFFCURVE",
"802 216 CURVE SMOOTH",
"759 159 OFFCURVE",
"694 131 OFFCURVE",
"612 131 CURVE SMOOTH",
"535 131 OFFCURVE",
"479 156 OFFCURVE",
"439 207 CURVE SMOOTH",
"402 254 OFFCURVE",
"379 321 OFFCURVE",
"379 424 CURVE SMOOTH",
"379 1120 LINE",
"195 1120 LINE"
);
}
);
width = 1233;
}
);
note = "\012\011mu\012  ";
unicode = 00B5;
},
{
glyphname = paragraph;
layers = (
{
layerId = "A8E9A3C4-7003-4333-ABE9-545A429BAB07";
name = Regular;
paths = (
{
closed = 1;
nodes = (
"582 1493 LINE SMOOTH",
"439 1493 OFFCURVE",
"324 1454 OFFCURVE",
"237 1377 CURVE SMOOTH",
"150 1300 OFFCURVE",
"106 1199 OFFCURVE",
"106 1070 CURVE SMOOTH",
"106 943 OFFCURVE",
"148 848 OFFCURVE",
"224 777 CURVE SMOOTH",
"303 703 OFFCURVE",
"414 660 OFFCURVE",
"557 649 CURVE",
"557 -197 LINE",
"698 -197 LINE",
"698 1370 LINE",
"889 1370 LINE",
"889 -197 LINE",
"1030 -197 LINE",
"1030 1493 LINE"
);
}
);
width = 1233;
}
);
note = "\012\011paragraph\012  ";
unicode = 00B6;
},
{
glyphname = cedilla;
layers = (
{
layerId = "A8E9A3C4-7003-4333-ABE9-545A429BAB07";
name = Regular;
paths = (
{
closed = 1;
nodes = (
"582 0 LINE",
"611 -41 OFFCURVE",
"633 -76 OFFCURVE",
"648 -105 CURVE SMOOTH",
"663 -134 OFFCURVE",
"670 -157 OFFCURVE",
"670 -180 CURVE SMOOTH",
"670 -208 OFFCURVE",
"660 -232 OFFCURVE",
"640 -248 CURVE SMOOTH",
"619 -265 OFFCURVE",
"588 -272 OFFCURVE",
"546 -272 CURVE SMOOTH",
"523 -272 OFFCURVE",
"492 -270 OFFCURVE",
"467 -265 CURVE SMOOTH",
"442 -260 OFFCURVE",
"418 -251 OFFCURVE",
"395 -240 CURVE",
"395 -371 LINE",
"424 -379 OFFCURVE",
"454 -385 OFFCURVE",
"483 -389 CURVE SMOOTH",
"512 -393 OFFCURVE",
"541 -395 OFFCURVE",
"570 -395 CURVE SMOOTH",
"652 -395 OFFCURVE",
"711 -379 OFFCURVE",
"749 -350 CURVE SMOOTH",
"789 -319 OFFCURVE",
"809 -272 OFFCURVE",
"809 -219 CURVE SMOOTH",
"809 -179 OFFCURVE",
"798 -145 OFFCURVE",
"783 -115 CURVE SMOOTH",
"765 -80 OFFCURVE",
"737 -41 OFFCURVE",
"700 0 CURVE"
);
}
);
width = 1233;
}
);
note = "\012\011cedilla\012  ";
unicode = 00B8;
},
{
glyphname = onesuperior;
layers = (
{
layerId = "A8E9A3C4-7003-4333-ABE9-545A429BAB07";
name = Regular;
paths = (
{
closed = 1;
nodes = (
"362 778 LINE",
"362 668 LINE",
"915 668 LINE",
"915 778 LINE",
"711 778 LINE",
"711 1503 LINE",
"573 1503 LINE",
"344 1464 LINE",
"344 1348 LINE",
"567 1389 LINE",
"567 778 LINE"
);
}
);
width = 1233;
}
);
note = "\012\011onesuperior\012  ";
unicode = 00B9;
},
{
glyphname = ordmasculine;
layers = (
{
layerId = "A8E9A3C4-7003-4333-ABE9-545A429BAB07";
name = Regular;
paths = (
{
closed = 1;
nodes = (
"688 1403 OFFCURVE",
"741 1374 OFFCURVE",
"777 1325 CURVE SMOOTH",
"815 1273 OFFCURVE",
"834 1201 OFFCURVE",
"834 1110 CURVE SMOOTH",
"834 1013 OFFCURVE",
"812 941 OFFCURVE",
"776 893 CURVE SMOOTH",
"737 841 OFFCURVE",
"681 815 OFFCURVE",
"616 815 CURVE SMOOTH",
"550 815 OFFCURVE",
"495 841 OFFCURVE",
"457 891 CURVE SMOOTH",
"418 943 OFFCURVE",
"399 1017 OFFCURVE",
"399 1108 CURVE SMOOTH",
"399 1199 OFFCURVE",
"418 1273 OFFCURVE",
"457 1326 CURVE SMOOTH",
"497 1379 OFFCURVE",
"552 1403 OFFCURVE",
"617 1403 CURVE SMOOTH"
);
},
{
closed = 1;
nodes = (
"500 1520 OFFCURVE",
"409 1479 OFFCURVE",
"345 1408 CURVE SMOOTH",
"278 1333 OFFCURVE",
"244 1230 OFFCURVE",
"244 1108 CURVE SMOOTH",
"244 978 OFFCURVE",
"283 877 OFFCURVE",
"345 809 CURVE SMOOTH",
"404 744 OFFCURVE",
"492 698 OFFCURVE",
"616 698 CURVE SMOOTH",
"736 698 OFFCURVE",
"827 741 OFFCURVE",
"889 810 CURVE SMOOTH",
"955 884 OFFCURVE",
"989 986 OFFCURVE",
"989 1107 CURVE SMOOTH",
"989 1237 OFFCURVE",
"950 1340 OFFCURVE",
"889 1408 CURVE SMOOTH",
"827 1477 OFFCURVE",
"734 1520 OFFCURVE",
"616 1520 CURVE SMOOTH"
);
},
{
closed = 1;
nodes = (
"276 592 LINE",
"276 469 LINE",
"952 469 LINE",
"952 592 LINE"
);
}
);
width = 1233;
}
);
note = "\012\011ordmasculine\012  ";
unicode = 00BA;
},
{
glyphname = guillemotright;
layers = (
{
layerId = "A8E9A3C4-7003-4333-ABE9-545A429BAB07";
name = Regular;
paths = (
{
closed = 1;
nodes = (
"647 1059 LINE",
"647 868 LINE",
"948 600 LINE",
"647 332 LINE",
"647 141 LINE",
"1116 559 LINE",
"1116 641 LINE"
);
},
{
closed = 1;
nodes = (
"193 1059 LINE",
"193 868 LINE",
"494 600 LINE",
"193 332 LINE",
"193 141 LINE",
"662 559 LINE",
"662 641 LINE"
);
}
);
width = 1233;
}
);
note = "\012\011guillemotright\012  ";
unicode = 00BB;
},
{
glyphname = onequarter;
layers = (
{
layerId = "A8E9A3C4-7003-4333-ABE9-545A429BAB07";
name = Regular;
paths = (
{
closed = 1;
nodes = (
"104 934 LINE",
"104 824 LINE",
"657 824 LINE",
"657 934 LINE",
"453 934 LINE",
"453 1659 LINE",
"315 1659 LINE",
"86 1620 LINE",
"86 1504 LINE",
"309 1545 LINE",
"309 934 LINE"
);
},
{
closed = 1;
nodes = (
"51 504 LINE",
"1114 766 LINE",
"1087 874 LINE",
"27 612 LINE"
);
},
{
closed = 1;
nodes = (
"815 565 LINE",
"452 37 LINE",
"452 -84 LINE",
"839 -84 LINE",
"839 -270 LINE",
"977 -270 LINE",
"977 -84 LINE",
"1093 -84 LINE",
"1093 27 LINE",
"977 27 LINE",
"977 565 LINE"
);
},
{
closed = 1;
nodes = (
"839 440 LINE",
"839 27 LINE",
"565 27 LINE"
);
}
);
width = 1233;
}
);
note = "\012\011onequarter\012  ";
unicode = 00BC;
},
{
glyphname = onehalf;
layers = (
{
layerId = "A8E9A3C4-7003-4333-ABE9-545A429BAB07";
name = Regular;
paths = (
{
closed = 1;
nodes = (
"104 934 LINE",
"104 824 LINE",
"657 824 LINE",
"657 934 LINE",
"453 934 LINE",
"453 1659 LINE",
"315 1659 LINE",
"86 1620 LINE",
"86 1504 LINE",
"309 1545 LINE",
"309 934 LINE"
);
},
{
closed = 1;
nodes = (
"51 504 LINE",
"1114 766 LINE",
"1087 874 LINE",
"27 612 LINE"
);
},
{
closed = 1;
nodes = (
"684 -156 LINE",
"895 49 LINE SMOOTH",
"971 123 OFFCURVE",
"1021 180 OFFCURVE",
"1051 227 CURVE SMOOTH",
"1074 263 OFFCURVE",
"1088 297 OFFCURVE",
"1088 344 CURVE SMOOTH",
"1088 410 OFFCURVE",
"1060 471 OFFCURVE",
"1002 516 CURVE SMOOTH",
"945 560 OFFCURVE",
"868 582 OFFCURVE",
"777 582 CURVE SMOOTH",
"734 582 OFFCURVE",
"695 577 OFFCURVE",
"655 568 CURVE SMOOTH",
"614 559 OFFCURVE",
"575 546 OFFCURVE",
"529 526 CURVE",
"529 401 LINE",
"571 425 OFFCURVE",
"611 443 OFFCURVE",
"649 455 CURVE SMOOTH",
"686 467 OFFCURVE",
"720 473 OFFCURVE",
"756 473 CURVE SMOOTH",
"808 473 OFFCURVE",
"853 460 OFFCURVE",
"886 435 CURVE SMOOTH",
"919 410 OFFCURVE",
"936 377 OFFCURVE",
"936 337 CURVE SMOOTH",
"936 302 OFFCURVE",
"923 265 OFFCURVE",
"896 224 CURVE SMOOTH",
"869 184 OFFCURVE",
"837 147 OFFCURVE",
"754 66 CURVE SMOOTH",
"523 -160 LINE",
"523 -270 LINE",
"1094 -270 LINE",
"1094 -156 LINE"
);
}
);
width = 1233;
}
);
note = "\012\011onehalf\012  ";
unicode = 00BD;
},
{
glyphname = threequarters;
layers = (
{
layerId = "A8E9A3C4-7003-4333-ABE9-545A429BAB07";
name = Regular;
paths = (
{
closed = 1;
nodes = (
"560 1289 OFFCURVE",
"603 1311 OFFCURVE",
"632 1342 CURVE SMOOTH",
"661 1373 OFFCURVE",
"676 1412 OFFCURVE",
"676 1460 CURVE SMOOTH",
"676 1525 OFFCURVE",
"648 1578 OFFCURVE",
"592 1617 CURVE SMOOTH",
"536 1656 OFFCURVE",
"459 1676 OFFCURVE",
"365 1676 CURVE SMOOTH",
"329 1676 OFFCURVE",
"294 1673 OFFCURVE",
"255 1667 CURVE SMOOTH",
"216 1661 OFFCURVE",
"173 1652 OFFCURVE",
"127 1641 CURVE",
"127 1520 LINE",
"166 1535 OFFCURVE",
"205 1547 OFFCURVE",
"242 1555 CURVE SMOOTH",
"279 1563 OFFCURVE",
"311 1567 OFFCURVE",
"345 1567 CURVE SMOOTH",
"398 1567 OFFCURVE",
"445 1557 OFFCURVE",
"477 1536 CURVE SMOOTH",
"508 1516 OFFCURVE",
"525 1487 OFFCURVE",
"525 1447 CURVE SMOOTH",
"525 1409 OFFCURVE",
"509 1378 OFFCURVE",
"476 1357 CURVE SMOOTH",
"443 1336 OFFCURVE",
"396 1325 OFFCURVE",
"334 1325 CURVE SMOOTH",
"260 1325 LINE",
"260 1217 LINE",
"326 1217 LINE SMOOTH",
"399 1217 OFFCURVE",
"453 1204 OFFCURVE",
"490 1179 CURVE SMOOTH",
"525 1155 OFFCURVE",
"545 1118 OFFCURVE",
"545 1071 CURVE SMOOTH",
"545 1020 OFFCURVE",
"522 983 OFFCURVE",
"487 959 CURVE SMOOTH",
"447 932 OFFCURVE",
"391 918 OFFCURVE",
"329 918 CURVE SMOOTH",
"296 918 OFFCURVE",
"262 922 OFFCURVE",
"225 931 CURVE SMOOTH",
"187 940 OFFCURVE",
"145 953 OFFCURVE",
"99 971 CURVE",
"99 850 LINE",
"139 837 OFFCURVE",
"172 828 OFFCURVE",
"215 820 CURVE SMOOTH",
"253 813 OFFCURVE",
"288 809 OFFCURVE",
"335 809 CURVE SMOOTH",
"445 809 OFFCURVE",
"539 831 OFFCURVE",
"602 876 CURVE SMOOTH",
"665 921 OFFCURVE",
"697 985 OFFCURVE",
"697 1065 CURVE SMOOTH",
"697 1121 OFFCURVE",
"681 1165 OFFCURVE",
"648 1201 CURVE SMOOTH",
"615 1237 OFFCURVE",
"567 1262 OFFCURVE",
"504 1276 CURVE"
);
},
{
closed = 1;
nodes = (
"51 504 LINE",
"1114 766 LINE",
"1087 874 LINE",
"27 612 LINE"
);
},
{
closed = 1;
nodes = (
"815 565 LINE",
"452 37 LINE",
"452 -84 LINE",
"839 -84 LINE",
"839 -270 LINE",
"977 -270 LINE",
"977 -84 LINE",
"1093 -84 LINE",
"1093 27 LINE",
"977 27 LINE",
"977 565 LINE"
);
},
{
closed = 1;
nodes = (
"839 440 LINE",
"839 27 LINE",
"565 27 LINE"
);
}
);
width = 1233;
}
);
note = "\012\011threequarters\012  ";
unicode = 00BE;
},
{
glyphname = questiondown;
layers = (
{
layerId = "A8E9A3C4-7003-4333-ABE9-545A429BAB07";
name = Regular;
paths = (
{
closed = 1;
nodes = (
"549 1092 LINE",
"549 969 LINE SMOOTH",
"549 956 OFFCURVE",
"548 942 OFFCURVE",
"547 927 CURVE",
"547 922 LINE SMOOTH",
"547 880 OFFCURVE",
"541 845 OFFCURVE",
"528 817 CURVE SMOOTH",
"513 784 OFFCURVE",
"481 749 OFFCURVE",
"442 711 CURVE SMOOTH",
"354 625 LINE SMOOTH",
"289 562 OFFCURVE",
"250 512 OFFCURVE",
"227 468 CURVE SMOOTH",
"204 424 OFFCURVE",
"193 379 OFFCURVE",
"193 324 CURVE SMOOTH",
"193 219 OFFCURVE",
"233 130 OFFCURVE",
"304 68 CURVE SMOOTH",
"377 5 OFFCURVE",
"478 -27 OFFCURVE",
"602 -27 CURVE SMOOTH",
"667 -27 OFFCURVE",
"736 -18 OFFCURVE",
"800 1 CURVE SMOOTH",
"863 20 OFFCURVE",
"926 48 OFFCURVE",
"989 86 CURVE",
"989 274 LINE",
"924 229 OFFCURVE",
"861 195 OFFCURVE",
"802 172 CURVE SMOOTH",
"743 149 OFFCURVE",
"689 137 OFFCURVE",
"633 137 CURVE SMOOTH",
"565 137 OFFCURVE",
"504 155 OFFCURVE",
"460 192 CURVE SMOOTH",
"422 224 OFFCURVE",
"395 273 OFFCURVE",
"395 336 CURVE SMOOTH",
"395 368 OFFCURVE",
"402 397 OFFCURVE",
"419 429 CURVE SMOOTH",
"436 460 OFFCURVE",
"451 480 OFFCURVE",
"504 532 CURVE SMOOTH",
"594 621 LINE SMOOTH",
"650 676 OFFCURVE",
"689 727 OFFCURVE",
"709 772 CURVE SMOOTH",
"729 817 OFFCURVE",
"739 873 OFFCURVE",
"739 938 CURVE SMOOTH",
"739 1092 LINE"
);
},
{
closed = 1;
nodes = (
"745 1239 LINE",
"745 1493 LINE",
"543 1493 LINE",
"543 1239 LINE"
);
}
);
width = 1233;
}
);
note = "\012\011questiondown\012  ";
unicode = 00BF;
},
{
glyphname = Agrave;
layers = (
{
layerId = "A8E9A3C4-7003-4333-ABE9-545A429BAB07";
name = Regular;
paths = (
{
closed = 1;
nodes = (
"616 1315 LINE",
"829 551 LINE",
"403 551 LINE"
);
},
{
closed = 1;
nodes = (
"494 1493 LINE",
"37 0 LINE",
"246 0 LINE",
"354 389 LINE",
"877 389 LINE",
"987 0 LINE",
"1196 0 LINE",
"739 1493 LINE"
);
},
{
closed = 1;
nodes = (
"561 1899 LINE",
"377 1899 LINE",
"604 1635 LINE",
"758 1635 LINE"
);
}
);
width = 1233;
}
);
note = "\012\011Agrave\012  ";
unicode = 00C0;
},
{
glyphname = Aacute;
layers = (
{
layerId = "A8E9A3C4-7003-4333-ABE9-545A429BAB07";
name = Regular;
paths = (
{
closed = 1;
nodes = (
"616 1315 LINE",
"829 551 LINE",
"403 551 LINE"
);
},
{
closed = 1;
nodes = (
"494 1493 LINE",
"37 0 LINE",
"246 0 LINE",
"354 389 LINE",
"877 389 LINE",
"987 0 LINE",
"1196 0 LINE",
"739 1493 LINE"
);
},
{
closed = 1;
nodes = (
"672 1899 LINE",
"475 1635 LINE",
"629 1635 LINE",
"858 1899 LINE"
);
}
);
width = 1233;
}
);
note = "\012\011Aacute\012  ";
unicode = 00C1;
},
{
glyphname = Acircumflex;
layers = (
{
layerId = "A8E9A3C4-7003-4333-ABE9-545A429BAB07";
name = Regular;
paths = (
{
closed = 1;
nodes = (
"616 1315 LINE",
"829 551 LINE",
"403 551 LINE"
);
},
{
closed = 1;
nodes = (
"494 1493 LINE",
"37 0 LINE",
"246 0 LINE",
"354 389 LINE",
"877 389 LINE",
"987 0 LINE",
"1196 0 LINE",
"739 1493 LINE"
);
},
{
closed = 1;
nodes = (
"522 1901 LINE",
"311 1635 LINE",
"451 1635 LINE",
"616 1813 LINE",
"782 1635 LINE",
"922 1635 LINE",
"711 1901 LINE"
);
}
);
width = 1233;
}
);
note = "\012\011Acircumflex\012  ";
unicode = 00C2;
},
{
glyphname = Atilde;
layers = (
{
layerId = "A8E9A3C4-7003-4333-ABE9-545A429BAB07";
name = Regular;
paths = (
{
closed = 1;
nodes = (
"616 1315 LINE",
"829 551 LINE",
"403 551 LINE"
);
},
{
closed = 1;
nodes = (
"494 1493 LINE",
"37 0 LINE",
"246 0 LINE",
"354 389 LINE",
"877 389 LINE",
"987 0 LINE",
"1196 0 LINE",
"739 1493 LINE"
);
},
{
closed = 1;
nodes = (
"612 1710 LINE",
"647 1692 OFFCURVE",
"674 1680 OFFCURVE",
"694 1675 CURVE SMOOTH",
"714 1670 OFFCURVE",
"735 1667 OFFCURVE",
"758 1667 CURVE SMOOTH",
"814 1667 OFFCURVE",
"859 1687 OFFCURVE",
"893 1727 CURVE SMOOTH",
"927 1766 OFFCURVE",
"945 1819 OFFCURVE",
"946 1886 CURVE",
"821 1886 LINE",
"821 1880 LINE SMOOTH",
"821 1853 OFFCURVE",
"814 1831 OFFCURVE",
"801 1814 CURVE SMOOTH",
"788 1797 OFFCURVE",
"771 1788 OFFCURVE",
"750 1788 CURVE SMOOTH",
"740 1788 OFFCURVE",
"729 1790 OFFCURVE",
"718 1794 CURVE SMOOTH",
"706 1798 OFFCURVE",
"693 1804 OFFCURVE",
"678 1813 CURVE",
"621 1843 LINE SMOOTH",
"588 1861 OFFCURVE",
"562 1873 OFFCURVE",
"542 1878 CURVE SMOOTH",
"521 1883 OFFCURVE",
"499 1886 OFFCURVE",
"475 1886 CURVE SMOOTH",
"418 1886 OFFCURVE",
"373 1866 OFFCURVE",
"339 1827 CURVE SMOOTH",
"304 1788 OFFCURVE",
"287 1734 OFFCURVE",
"287 1667 CURVE",
"412 1667 LINE",
"412 1673 LINE SMOOTH",
"412 1703 OFFCURVE",
"419 1726 OFFCURVE",
"432 1743 CURVE SMOOTH",
"445 1760 OFFCURVE",
"464 1768 OFFCURVE",
"487 1768 CURVE SMOOTH",
"495 1768 OFFCURVE",
"504 1766 OFFCURVE",
"515 1763 CURVE SMOOTH",
"525 1759 OFFCURVE",
"538 1752 OFFCURVE",
"555 1743 CURVE SMOOTH"
);
}
);
width = 1233;
}
);
note = "\012\011Atilde\012  ";
unicode = 00C3;
},
{
glyphname = Adieresis;
layers = (
{
layerId = "A8E9A3C4-7003-4333-ABE9-545A429BAB07";
name = Regular;
paths = (
{
closed = 1;
nodes = (
"616 1315 LINE",
"829 551 LINE",
"403 551 LINE"
);
},
{
closed = 1;
nodes = (
"494 1493 LINE",
"37 0 LINE",
"246 0 LINE",
"354 389 LINE",
"877 389 LINE",
"987 0 LINE",
"1196 0 LINE",
"739 1493 LINE"
);
},
{
closed = 1;
nodes = (
"319 1870 LINE",
"319 1667 LINE",
"522 1667 LINE",
"522 1870 LINE"
);
},
{
closed = 1;
nodes = (
"711 1870 LINE",
"711 1667 LINE",
"913 1667 LINE",
"913 1870 LINE"
);
}
);
width = 1233;
}
);
note = "\012\011Adieresis\012  ";
unicode = 00C4;
},
{
glyphname = Aring;
layers = (
{
layerId = "A8E9A3C4-7003-4333-ABE9-545A429BAB07";
name = Regular;
paths = (
{
closed = 1;
nodes = (
"768 1584 OFFCURVE",
"753 1548 OFFCURVE",
"724 1519 CURVE SMOOTH",
"698 1493 OFFCURVE",
"661 1475 OFFCURVE",
"616 1475 CURVE SMOOTH",
"574 1475 OFFCURVE",
"538 1490 OFFCURVE",
"509 1519 CURVE SMOOTH",
"480 1548 OFFCURVE",
"465 1584 OFFCURVE",
"465 1626 CURVE SMOOTH",
"465 1669 OFFCURVE",
"480 1706 OFFCURVE",
"509 1735 CURVE SMOOTH",
"538 1764 OFFCURVE",
"574 1778 OFFCURVE",
"615 1778 CURVE SMOOTH",
"654 1778 OFFCURVE",
"693 1765 OFFCURVE",
"724 1734 CURVE SMOOTH",
"750 1708 OFFCURVE",
"768 1671 OFFCURVE",
"768 1626 CURVE SMOOTH"
);
},
{
closed = 1;
nodes = (
"616 1311 LINE",
"829 551 LINE",
"403 551 LINE"
);
},
{
closed = 1;
nodes = (
"37 0 LINE",
"246 0 LINE",
"354 389 LINE",
"877 389 LINE",
"987 0 LINE",
"1196 0 LINE",
"768 1399 LINE",
"807 1423 OFFCURVE",
"838 1455 OFFCURVE",
"859 1494 CURVE SMOOTH",
"880 1533 OFFCURVE",
"891 1578 OFFCURVE",
"891 1625 CURVE SMOOTH",
"891 1706 OFFCURVE",
"858 1775 OFFCURVE",
"812 1821 CURVE SMOOTH",
"763 1870 OFFCURVE",
"693 1901 OFFCURVE",
"616 1901 CURVE SMOOTH",
"540 1901 OFFCURVE",
"471 1871 OFFCURVE",
"422 1822 CURVE SMOOTH",
"373 1773 OFFCURVE",
"342 1703 OFFCURVE",
"342 1625 CURVE SMOOTH",
"342 1579 OFFCURVE",
"353 1533 OFFCURVE",
"375 1492 CURVE SMOOTH",
"395 1455 OFFCURVE",
"425 1421 OFFCURVE",
"465 1399 CURVE"
);
}
);
width = 1233;
}
);
note = "\012\011Aring\012  ";
unicode = 00C5;
},
{
glyphname = AE;
layers = (
{
layerId = "A8E9A3C4-7003-4333-ABE9-545A429BAB07";
name = Regular;
paths = (
{
closed = 1;
nodes = (
"1161 1493 LINE",
"410 1493 LINE",
"0 0 LINE",
"184 0 LINE",
"285 383 LINE",
"637 383 LINE",
"637 0 LINE",
"1180 0 LINE",
"1180 170 LINE",
"823 170 LINE",
"823 711 LINE",
"1130 711 LINE",
"1130 881 LINE",
"823 881 LINE",
"823 1323 LINE",
"1161 1323 LINE"
);
},
{
closed = 1;
nodes = (
"530 1323 LINE",
"637 1323 LINE",
"637 551 LINE",
"328 551 LINE"
);
}
);
width = 1233;
}
);
note = "\012\011AE\012  ";
unicode = 00C6;
},
{
glyphname = Ccedilla;
layers = (
{
layerId = "A8E9A3C4-7003-4333-ABE9-545A429BAB07";
name = Regular;
paths = (
{
closed = 1;
nodes = (
"1073 260 LINE",
"1024 219 OFFCURVE",
"972 188 OFFCURVE",
"916 167 CURVE SMOOTH",
"860 146 OFFCURVE",
"802 135 OFFCURVE",
"742 135 CURVE SMOOTH",
"607 135 OFFCURVE",
"510 191 OFFCURVE",
"448 287 CURVE SMOOTH",
"383 388 OFFCURVE",
"350 541 OFFCURVE",
"350 745 CURVE SMOOTH",
"350 950 OFFCURVE",
"383 1103 OFFCURVE",
"448 1204 CURVE SMOOTH",
"513 1305 OFFCURVE",
"613 1356 OFFCURVE",
"741 1356 CURVE SMOOTH",
"801 1356 OFFCURVE",
"857 1345 OFFCURVE",
"914 1324 CURVE SMOOTH",
"973 1302 OFFCURVE",
"1024 1272 OFFCURVE",
"1073 1231 CURVE",
"1073 1438 LINE",
"1022 1465 OFFCURVE",
"966 1487 OFFCURVE",
"915 1500 CURVE SMOOTH",
"863 1513 OFFCURVE",
"802 1520 OFFCURVE",
"742 1520 CURVE SMOOTH",
"552 1520 OFFCURVE",
"401 1448 OFFCURVE",
"298 1316 CURVE SMOOTH",
"192 1180 OFFCURVE",
"139 984 OFFCURVE",
"139 744 CURVE SMOOTH",
"139 504 OFFCURVE",
"192 309 OFFCURVE",
"297 174 CURVE SMOOTH",
"400 42 OFFCURVE",
"552 -29 OFFCURVE",
"742 -29 CURVE SMOOTH",
"802 -29 OFFCURVE",
"863 -22 OFFCURVE",
"915 -9 CURVE SMOOTH",
"969 5 OFFCURVE",
"1022 26 OFFCURVE",
"1073 53 CURVE"
);
},
{
closed = 1;
nodes = (
"682 0 LINE",
"711 -41 OFFCURVE",
"733 -76 OFFCURVE",
"748 -105 CURVE SMOOTH",
"763 -134 OFFCURVE",
"770 -157 OFFCURVE",
"770 -180 CURVE SMOOTH",
"770 -208 OFFCURVE",
"760 -232 OFFCURVE",
"740 -248 CURVE SMOOTH",
"719 -265 OFFCURVE",
"688 -272 OFFCURVE",
"646 -272 CURVE SMOOTH",
"623 -272 OFFCURVE",
"592 -270 OFFCURVE",
"567 -265 CURVE SMOOTH",
"542 -260 OFFCURVE",
"518 -251 OFFCURVE",
"495 -240 CURVE",
"495 -371 LINE",
"524 -379 OFFCURVE",
"554 -385 OFFCURVE",
"583 -389 CURVE SMOOTH",
"612 -393 OFFCURVE",
"641 -395 OFFCURVE",
"670 -395 CURVE SMOOTH",
"752 -395 OFFCURVE",
"811 -379 OFFCURVE",
"849 -350 CURVE SMOOTH",
"889 -319 OFFCURVE",
"909 -272 OFFCURVE",
"909 -219 CURVE SMOOTH",
"909 -179 OFFCURVE",
"898 -145 OFFCURVE",
"883 -115 CURVE SMOOTH",
"865 -80 OFFCURVE",
"837 -41 OFFCURVE",
"800 0 CURVE"
);
}
);
width = 1233;
}
);
note = "\012\011Ccedilla\012  ";
unicode = 00C7;
},
{
glyphname = Egrave;
layers = (
{
layerId = "A8E9A3C4-7003-4333-ABE9-545A429BAB07";
name = Regular;
paths = (
{
closed = 1;
nodes = (
"197 1493 LINE",
"197 0 LINE",
"1102 0 LINE",
"1102 170 LINE",
"399 170 LINE",
"399 711 LINE",
"1053 711 LINE",
"1053 881 LINE",
"399 881 LINE",
"399 1323 LINE",
"1083 1323 LINE",
"1083 1493 LINE"
);
},
{
closed = 1;
nodes = (
"579 1899 LINE",
"395 1899 LINE",
"622 1635 LINE",
"776 1635 LINE"
);
}
);
width = 1233;
}
);
note = "\012\011Egrave\012  ";
unicode = 00C8;
},
{
glyphname = Eacute;
layers = (
{
layerId = "A8E9A3C4-7003-4333-ABE9-545A429BAB07";
name = Regular;
paths = (
{
closed = 1;
nodes = (
"197 1493 LINE",
"197 0 LINE",
"1102 0 LINE",
"1102 170 LINE",
"399 170 LINE",
"399 711 LINE",
"1053 711 LINE",
"1053 881 LINE",
"399 881 LINE",
"399 1323 LINE",
"1083 1323 LINE",
"1083 1493 LINE"
);
},
{
closed = 1;
nodes = (
"690 1899 LINE",
"493 1635 LINE",
"647 1635 LINE",
"876 1899 LINE"
);
}
);
width = 1233;
}
);
note = "\012\011Eacute\012  ";
unicode = 00C9;
},
{
glyphname = Ecircumflex;
layers = (
{
layerId = "A8E9A3C4-7003-4333-ABE9-545A429BAB07";
name = Regular;
paths = (
{
closed = 1;
nodes = (
"197 1493 LINE",
"197 0 LINE",
"1102 0 LINE",
"1102 170 LINE",
"399 170 LINE",
"399 711 LINE",
"1053 711 LINE",
"1053 881 LINE",
"399 881 LINE",
"399 1323 LINE",
"1083 1323 LINE",
"1083 1493 LINE"
);
},
{
closed = 1;
nodes = (
"540 1901 LINE",
"329 1635 LINE",
"469 1635 LINE",
"634 1813 LINE",
"800 1635 LINE",
"940 1635 LINE",
"729 1901 LINE"
);
}
);
width = 1233;
}
);
note = "\012\011Ecircumflex\012  ";
unicode = 00CA;
},
{
glyphname = Edieresis;
layers = (
{
layerId = "A8E9A3C4-7003-4333-ABE9-545A429BAB07";
name = Regular;
paths = (
{
closed = 1;
nodes = (
"197 1493 LINE",
"197 0 LINE",
"1102 0 LINE",
"1102 170 LINE",
"399 170 LINE",
"399 711 LINE",
"1053 711 LINE",
"1053 881 LINE",
"399 881 LINE",
"399 1323 LINE",
"1083 1323 LINE",
"1083 1493 LINE"
);
},
{
closed = 1;
nodes = (
"337 1870 LINE",
"337 1667 LINE",
"540 1667 LINE",
"540 1870 LINE"
);
},
{
closed = 1;
nodes = (
"729 1870 LINE",
"729 1667 LINE",
"931 1667 LINE",
"931 1870 LINE"
);
}
);
width = 1233;
}
);
note = "\012\011Edieresis\012  ";
unicode = 00CB;
},
{
glyphname = Igrave;
layers = (
{
layerId = "A8E9A3C4-7003-4333-ABE9-545A429BAB07";
name = Regular;
paths = (
{
closed = 1;
nodes = (
"201 1493 LINE",
"201 1323 LINE",
"514 1323 LINE",
"514 170 LINE",
"201 170 LINE",
"201 0 LINE",
"1030 0 LINE",
"1030 170 LINE",
"717 170 LINE",
"717 1323 LINE",
"1030 1323 LINE",
"1030 1493 LINE"
);
},
{
closed = 1;
nodes = (
"561 1899 LINE",
"377 1899 LINE",
"604 1635 LINE",
"758 1635 LINE"
);
}
);
width = 1233;
}
);
note = "\012\011Igrave\012  ";
unicode = 00CC;
},
{
glyphname = Iacute;
layers = (
{
layerId = "A8E9A3C4-7003-4333-ABE9-545A429BAB07";
name = Regular;
paths = (
{
closed = 1;
nodes = (
"201 1493 LINE",
"201 1323 LINE",
"514 1323 LINE",
"514 170 LINE",
"201 170 LINE",
"201 0 LINE",
"1030 0 LINE",
"1030 170 LINE",
"717 170 LINE",
"717 1323 LINE",
"1030 1323 LINE",
"1030 1493 LINE"
);
},
{
closed = 1;
nodes = (
"672 1899 LINE",
"475 1635 LINE",
"629 1635 LINE",
"858 1899 LINE"
);
}
);
width = 1233;
}
);
note = "\012\011Iacute\012  ";
unicode = 00CD;
},
{
glyphname = Icircumflex;
layers = (
{
layerId = "A8E9A3C4-7003-4333-ABE9-545A429BAB07";
name = Regular;
paths = (
{
closed = 1;
nodes = (
"201 1493 LINE",
"201 1323 LINE",
"514 1323 LINE",
"514 170 LINE",
"201 170 LINE",
"201 0 LINE",
"1030 0 LINE",
"1030 170 LINE",
"717 170 LINE",
"717 1323 LINE",
"1030 1323 LINE",
"1030 1493 LINE"
);
},
{
closed = 1;
nodes = (
"522 1901 LINE",
"311 1635 LINE",
"451 1635 LINE",
"616 1813 LINE",
"782 1635 LINE",
"922 1635 LINE",
"711 1901 LINE"
);
}
);
width = 1233;
}
);
note = "\012\011Icircumflex\012  ";
unicode = 00CE;
},
{
glyphname = Idieresis;
layers = (
{
layerId = "A8E9A3C4-7003-4333-ABE9-545A429BAB07";
name = Regular;
paths = (
{
closed = 1;
nodes = (
"201 1493 LINE",
"201 1323 LINE",
"514 1323 LINE",
"514 170 LINE",
"201 170 LINE",
"201 0 LINE",
"1030 0 LINE",
"1030 170 LINE",
"717 170 LINE",
"717 1323 LINE",
"1030 1323 LINE",
"1030 1493 LINE"
);
},
{
closed = 1;
nodes = (
"319 1870 LINE",
"319 1667 LINE",
"522 1667 LINE",
"522 1870 LINE"
);
},
{
closed = 1;
nodes = (
"711 1870 LINE",
"711 1667 LINE",
"913 1667 LINE",
"913 1870 LINE"
);
}
);
width = 1233;
}
);
note = "\012\011Idieresis\012  ";
unicode = 00CF;
},
{
glyphname = Eth;
layers = (
{
layerId = "A8E9A3C4-7003-4333-ABE9-545A429BAB07";
name = Regular;
paths = (
{
closed = 1;
nodes = (
"133 1493 LINE",
"133 858 LINE",
"8 858 LINE",
"8 709 LINE",
"133 709 LINE",
"133 0 LINE",
"436 0 LINE SMOOTH",
"658 0 OFFCURVE",
"830 59 OFFCURVE",
"940 182 CURVE SMOOTH",
"1048 303 OFFCURVE",
"1102 490 OFFCURVE",
"1102 746 CURVE SMOOTH",
"1102 1001 OFFCURVE",
"1048 1190 OFFCURVE",
"940 1311 CURVE SMOOTH",
"832 1432 OFFCURVE",
"664 1493 OFFCURVE",
"436 1493 CURVE SMOOTH"
);
},
{
closed = 1;
nodes = (
"340 166 LINE",
"340 709 LINE",
"604 709 LINE",
"604 858 LINE",
"340 858 LINE",
"340 1327 LINE",
"436 1327 LINE SMOOTH",
"603 1327 OFFCURVE",
"721 1290 OFFCURVE",
"792 1201 CURVE SMOOTH",
"859 1117 OFFCURVE",
"893 978 OFFCURVE",
"893 747 CURVE SMOOTH",
"893 522 OFFCURVE",
"861 380 OFFCURVE",
"791 293 CURVE SMOOTH",
"725 211 OFFCURVE",
"620 166 OFFCURVE",
"436 166 CURVE SMOOTH"
);
}
);
width = 1233;
}
);
note = "\012\011Eth\012  ";
unicode = 00D0;
},
{
glyphname = Ntilde;
layers = (
{
layerId = "A8E9A3C4-7003-4333-ABE9-545A429BAB07";
name = Regular;
paths = (
{
closed = 1;
nodes = (
"139 1493 LINE",
"139 0 LINE",
"334 0 LINE",
"334 1229 LINE",
"838 0 LINE",
"1094 0 LINE",
"1094 1493 LINE",
"899 1493 LINE",
"899 264 LINE",
"395 1493 LINE"
);
},
{
closed = 1;
nodes = (
"594 1710 LINE",
"635 1689 OFFCURVE",
"657 1680 OFFCURVE",
"676 1675 CURVE SMOOTH",
"696 1670 OFFCURVE",
"717 1667 OFFCURVE",
"739 1667 CURVE SMOOTH",
"793 1667 OFFCURVE",
"839 1685 OFFCURVE",
"875 1727 CURVE SMOOTH",
"910 1768 OFFCURVE",
"927 1819 OFFCURVE",
"928 1886 CURVE",
"803 1886 LINE",
"803 1880 LINE SMOOTH",
"803 1853 OFFCURVE",
"796 1831 OFFCURVE",
"783 1814 CURVE SMOOTH",
"770 1797 OFFCURVE",
"753 1788 OFFCURVE",
"732 1788 CURVE SMOOTH",
"722 1788 OFFCURVE",
"711 1790 OFFCURVE",
"700 1794 CURVE SMOOTH",
"688 1798 OFFCURVE",
"675 1804 OFFCURVE",
"660 1813 CURVE",
"603 1843 LINE SMOOTH",
"566 1863 OFFCURVE",
"544 1873 OFFCURVE",
"524 1878 CURVE SMOOTH",
"503 1883 OFFCURVE",
"481 1886 OFFCURVE",
"458 1886 CURVE SMOOTH",
"400 1886 OFFCURVE",
"355 1866 OFFCURVE",
"321 1827 CURVE SMOOTH",
"284 1785 OFFCURVE",
"269 1731 OFFCURVE",
"269 1667 CURVE",
"394 1667 LINE",
"394 1673 LINE SMOOTH",
"394 1703 OFFCURVE",
"401 1726 OFFCURVE",
"414 1743 CURVE SMOOTH",
"429 1762 OFFCURVE",
"450 1768 OFFCURVE",
"466 1768 CURVE SMOOTH",
"477 1768 OFFCURVE",
"492 1765 OFFCURVE",
"497 1763 CURVE SMOOTH",
"504 1760 OFFCURVE",
"525 1750 OFFCURVE",
"537 1743 CURVE SMOOTH"
);
}
);
width = 1233;
}
);
note = "\012\011Ntilde\012  ";
unicode = 00D1;
},
{
glyphname = Ograve;
layers = (
{
layerId = "A8E9A3C4-7003-4333-ABE9-545A429BAB07";
name = Regular;
paths = (
{
closed = 1;
nodes = (
"905 526 OFFCURVE",
"883 369 OFFCURVE",
"838 276 CURVE SMOOTH",
"793 182 OFFCURVE",
"719 135 OFFCURVE",
"616 135 CURVE SMOOTH",
"514 135 OFFCURVE",
"441 182 OFFCURVE",
"396 276 CURVE SMOOTH",
"351 370 OFFCURVE",
"328 526 OFFCURVE",
"328 745 CURVE SMOOTH",
"328 964 OFFCURVE",
"351 1121 OFFCURVE",
"396 1215 CURVE SMOOTH",
"441 1309 OFFCURVE",
"514 1356 OFFCURVE",
"616 1356 CURVE SMOOTH",
"719 1356 OFFCURVE",
"793 1309 OFFCURVE",
"838 1215 CURVE SMOOTH",
"883 1121 OFFCURVE",
"905 964 OFFCURVE",
"905 745 CURVE SMOOTH"
);
},
{
closed = 1;
nodes = (
"1116 1006 OFFCURVE",
"1075 1200 OFFCURVE",
"993 1328 CURVE SMOOTH",
"908 1460 OFFCURVE",
"779 1520 OFFCURVE",
"616 1520 CURVE SMOOTH",
"446 1520 OFFCURVE",
"323 1455 OFFCURVE",
"241 1328 CURVE SMOOTH",
"158 1200 OFFCURVE",
"117 1006 OFFCURVE",
"117 745 CURVE SMOOTH",
"117 484 OFFCURVE",
"158 289 OFFCURVE",
"240 162 CURVE SMOOTH",
"322 35 OFFCURVE",
"447 -29 OFFCURVE",
"616 -29 CURVE SMOOTH",
"779 -29 OFFCURVE",
"908 31 OFFCURVE",
"993 163 CURVE SMOOTH",
"1075 291 OFFCURVE",
"1116 485 OFFCURVE",
"1116 745 CURVE SMOOTH"
);
},
{
closed = 1;
nodes = (
"561 1899 LINE",
"377 1899 LINE",
"604 1635 LINE",
"758 1635 LINE"
);
}
);
width = 1233;
}
);
note = "\012\011Ograve\012  ";
unicode = 00D2;
},
{
glyphname = Oacute;
layers = (
{
layerId = "A8E9A3C4-7003-4333-ABE9-545A429BAB07";
name = Regular;
paths = (
{
closed = 1;
nodes = (
"905 526 OFFCURVE",
"883 369 OFFCURVE",
"838 276 CURVE SMOOTH",
"793 182 OFFCURVE",
"719 135 OFFCURVE",
"616 135 CURVE SMOOTH",
"514 135 OFFCURVE",
"441 182 OFFCURVE",
"396 276 CURVE SMOOTH",
"351 370 OFFCURVE",
"328 526 OFFCURVE",
"328 745 CURVE SMOOTH",
"328 964 OFFCURVE",
"351 1121 OFFCURVE",
"396 1215 CURVE SMOOTH",
"441 1309 OFFCURVE",
"514 1356 OFFCURVE",
"616 1356 CURVE SMOOTH",
"719 1356 OFFCURVE",
"793 1309 OFFCURVE",
"838 1215 CURVE SMOOTH",
"883 1121 OFFCURVE",
"905 964 OFFCURVE",
"905 745 CURVE SMOOTH"
);
},
{
closed = 1;
nodes = (
"1116 1006 OFFCURVE",
"1075 1200 OFFCURVE",
"993 1328 CURVE SMOOTH",
"908 1460 OFFCURVE",
"779 1520 OFFCURVE",
"616 1520 CURVE SMOOTH",
"446 1520 OFFCURVE",
"323 1455 OFFCURVE",
"241 1328 CURVE SMOOTH",
"158 1200 OFFCURVE",
"117 1006 OFFCURVE",
"117 745 CURVE SMOOTH",
"117 484 OFFCURVE",
"158 289 OFFCURVE",
"240 162 CURVE SMOOTH",
"322 35 OFFCURVE",
"447 -29 OFFCURVE",
"616 -29 CURVE SMOOTH",
"779 -29 OFFCURVE",
"908 31 OFFCURVE",
"993 163 CURVE SMOOTH",
"1075 291 OFFCURVE",
"1116 485 OFFCURVE",
"1116 745 CURVE SMOOTH"
);
},
{
closed = 1;
nodes = (
"672 1899 LINE",
"475 1635 LINE",
"629 1635 LINE",
"858 1899 LINE"
);
}
);
width = 1233;
}
);
note = "\012\011Oacute\012  ";
unicode = 00D3;
},
{
glyphname = Ocircumflex;
layers = (
{
layerId = "A8E9A3C4-7003-4333-ABE9-545A429BAB07";
name = Regular;
paths = (
{
closed = 1;
nodes = (
"905 526 OFFCURVE",
"883 369 OFFCURVE",
"838 276 CURVE SMOOTH",
"793 182 OFFCURVE",
"719 135 OFFCURVE",
"616 135 CURVE SMOOTH",
"514 135 OFFCURVE",
"441 182 OFFCURVE",
"396 276 CURVE SMOOTH",
"351 370 OFFCURVE",
"328 526 OFFCURVE",
"328 745 CURVE SMOOTH",
"328 964 OFFCURVE",
"351 1121 OFFCURVE",
"396 1215 CURVE SMOOTH",
"441 1309 OFFCURVE",
"514 1356 OFFCURVE",
"616 1356 CURVE SMOOTH",
"719 1356 OFFCURVE",
"793 1309 OFFCURVE",
"838 1215 CURVE SMOOTH",
"883 1121 OFFCURVE",
"905 964 OFFCURVE",
"905 745 CURVE SMOOTH"
);
},
{
closed = 1;
nodes = (
"1116 1006 OFFCURVE",
"1075 1200 OFFCURVE",
"993 1328 CURVE SMOOTH",
"908 1460 OFFCURVE",
"779 1520 OFFCURVE",
"616 1520 CURVE SMOOTH",
"446 1520 OFFCURVE",
"323 1455 OFFCURVE",
"241 1328 CURVE SMOOTH",
"158 1200 OFFCURVE",
"117 1006 OFFCURVE",
"117 745 CURVE SMOOTH",
"117 484 OFFCURVE",
"158 289 OFFCURVE",
"240 162 CURVE SMOOTH",
"322 35 OFFCURVE",
"447 -29 OFFCURVE",
"616 -29 CURVE SMOOTH",
"779 -29 OFFCURVE",
"908 31 OFFCURVE",
"993 163 CURVE SMOOTH",
"1075 291 OFFCURVE",
"1116 485 OFFCURVE",
"1116 745 CURVE SMOOTH"
);
},
{
closed = 1;
nodes = (
"522 1901 LINE",
"311 1635 LINE",
"451 1635 LINE",
"616 1813 LINE",
"782 1635 LINE",
"922 1635 LINE",
"711 1901 LINE"
);
}
);
width = 1233;
}
);
note = "\012\011Ocircumflex\012  ";
unicode = 00D4;
},
{
glyphname = Otilde;
layers = (
{
layerId = "A8E9A3C4-7003-4333-ABE9-545A429BAB07";
name = Regular;
paths = (
{
closed = 1;
nodes = (
"905 526 OFFCURVE",
"883 369 OFFCURVE",
"838 276 CURVE SMOOTH",
"793 182 OFFCURVE",
"719 135 OFFCURVE",
"616 135 CURVE SMOOTH",
"514 135 OFFCURVE",
"441 182 OFFCURVE",
"396 276 CURVE SMOOTH",
"351 370 OFFCURVE",
"328 526 OFFCURVE",
"328 745 CURVE SMOOTH",
"328 964 OFFCURVE",
"351 1121 OFFCURVE",
"396 1215 CURVE SMOOTH",
"441 1309 OFFCURVE",
"514 1356 OFFCURVE",
"616 1356 CURVE SMOOTH",
"719 1356 OFFCURVE",
"793 1309 OFFCURVE",
"838 1215 CURVE SMOOTH",
"883 1121 OFFCURVE",
"905 964 OFFCURVE",
"905 745 CURVE SMOOTH"
);
},
{
closed = 1;
nodes = (
"1116 1006 OFFCURVE",
"1075 1200 OFFCURVE",
"993 1328 CURVE SMOOTH",
"908 1460 OFFCURVE",
"779 1520 OFFCURVE",
"616 1520 CURVE SMOOTH",
"446 1520 OFFCURVE",
"323 1455 OFFCURVE",
"241 1328 CURVE SMOOTH",
"158 1200 OFFCURVE",
"117 1006 OFFCURVE",
"117 745 CURVE SMOOTH",
"117 484 OFFCURVE",
"158 289 OFFCURVE",
"240 162 CURVE SMOOTH",
"322 35 OFFCURVE",
"447 -29 OFFCURVE",
"616 -29 CURVE SMOOTH",
"779 -29 OFFCURVE",
"908 31 OFFCURVE",
"993 163 CURVE SMOOTH",
"1075 291 OFFCURVE",
"1116 485 OFFCURVE",
"1116 745 CURVE SMOOTH"
);
},
{
closed = 1;
nodes = (
"612 1710 LINE",
"653 1689 OFFCURVE",
"675 1680 OFFCURVE",
"694 1675 CURVE SMOOTH",
"714 1670 OFFCURVE",
"735 1667 OFFCURVE",
"757 1667 CURVE SMOOTH",
"811 1667 OFFCURVE",
"857 1685 OFFCURVE",
"893 1727 CURVE SMOOTH",
"928 1768 OFFCURVE",
"945 1819 OFFCURVE",
"946 1886 CURVE",
"821 1886 LINE",
"821 1880 LINE SMOOTH",
"821 1853 OFFCURVE",
"814 1831 OFFCURVE",
"801 1814 CURVE SMOOTH",
"788 1797 OFFCURVE",
"771 1788 OFFCURVE",
"750 1788 CURVE SMOOTH",
"740 1788 OFFCURVE",
"729 1790 OFFCURVE",
"718 1794 CURVE SMOOTH",
"706 1798 OFFCURVE",
"693 1804 OFFCURVE",
"678 1813 CURVE",
"621 1843 LINE SMOOTH",
"584 1863 OFFCURVE",
"562 1873 OFFCURVE",
"542 1878 CURVE SMOOTH",
"521 1883 OFFCURVE",
"499 1886 OFFCURVE",
"476 1886 CURVE SMOOTH",
"418 1886 OFFCURVE",
"373 1866 OFFCURVE",
"339 1827 CURVE SMOOTH",
"302 1785 OFFCURVE",
"287 1731 OFFCURVE",
"287 1667 CURVE",
"412 1667 LINE",
"412 1673 LINE SMOOTH",
"412 1703 OFFCURVE",
"419 1726 OFFCURVE",
"432 1743 CURVE SMOOTH",
"447 1762 OFFCURVE",
"468 1768 OFFCURVE",
"484 1768 CURVE SMOOTH",
"495 1768 OFFCURVE",
"510 1765 OFFCURVE",
"515 1763 CURVE SMOOTH",
"522 1760 OFFCURVE",
"543 1750 OFFCURVE",
"555 1743 CURVE SMOOTH"
);
}
);
width = 1233;
}
);
note = "\012\011Otilde\012  ";
unicode = 00D5;
},
{
glyphname = Odieresis;
layers = (
{
layerId = "A8E9A3C4-7003-4333-ABE9-545A429BAB07";
name = Regular;
paths = (
{
closed = 1;
nodes = (
"905 526 OFFCURVE",
"883 369 OFFCURVE",
"838 276 CURVE SMOOTH",
"793 182 OFFCURVE",
"719 135 OFFCURVE",
"616 135 CURVE SMOOTH",
"514 135 OFFCURVE",
"441 182 OFFCURVE",
"396 276 CURVE SMOOTH",
"351 370 OFFCURVE",
"328 526 OFFCURVE",
"328 745 CURVE SMOOTH",
"328 964 OFFCURVE",
"351 1121 OFFCURVE",
"396 1215 CURVE SMOOTH",
"441 1309 OFFCURVE",
"514 1356 OFFCURVE",
"616 1356 CURVE SMOOTH",
"719 1356 OFFCURVE",
"793 1309 OFFCURVE",
"838 1215 CURVE SMOOTH",
"883 1121 OFFCURVE",
"905 964 OFFCURVE",
"905 745 CURVE SMOOTH"
);
},
{
closed = 1;
nodes = (
"1116 1006 OFFCURVE",
"1075 1200 OFFCURVE",
"993 1328 CURVE SMOOTH",
"908 1460 OFFCURVE",
"779 1520 OFFCURVE",
"616 1520 CURVE SMOOTH",
"446 1520 OFFCURVE",
"323 1455 OFFCURVE",
"241 1328 CURVE SMOOTH",
"158 1200 OFFCURVE",
"117 1006 OFFCURVE",
"117 745 CURVE SMOOTH",
"117 484 OFFCURVE",
"158 289 OFFCURVE",
"240 162 CURVE SMOOTH",
"322 35 OFFCURVE",
"447 -29 OFFCURVE",
"616 -29 CURVE SMOOTH",
"779 -29 OFFCURVE",
"908 31 OFFCURVE",
"993 163 CURVE SMOOTH",
"1075 291 OFFCURVE",
"1116 485 OFFCURVE",
"1116 745 CURVE SMOOTH"
);
},
{
closed = 1;
nodes = (
"319 1870 LINE",
"319 1667 LINE",
"522 1667 LINE",
"522 1870 LINE"
);
},
{
closed = 1;
nodes = (
"711 1870 LINE",
"711 1667 LINE",
"913 1667 LINE",
"913 1870 LINE"
);
}
);
width = 1233;
}
);
note = "\012\011Odieresis\012  ";
unicode = 00D6;
},
{
glyphname = multiply;
layers = (
{
layerId = "A8E9A3C4-7003-4333-ABE9-545A429BAB07";
name = Regular;
paths = (
{
closed = 1;
nodes = (
"150 293 LINE",
"268 174 LINE",
"616 524 LINE",
"965 174 LINE",
"1081 293 LINE",
"733 641 LINE",
"1083 991 LINE",
"967 1108 LINE",
"616 758 LINE",
"266 1108 LINE",
"150 991 LINE",
"500 641 LINE"
);
}
);
width = 1233;
}
);
note = "\012\011multiply\012  ";
unicode = 00D7;
},
{
glyphname = Oslash;
layers = (
{
layerId = "A8E9A3C4-7003-4333-ABE9-545A429BAB07";
name = Regular;
paths = (
{
closed = 1;
nodes = (
"885 1036 LINE",
"892 1006 OFFCURVE",
"897 970 OFFCURVE",
"900 923 CURVE SMOOTH",
"903 878 OFFCURVE",
"905 817 OFFCURVE",
"905 748 CURVE SMOOTH",
"905 506 OFFCURVE",
"880 365 OFFCURVE",
"838 277 CURVE SMOOTH",
"795 187 OFFCURVE",
"726 135 OFFCURVE",
"617 135 CURVE SMOOTH",
"561 135 OFFCURVE",
"512 149 OFFCURVE",
"467 180 CURVE SMOOTH",
"423 210 OFFCURVE",
"391 251 OFFCURVE",
"371 303 CURVE"
);
},
{
closed = 1;
nodes = (
"338 471 LINE",
"333 507 OFFCURVE",
"332 527 OFFCURVE",
"331 556 CURVE SMOOTH",
"329 598 OFFCURVE",
"328 625 OFFCURVE",
"328 682 CURVE SMOOTH",
"328 937 OFFCURVE",
"348 1107 OFFCURVE",
"394 1209 CURVE SMOOTH",
"436 1303 OFFCURVE",
"505 1356 OFFCURVE",
"615 1356 CURVE SMOOTH",
"670 1356 OFFCURVE",
"721 1343 OFFCURVE",
"760 1314 CURVE SMOOTH",
"795 1288 OFFCURVE",
"825 1245 OFFCURVE",
"842 1190 CURVE"
);
},
{
closed = 1;
nodes = (
"1200 1485 LINE",
"1100 1559 LINE",
"961 1358 LINE",
"923 1411 OFFCURVE",
"875 1452 OFFCURVE",
"818 1479 CURVE SMOOTH",
"760 1506 OFFCURVE",
"694 1520 OFFCURVE",
"615 1520 CURVE SMOOTH",
"451 1520 OFFCURVE",
"326 1459 OFFCURVE",
"241 1328 CURVE SMOOTH",
"158 1200 OFFCURVE",
"117 1009 OFFCURVE",
"117 740 CURVE SMOOTH",
"117 629 OFFCURVE",
"124 540 OFFCURVE",
"136 456 CURVE SMOOTH",
"149 365 OFFCURVE",
"164 304 OFFCURVE",
"186 252 CURVE",
"8 0 LINE",
"111 -70 LINE",
"254 133 LINE",
"295 79 OFFCURVE",
"345 39 OFFCURVE",
"405 12 CURVE SMOOTH",
"469 -17 OFFCURVE",
"537 -29 OFFCURVE",
"612 -29 CURVE SMOOTH",
"789 -29 OFFCURVE",
"913 38 OFFCURVE",
"993 163 CURVE SMOOTH",
"1075 291 OFFCURVE",
"1116 486 OFFCURVE",
"1116 744 CURVE SMOOTH",
"1116 858 OFFCURVE",
"1108 960 OFFCURVE",
"1095 1037 CURVE SMOOTH",
"1081 1118 OFFCURVE",
"1060 1192 OFFCURVE",
"1032 1247 CURVE"
);
}
);
width = 1233;
}
);
note = "\012\011Oslash\012  ";
unicode = 00D8;
},
{
glyphname = Ugrave;
layers = (
{
layerId = "A8E9A3C4-7003-4333-ABE9-545A429BAB07";
name = Regular;
paths = (
{
closed = 1;
nodes = (
"147 573 LINE SMOOTH",
"147 409 OFFCURVE",
"157 316 OFFCURVE",
"177 249 CURVE SMOOTH",
"198 176 OFFCURVE",
"230 127 OFFCURVE",
"273 88 CURVE SMOOTH",
"319 47 OFFCURVE",
"375 18 OFFCURVE",
"427 0 CURVE SMOOTH",
"483 -19 OFFCURVE",
"544 -29 OFFCURVE",
"616 -29 CURVE SMOOTH",
"694 -29 OFFCURVE",
"757 -17 OFFCURVE",
"806 0 CURVE SMOOTH",
"858 18 OFFCURVE",
"915 48 OFFCURVE",
"959 88 CURVE SMOOTH",
"1002 127 OFFCURVE",
"1038 182 OFFCURVE",
"1057 249 CURVE SMOOTH",
"1074 308 OFFCURVE",
"1085 398 OFFCURVE",
"1085 573 CURVE SMOOTH",
"1085 1493 LINE",
"883 1493 LINE",
"883 573 LINE",
"883 479 LINE SMOOTH",
"883 407 OFFCURVE",
"881 356 OFFCURVE",
"877 325 CURVE SMOOTH",
"873 293 OFFCURVE",
"867 274 OFFCURVE",
"856 254 CURVE SMOOTH",
"836 217 OFFCURVE",
"803 185 OFFCURVE",
"763 165 CURVE SMOOTH",
"723 145 OFFCURVE",
"674 135 OFFCURVE",
"616 135 CURVE SMOOTH",
"559 135 OFFCURVE",
"510 145 OFFCURVE",
"470 165 CURVE SMOOTH",
"429 185 OFFCURVE",
"398 215 OFFCURVE",
"377 254 CURVE",
"367 271 OFFCURVE",
"360 295 OFFCURVE",
"356 326 CURVE SMOOTH",
"352 357 OFFCURVE",
"350 408 OFFCURVE",
"350 481 CURVE SMOOTH",
"350 1493 LINE",
"147 1493 LINE"
);
},
{
closed = 1;
nodes = (
"561 1899 LINE",
"377 1899 LINE",
"604 1635 LINE",
"758 1635 LINE"
);
}
);
width = 1233;
}
);
note = "\012\011Ugrave\012  ";
unicode = 00D9;
},
{
glyphname = Uacute;
layers = (
{
layerId = "A8E9A3C4-7003-4333-ABE9-545A429BAB07";
name = Regular;
paths = (
{
closed = 1;
nodes = (
"147 573 LINE SMOOTH",
"147 409 OFFCURVE",
"157 316 OFFCURVE",
"177 249 CURVE SMOOTH",
"198 176 OFFCURVE",
"230 127 OFFCURVE",
"273 88 CURVE SMOOTH",
"319 47 OFFCURVE",
"375 18 OFFCURVE",
"427 0 CURVE SMOOTH",
"483 -19 OFFCURVE",
"544 -29 OFFCURVE",
"616 -29 CURVE SMOOTH",
"694 -29 OFFCURVE",
"757 -17 OFFCURVE",
"806 0 CURVE SMOOTH",
"858 18 OFFCURVE",
"915 48 OFFCURVE",
"959 88 CURVE SMOOTH",
"1002 127 OFFCURVE",
"1038 182 OFFCURVE",
"1057 249 CURVE SMOOTH",
"1074 308 OFFCURVE",
"1085 398 OFFCURVE",
"1085 573 CURVE SMOOTH",
"1085 1493 LINE",
"883 1493 LINE",
"883 573 LINE",
"883 479 LINE SMOOTH",
"883 407 OFFCURVE",
"881 356 OFFCURVE",
"877 325 CURVE SMOOTH",
"873 293 OFFCURVE",
"867 274 OFFCURVE",
"856 254 CURVE SMOOTH",
"836 217 OFFCURVE",
"803 185 OFFCURVE",
"763 165 CURVE SMOOTH",
"723 145 OFFCURVE",
"674 135 OFFCURVE",
"616 135 CURVE SMOOTH",
"559 135 OFFCURVE",
"510 145 OFFCURVE",
"470 165 CURVE SMOOTH",
"429 185 OFFCURVE",
"398 215 OFFCURVE",
"377 254 CURVE",
"367 271 OFFCURVE",
"360 295 OFFCURVE",
"356 326 CURVE SMOOTH",
"352 357 OFFCURVE",
"350 408 OFFCURVE",
"350 481 CURVE SMOOTH",
"350 1493 LINE",
"147 1493 LINE"
);
},
{
closed = 1;
nodes = (
"672 1899 LINE",
"475 1635 LINE",
"629 1635 LINE",
"858 1899 LINE"
);
}
);
width = 1233;
}
);
note = "\012\011Uacute\012  ";
unicode = 00DA;
},
{
glyphname = Ucircumflex;
layers = (
{
layerId = "A8E9A3C4-7003-4333-ABE9-545A429BAB07";
name = Regular;
paths = (
{
closed = 1;
nodes = (
"147 573 LINE SMOOTH",
"147 409 OFFCURVE",
"157 316 OFFCURVE",
"177 249 CURVE SMOOTH",
"198 176 OFFCURVE",
"230 127 OFFCURVE",
"273 88 CURVE SMOOTH",
"319 47 OFFCURVE",
"375 18 OFFCURVE",
"427 0 CURVE SMOOTH",
"483 -19 OFFCURVE",
"544 -29 OFFCURVE",
"616 -29 CURVE SMOOTH",
"694 -29 OFFCURVE",
"757 -17 OFFCURVE",
"806 0 CURVE SMOOTH",
"858 18 OFFCURVE",
"915 48 OFFCURVE",
"959 88 CURVE SMOOTH",
"1002 127 OFFCURVE",
"1038 182 OFFCURVE",
"1057 249 CURVE SMOOTH",
"1074 308 OFFCURVE",
"1085 398 OFFCURVE",
"1085 573 CURVE SMOOTH",
"1085 1493 LINE",
"883 1493 LINE",
"883 573 LINE",
"883 479 LINE SMOOTH",
"883 407 OFFCURVE",
"881 356 OFFCURVE",
"877 325 CURVE SMOOTH",
"873 293 OFFCURVE",
"867 274 OFFCURVE",
"856 254 CURVE SMOOTH",
"836 217 OFFCURVE",
"803 185 OFFCURVE",
"763 165 CURVE SMOOTH",
"723 145 OFFCURVE",
"674 135 OFFCURVE",
"616 135 CURVE SMOOTH",
"559 135 OFFCURVE",
"510 145 OFFCURVE",
"470 165 CURVE SMOOTH",
"429 185 OFFCURVE",
"398 215 OFFCURVE",
"377 254 CURVE",
"367 271 OFFCURVE",
"360 295 OFFCURVE",
"356 326 CURVE SMOOTH",
"352 357 OFFCURVE",
"350 408 OFFCURVE",
"350 481 CURVE SMOOTH",
"350 1493 LINE",
"147 1493 LINE"
);
},
{
closed = 1;
nodes = (
"522 1901 LINE",
"311 1635 LINE",
"451 1635 LINE",
"616 1813 LINE",
"782 1635 LINE",
"922 1635 LINE",
"711 1901 LINE"
);
}
);
width = 1233;
}
);
note = "\012\011Ucircumflex\012  ";
unicode = 00DB;
},
{
glyphname = Udieresis;
layers = (
{
layerId = "A8E9A3C4-7003-4333-ABE9-545A429BAB07";
name = Regular;
paths = (
{
closed = 1;
nodes = (
"147 573 LINE SMOOTH",
"147 409 OFFCURVE",
"157 316 OFFCURVE",
"177 249 CURVE SMOOTH",
"198 176 OFFCURVE",
"230 127 OFFCURVE",
"273 88 CURVE SMOOTH",
"319 47 OFFCURVE",
"375 18 OFFCURVE",
"427 0 CURVE SMOOTH",
"483 -19 OFFCURVE",
"544 -29 OFFCURVE",
"616 -29 CURVE SMOOTH",
"694 -29 OFFCURVE",
"757 -17 OFFCURVE",
"806 0 CURVE SMOOTH",
"858 18 OFFCURVE",
"915 48 OFFCURVE",
"959 88 CURVE SMOOTH",
"1002 127 OFFCURVE",
"1038 182 OFFCURVE",
"1057 249 CURVE SMOOTH",
"1074 308 OFFCURVE",
"1085 398 OFFCURVE",
"1085 573 CURVE SMOOTH",
"1085 1493 LINE",
"883 1493 LINE",
"883 573 LINE",
"883 479 LINE SMOOTH",
"883 407 OFFCURVE",
"881 356 OFFCURVE",
"877 325 CURVE SMOOTH",
"873 293 OFFCURVE",
"867 274 OFFCURVE",
"856 254 CURVE SMOOTH",
"836 217 OFFCURVE",
"803 185 OFFCURVE",
"763 165 CURVE SMOOTH",
"723 145 OFFCURVE",
"674 135 OFFCURVE",
"616 135 CURVE SMOOTH",
"559 135 OFFCURVE",
"510 145 OFFCURVE",
"470 165 CURVE SMOOTH",
"429 185 OFFCURVE",
"398 215 OFFCURVE",
"377 254 CURVE",
"367 271 OFFCURVE",
"360 295 OFFCURVE",
"356 326 CURVE SMOOTH",
"352 357 OFFCURVE",
"350 408 OFFCURVE",
"350 481 CURVE SMOOTH",
"350 1493 LINE",
"147 1493 LINE"
);
},
{
closed = 1;
nodes = (
"319 1870 LINE",
"319 1667 LINE",
"522 1667 LINE",
"522 1870 LINE"
);
},
{
closed = 1;
nodes = (
"711 1870 LINE",
"711 1667 LINE",
"913 1667 LINE",
"913 1870 LINE"
);
}
);
width = 1233;
}
);
note = "\012\011Udieresis\012  ";
unicode = 00DC;
},
{
glyphname = Yacute;
layers = (
{
layerId = "A8E9A3C4-7003-4333-ABE9-545A429BAB07";
name = Regular;
paths = (
{
closed = 1;
nodes = (
"37 1493 LINE",
"514 670 LINE",
"514 0 LINE",
"717 0 LINE",
"717 670 LINE",
"1196 1493 LINE",
"979 1493 LINE",
"616 834 LINE",
"252 1493 LINE"
);
},
{
closed = 1;
nodes = (
"672 1899 LINE",
"475 1635 LINE",
"629 1635 LINE",
"858 1899 LINE"
);
}
);
width = 1233;
}
);
note = "\012\011Yacute\012  ";
unicode = 00DD;
},
{
glyphname = Thorn;
layers = (
{
layerId = "A8E9A3C4-7003-4333-ABE9-545A429BAB07";
name = Regular;
paths = (
{
closed = 1;
nodes = (
"403 1057 LINE",
"637 1057 LINE SMOOTH",
"747 1057 OFFCURVE",
"826 1032 OFFCURVE",
"874 992 CURVE SMOOTH",
"927 948 OFFCURVE",
"952 879 OFFCURVE",
"952 795 CURVE SMOOTH",
"952 708 OFFCURVE",
"926 642 OFFCURVE",
"874 598 CURVE SMOOTH",
"821 554 OFFCURVE",
"742 532 OFFCURVE",
"637 532 CURVE SMOOTH",
"403 532 LINE"
);
},
{
closed = 1;
nodes = (
"201 1493 LINE",
"201 0 LINE",
"403 0 LINE",
"403 367 LINE",
"657 367 LINE SMOOTH",
"830 367 OFFCURVE",
"958 402 OFFCURVE",
"1041 472 CURVE SMOOTH",
"1122 540 OFFCURVE",
"1165 645 OFFCURVE",
"1165 794 CURVE SMOOTH",
"1165 940 OFFCURVE",
"1124 1048 OFFCURVE",
"1041 1118 CURVE SMOOTH",
"958 1188 OFFCURVE",
"830 1223 OFFCURVE",
"657 1223 CURVE SMOOTH",
"403 1223 LINE",
"403 1493 LINE"
);
}
);
width = 1233;
}
);
note = "\012\011Thorn\012  ";
unicode = 00DE;
},
{
glyphname = germandbls;
layers = (
{
layerId = "A8E9A3C4-7003-4333-ABE9-545A429BAB07";
name = Regular;
paths = (
{
closed = 1;
nodes = (
"188 0 LINE",
"375 0 LINE",
"375 1133 LINE SMOOTH",
"375 1226 OFFCURVE",
"394 1294 OFFCURVE",
"432 1338 CURVE SMOOTH",
"470 1381 OFFCURVE",
"529 1403 OFFCURVE",
"610 1403 CURVE SMOOTH",
"685 1403 OFFCURVE",
"743 1384 OFFCURVE",
"784 1346 CURVE SMOOTH",
"824 1308 OFFCURVE",
"845 1253 OFFCURVE",
"846 1182 CURVE",
"738 1158 OFFCURVE",
"661 1117 OFFCURVE",
"609 1062 CURVE SMOOTH",
"555 1005 OFFCURVE",
"528 931 OFFCURVE",
"528 851 CURVE SMOOTH",
"528 792 OFFCURVE",
"543 748 OFFCURVE",
"574 703 CURVE SMOOTH",
"603 661 OFFCURVE",
"649 616 OFFCURVE",
"711 580 CURVE SMOOTH",
"778 541 LINE SMOOTH",
"843 503 OFFCURVE",
"896 465 OFFCURVE",
"929 419 CURVE SMOOTH",
"954 384 OFFCURVE",
"963 352 OFFCURVE",
"963 310 CURVE SMOOTH",
"963 251 OFFCURVE",
"945 205 OFFCURVE",
"899 171 CURVE SMOOTH",
"858 141 OFFCURVE",
"801 123 OFFCURVE",
"728 123 CURVE SMOOTH",
"689 123 OFFCURVE",
"646 128 OFFCURVE",
"602 138 CURVE SMOOTH",
"557 148 OFFCURVE",
"510 163 OFFCURVE",
"459 184 CURVE",
"459 20 LINE",
"508 2 OFFCURVE",
"562 -11 OFFCURVE",
"593 -17 CURVE SMOOTH",
"635 -25 OFFCURVE",
"686 -29 OFFCURVE",
"731 -29 CURVE SMOOTH",
"857 -29 OFFCURVE",
"964 2 OFFCURVE",
"1037 59 CURVE SMOOTH",
"1116 121 OFFCURVE",
"1149 208 OFFCURVE",
"1149 306 CURVE SMOOTH",
"1149 378 OFFCURVE",
"1131 446 OFFCURVE",
"1094 501 CURVE SMOOTH",
"1055 560 OFFCURVE",
"992 609 OFFCURVE",
"887 676 CURVE SMOOTH",
"829 713 LINE SMOOTH",
"788 739 OFFCURVE",
"758 762 OFFCURVE",
"735 794 CURVE SMOOTH",
"716 820 OFFCURVE",
"707 846 OFFCURVE",
"707 883 CURVE SMOOTH",
"707 947 OFFCURVE",
"735 1002 OFFCURVE",
"791 1043 CURVE SMOOTH",
"847 1084 OFFCURVE",
"927 1110 OFFCURVE",
"1030 1119 CURVE",
"1029 1263 OFFCURVE",
"993 1372 OFFCURVE",
"923 1446 CURVE SMOOTH",
"853 1520 OFFCURVE",
"750 1556 OFFCURVE",
"610 1556 CURVE SMOOTH",
"473 1556 OFFCURVE",
"363 1522 OFFCURVE",
"293 1453 CURVE SMOOTH",
"223 1384 OFFCURVE",
"188 1279 OFFCURVE",
"188 1137 CURVE SMOOTH"
);
}
);
width = 1233;
}
);
note = "\012\011germandbls\012  ";
unicode = 00DF;
},
{
glyphname = agrave;
layers = (
{
layerId = "A8E9A3C4-7003-4333-ABE9-545A429BAB07";
name = Regular;
paths = (
{
closed = 1;
nodes = (
"702 563 LINE",
"874 563 LINE",
"874 522 LINE SMOOTH",
"874 401 OFFCURVE",
"844 302 OFFCURVE",
"786 231 CURVE SMOOTH",
"728 160 OFFCURVE",
"647 125 OFFCURVE",
"548 125 CURVE SMOOTH",
"471 125 OFFCURVE",
"416 146 OFFCURVE",
"378 181 CURVE SMOOTH",
"339 217 OFFCURVE",
"317 268 OFFCURVE",
"317 337 CURVE SMOOTH",
"317 411 OFFCURVE",
"342 468 OFFCURVE",
"399 507 CURVE SMOOTH",
"453 544 OFFCURVE",
"534 563 OFFCURVE",
"641 563 CURVE SMOOTH"
);
},
{
closed = 1;
nodes = (
"1059 639 LINE SMOOTH",
"1059 737 OFFCURVE",
"1054 811 OFFCURVE",
"1043 860 CURVE SMOOTH",
"1034 901 OFFCURVE",
"1017 945 OFFCURVE",
"989 984 CURVE SMOOTH",
"951 1037 OFFCURVE",
"896 1077 OFFCURVE",
"830 1105 CURVE SMOOTH",
"764 1133 OFFCURVE",
"691 1147 OFFCURVE",
"595 1147 CURVE SMOOTH",
"532 1147 OFFCURVE",
"473 1141 OFFCURVE",
"411 1128 CURVE SMOOTH",
"345 1114 OFFCURVE",
"286 1096 OFFCURVE",
"215 1069 CURVE",
"215 885 LINE",
"276 920 OFFCURVE",
"338 946 OFFCURVE",
"402 964 CURVE SMOOTH",
"466 982 OFFCURVE",
"529 991 OFFCURVE",
"593 991 CURVE SMOOTH",
"688 991 OFFCURVE",
"762 971 OFFCURVE",
"806 931 CURVE SMOOTH",
"851 890 OFFCURVE",
"874 821 OFFCURVE",
"874 736 CURVE SMOOTH",
"874 707 LINE",
"627 707 LINE SMOOTH",
"465 707 OFFCURVE",
"342 675 OFFCURVE",
"259 610 CURVE SMOOTH",
"175 545 OFFCURVE",
"133 450 OFFCURVE",
"133 327 CURVE SMOOTH",
"133 210 OFFCURVE",
"171 129 OFFCURVE",
"235 68 CURVE SMOOTH",
"303 3 OFFCURVE",
"393 -29 OFFCURVE",
"510 -29 CURVE SMOOTH",
"592 -29 OFFCURVE",
"666 -13 OFFCURVE",
"726 19 CURVE SMOOTH",
"785 50 OFFCURVE",
"835 99 OFFCURVE",
"874 166 CURVE",
"874 0 LINE",
"1059 0 LINE"
);
},
{
closed = 1;
nodes = (
"477 1638 LINE",
"279 1638 LINE",
"604 1262 LINE",
"758 1262 LINE"
);
}
);
width = 1233;
}
);
note = "\012\011agrave\012  ";
unicode = 00E0;
},
{
glyphname = aacute;
layers = (
{
layerId = "A8E9A3C4-7003-4333-ABE9-545A429BAB07";
name = Regular;
paths = (
{
closed = 1;
nodes = (
"702 563 LINE",
"874 563 LINE",
"874 522 LINE SMOOTH",
"874 401 OFFCURVE",
"844 302 OFFCURVE",
"786 231 CURVE SMOOTH",
"728 160 OFFCURVE",
"647 125 OFFCURVE",
"548 125 CURVE SMOOTH",
"471 125 OFFCURVE",
"416 146 OFFCURVE",
"378 181 CURVE SMOOTH",
"339 217 OFFCURVE",
"317 268 OFFCURVE",
"317 337 CURVE SMOOTH",
"317 411 OFFCURVE",
"342 468 OFFCURVE",
"399 507 CURVE SMOOTH",
"453 544 OFFCURVE",
"534 563 OFFCURVE",
"641 563 CURVE SMOOTH"
);
},
{
closed = 1;
nodes = (
"1059 639 LINE SMOOTH",
"1059 737 OFFCURVE",
"1054 811 OFFCURVE",
"1043 860 CURVE SMOOTH",
"1034 901 OFFCURVE",
"1017 945 OFFCURVE",
"989 984 CURVE SMOOTH",
"951 1037 OFFCURVE",
"896 1077 OFFCURVE",
"830 1105 CURVE SMOOTH",
"764 1133 OFFCURVE",
"691 1147 OFFCURVE",
"595 1147 CURVE SMOOTH",
"532 1147 OFFCURVE",
"473 1141 OFFCURVE",
"411 1128 CURVE SMOOTH",
"345 1114 OFFCURVE",
"286 1096 OFFCURVE",
"215 1069 CURVE",
"215 885 LINE",
"276 920 OFFCURVE",
"338 946 OFFCURVE",
"402 964 CURVE SMOOTH",
"466 982 OFFCURVE",
"529 991 OFFCURVE",
"593 991 CURVE SMOOTH",
"688 991 OFFCURVE",
"762 971 OFFCURVE",
"806 931 CURVE SMOOTH",
"851 890 OFFCURVE",
"874 821 OFFCURVE",
"874 736 CURVE SMOOTH",
"874 707 LINE",
"627 707 LINE SMOOTH",
"465 707 OFFCURVE",
"342 675 OFFCURVE",
"259 610 CURVE SMOOTH",
"175 545 OFFCURVE",
"133 450 OFFCURVE",
"133 327 CURVE SMOOTH",
"133 210 OFFCURVE",
"171 129 OFFCURVE",
"235 68 CURVE SMOOTH",
"303 3 OFFCURVE",
"393 -29 OFFCURVE",
"510 -29 CURVE SMOOTH",
"592 -29 OFFCURVE",
"666 -13 OFFCURVE",
"726 19 CURVE SMOOTH",
"785 50 OFFCURVE",
"835 99 OFFCURVE",
"874 166 CURVE",
"874 0 LINE",
"1059 0 LINE"
);
},
{
closed = 1;
nodes = (
"756 1638 LINE",
"475 1262 LINE",
"629 1262 LINE",
"954 1638 LINE"
);
}
);
width = 1233;
}
);
note = "\012\011aacute\012  ";
unicode = 00E1;
},
{
glyphname = acircumflex;
layers = (
{
layerId = "A8E9A3C4-7003-4333-ABE9-545A429BAB07";
name = Regular;
paths = (
{
closed = 1;
nodes = (
"702 563 LINE",
"874 563 LINE",
"874 522 LINE SMOOTH",
"874 401 OFFCURVE",
"844 302 OFFCURVE",
"786 231 CURVE SMOOTH",
"728 160 OFFCURVE",
"647 125 OFFCURVE",
"548 125 CURVE SMOOTH",
"471 125 OFFCURVE",
"416 146 OFFCURVE",
"378 181 CURVE SMOOTH",
"339 217 OFFCURVE",
"317 268 OFFCURVE",
"317 337 CURVE SMOOTH",
"317 411 OFFCURVE",
"342 468 OFFCURVE",
"399 507 CURVE SMOOTH",
"453 544 OFFCURVE",
"534 563 OFFCURVE",
"641 563 CURVE SMOOTH"
);
},
{
closed = 1;
nodes = (
"1059 639 LINE SMOOTH",
"1059 737 OFFCURVE",
"1054 811 OFFCURVE",
"1043 860 CURVE SMOOTH",
"1034 901 OFFCURVE",
"1017 945 OFFCURVE",
"989 984 CURVE SMOOTH",
"951 1037 OFFCURVE",
"896 1077 OFFCURVE",
"830 1105 CURVE SMOOTH",
"764 1133 OFFCURVE",
"691 1147 OFFCURVE",
"595 1147 CURVE SMOOTH",
"532 1147 OFFCURVE",
"473 1141 OFFCURVE",
"411 1128 CURVE SMOOTH",
"345 1114 OFFCURVE",
"286 1096 OFFCURVE",
"215 1069 CURVE",
"215 885 LINE",
"276 920 OFFCURVE",
"338 946 OFFCURVE",
"402 964 CURVE SMOOTH",
"466 982 OFFCURVE",
"529 991 OFFCURVE",
"593 991 CURVE SMOOTH",
"688 991 OFFCURVE",
"762 971 OFFCURVE",
"806 931 CURVE SMOOTH",
"851 890 OFFCURVE",
"874 821 OFFCURVE",
"874 736 CURVE SMOOTH",
"874 707 LINE",
"627 707 LINE SMOOTH",
"465 707 OFFCURVE",
"342 675 OFFCURVE",
"259 610 CURVE SMOOTH",
"175 545 OFFCURVE",
"133 450 OFFCURVE",
"133 327 CURVE SMOOTH",
"133 210 OFFCURVE",
"171 129 OFFCURVE",
"235 68 CURVE SMOOTH",
"303 3 OFFCURVE",
"393 -29 OFFCURVE",
"510 -29 CURVE SMOOTH",
"592 -29 OFFCURVE",
"666 -13 OFFCURVE",
"726 19 CURVE SMOOTH",
"785 50 OFFCURVE",
"835 99 OFFCURVE",
"874 166 CURVE",
"874 0 LINE",
"1059 0 LINE"
);
},
{
closed = 1;
nodes = (
"543 1638 LINE",
"297 1262 LINE",
"436 1262 LINE",
"616 1507 LINE",
"797 1262 LINE",
"936 1262 LINE",
"690 1638 LINE"
);
}
);
width = 1233;
}
);
note = "\012\011acircumflex\012  ";
unicode = 00E2;
},
{
glyphname = atilde;
layers = (
{
layerId = "A8E9A3C4-7003-4333-ABE9-545A429BAB07";
name = Regular;
paths = (
{
closed = 1;
nodes = (
"702 563 LINE",
"874 563 LINE",
"874 522 LINE SMOOTH",
"874 401 OFFCURVE",
"844 302 OFFCURVE",
"786 231 CURVE SMOOTH",
"728 160 OFFCURVE",
"647 125 OFFCURVE",
"548 125 CURVE SMOOTH",
"471 125 OFFCURVE",
"416 146 OFFCURVE",
"378 181 CURVE SMOOTH",
"339 217 OFFCURVE",
"317 268 OFFCURVE",
"317 337 CURVE SMOOTH",
"317 411 OFFCURVE",
"342 468 OFFCURVE",
"399 507 CURVE SMOOTH",
"453 544 OFFCURVE",
"534 563 OFFCURVE",
"641 563 CURVE SMOOTH"
);
},
{
closed = 1;
nodes = (
"1059 639 LINE SMOOTH",
"1059 737 OFFCURVE",
"1054 811 OFFCURVE",
"1043 860 CURVE SMOOTH",
"1034 901 OFFCURVE",
"1017 945 OFFCURVE",
"989 984 CURVE SMOOTH",
"951 1037 OFFCURVE",
"896 1077 OFFCURVE",
"830 1105 CURVE SMOOTH",
"764 1133 OFFCURVE",
"691 1147 OFFCURVE",
"595 1147 CURVE SMOOTH",
"532 1147 OFFCURVE",
"473 1141 OFFCURVE",
"411 1128 CURVE SMOOTH",
"345 1114 OFFCURVE",
"286 1096 OFFCURVE",
"215 1069 CURVE",
"215 885 LINE",
"276 920 OFFCURVE",
"338 946 OFFCURVE",
"402 964 CURVE SMOOTH",
"466 982 OFFCURVE",
"529 991 OFFCURVE",
"593 991 CURVE SMOOTH",
"688 991 OFFCURVE",
"762 971 OFFCURVE",
"806 931 CURVE SMOOTH",
"851 890 OFFCURVE",
"874 821 OFFCURVE",
"874 736 CURVE SMOOTH",
"874 707 LINE",
"627 707 LINE SMOOTH",
"465 707 OFFCURVE",
"342 675 OFFCURVE",
"259 610 CURVE SMOOTH",
"175 545 OFFCURVE",
"133 450 OFFCURVE",
"133 327 CURVE SMOOTH",
"133 210 OFFCURVE",
"171 129 OFFCURVE",
"235 68 CURVE SMOOTH",
"303 3 OFFCURVE",
"393 -29 OFFCURVE",
"510 -29 CURVE SMOOTH",
"592 -29 OFFCURVE",
"666 -13 OFFCURVE",
"726 19 CURVE SMOOTH",
"785 50 OFFCURVE",
"835 99 OFFCURVE",
"874 166 CURVE",
"874 0 LINE",
"1059 0 LINE"
);
},
{
closed = 1;
nodes = (
"612 1370 LINE",
"637 1348 OFFCURVE",
"660 1332 OFFCURVE",
"681 1323 CURVE SMOOTH",
"702 1314 OFFCURVE",
"726 1309 OFFCURVE",
"753 1309 CURVE SMOOTH",
"813 1309 OFFCURVE",
"860 1334 OFFCURVE",
"894 1383 CURVE SMOOTH",
"928 1432 OFFCURVE",
"945 1502 OFFCURVE",
"946 1591 CURVE",
"821 1591 LINE",
"820 1537 OFFCURVE",
"814 1498 OFFCURVE",
"802 1473 CURVE SMOOTH",
"790 1448 OFFCURVE",
"770 1436 OFFCURVE",
"746 1436 CURVE SMOOTH",
"736 1436 OFFCURVE",
"729 1438 OFFCURVE",
"716 1446 CURVE SMOOTH",
"703 1454 OFFCURVE",
"692 1462 OFFCURVE",
"678 1475 CURVE SMOOTH",
"621 1530 LINE",
"596 1552 OFFCURVE",
"573 1568 OFFCURVE",
"552 1577 CURVE SMOOTH",
"531 1586 OFFCURVE",
"507 1591 OFFCURVE",
"480 1591 CURVE SMOOTH",
"420 1591 OFFCURVE",
"373 1566 OFFCURVE",
"339 1517 CURVE SMOOTH",
"305 1468 OFFCURVE",
"288 1398 OFFCURVE",
"287 1309 CURVE",
"411 1309 LINE",
"412 1363 OFFCURVE",
"419 1402 OFFCURVE",
"431 1427 CURVE SMOOTH",
"443 1452 OFFCURVE",
"462 1464 OFFCURVE",
"487 1464 CURVE SMOOTH",
"497 1464 OFFCURVE",
"505 1462 OFFCURVE",
"517 1455 CURVE SMOOTH",
"526 1450 OFFCURVE",
"539 1440 OFFCURVE",
"555 1425 CURVE SMOOTH"
);
}
);
width = 1233;
}
);
note = "\012\011atilde\012  ";
unicode = 00E3;
},
{
glyphname = adieresis;
layers = (
{
layerId = "A8E9A3C4-7003-4333-ABE9-545A429BAB07";
name = Regular;
paths = (
{
closed = 1;
nodes = (
"702 563 LINE",
"874 563 LINE",
"874 522 LINE SMOOTH",
"874 401 OFFCURVE",
"844 302 OFFCURVE",
"786 231 CURVE SMOOTH",
"728 160 OFFCURVE",
"647 125 OFFCURVE",
"548 125 CURVE SMOOTH",
"471 125 OFFCURVE",
"416 146 OFFCURVE",
"378 181 CURVE SMOOTH",
"339 217 OFFCURVE",
"317 268 OFFCURVE",
"317 337 CURVE SMOOTH",
"317 411 OFFCURVE",
"342 468 OFFCURVE",
"399 507 CURVE SMOOTH",
"453 544 OFFCURVE",
"534 563 OFFCURVE",
"641 563 CURVE SMOOTH"
);
},
{
closed = 1;
nodes = (
"1059 639 LINE SMOOTH",
"1059 737 OFFCURVE",
"1054 811 OFFCURVE",
"1043 860 CURVE SMOOTH",
"1034 901 OFFCURVE",
"1017 945 OFFCURVE",
"989 984 CURVE SMOOTH",
"951 1037 OFFCURVE",
"896 1077 OFFCURVE",
"830 1105 CURVE SMOOTH",
"764 1133 OFFCURVE",
"691 1147 OFFCURVE",
"595 1147 CURVE SMOOTH",
"532 1147 OFFCURVE",
"473 1141 OFFCURVE",
"411 1128 CURVE SMOOTH",
"345 1114 OFFCURVE",
"286 1096 OFFCURVE",
"215 1069 CURVE",
"215 885 LINE",
"276 920 OFFCURVE",
"338 946 OFFCURVE",
"402 964 CURVE SMOOTH",
"466 982 OFFCURVE",
"529 991 OFFCURVE",
"593 991 CURVE SMOOTH",
"688 991 OFFCURVE",
"762 971 OFFCURVE",
"806 931 CURVE SMOOTH",
"851 890 OFFCURVE",
"874 821 OFFCURVE",
"874 736 CURVE SMOOTH",
"874 707 LINE",
"627 707 LINE SMOOTH",
"465 707 OFFCURVE",
"342 675 OFFCURVE",
"259 610 CURVE SMOOTH",
"175 545 OFFCURVE",
"133 450 OFFCURVE",
"133 327 CURVE SMOOTH",
"133 210 OFFCURVE",
"171 129 OFFCURVE",
"235 68 CURVE SMOOTH",
"303 3 OFFCURVE",
"393 -29 OFFCURVE",
"510 -29 CURVE SMOOTH",
"592 -29 OFFCURVE",
"666 -13 OFFCURVE",
"726 19 CURVE SMOOTH",
"785 50 OFFCURVE",
"835 99 OFFCURVE",
"874 166 CURVE",
"874 0 LINE",
"1059 0 LINE"
);
},
{
closed = 1;
nodes = (
"319 1552 LINE",
"319 1350 LINE",
"522 1350 LINE",
"522 1552 LINE"
);
},
{
closed = 1;
nodes = (
"711 1552 LINE",
"711 1350 LINE",
"913 1350 LINE",
"913 1552 LINE"
);
}
);
width = 1233;
}
);
note = "\012\011adieresis\012  ";
unicode = 00E4;
},
{
glyphname = aring;
layers = (
{
layerId = "A8E9A3C4-7003-4333-ABE9-545A429BAB07";
name = Regular;
paths = (
{
closed = 1;
nodes = (
"702 563 LINE",
"874 563 LINE",
"874 522 LINE SMOOTH",
"874 401 OFFCURVE",
"844 302 OFFCURVE",
"786 231 CURVE SMOOTH",
"728 160 OFFCURVE",
"647 125 OFFCURVE",
"548 125 CURVE SMOOTH",
"471 125 OFFCURVE",
"416 146 OFFCURVE",
"378 181 CURVE SMOOTH",
"339 217 OFFCURVE",
"317 268 OFFCURVE",
"317 337 CURVE SMOOTH",
"317 411 OFFCURVE",
"342 468 OFFCURVE",
"399 507 CURVE SMOOTH",
"453 544 OFFCURVE",
"534 563 OFFCURVE",
"641 563 CURVE SMOOTH"
);
},
{
closed = 1;
nodes = (
"1059 639 LINE SMOOTH",
"1059 737 OFFCURVE",
"1054 811 OFFCURVE",
"1043 860 CURVE SMOOTH",
"1034 901 OFFCURVE",
"1017 945 OFFCURVE",
"989 984 CURVE SMOOTH",
"951 1037 OFFCURVE",
"896 1077 OFFCURVE",
"830 1105 CURVE SMOOTH",
"764 1133 OFFCURVE",
"691 1147 OFFCURVE",
"595 1147 CURVE SMOOTH",
"532 1147 OFFCURVE",
"473 1141 OFFCURVE",
"411 1128 CURVE SMOOTH",
"345 1114 OFFCURVE",
"286 1096 OFFCURVE",
"215 1069 CURVE",
"215 885 LINE",
"276 920 OFFCURVE",
"338 946 OFFCURVE",
"402 964 CURVE SMOOTH",
"466 982 OFFCURVE",
"529 991 OFFCURVE",
"593 991 CURVE SMOOTH",
"688 991 OFFCURVE",
"762 971 OFFCURVE",
"806 931 CURVE SMOOTH",
"851 890 OFFCURVE",
"874 821 OFFCURVE",
"874 736 CURVE SMOOTH",
"874 707 LINE",
"627 707 LINE SMOOTH",
"465 707 OFFCURVE",
"342 675 OFFCURVE",
"259 610 CURVE SMOOTH",
"175 545 OFFCURVE",
"133 450 OFFCURVE",
"133 327 CURVE SMOOTH",
"133 210 OFFCURVE",
"171 129 OFFCURVE",
"235 68 CURVE SMOOTH",
"303 3 OFFCURVE",
"393 -29 OFFCURVE",
"510 -29 CURVE SMOOTH",
"592 -29 OFFCURVE",
"666 -13 OFFCURVE",
"726 19 CURVE SMOOTH",
"785 50 OFFCURVE",
"835 99 OFFCURVE",
"874 166 CURVE",
"874 0 LINE",
"1059 0 LINE"
);
},
{
closed = 1;
nodes = (
"891 1601 OFFCURVE",
"865 1666 OFFCURVE",
"812 1719 CURVE SMOOTH",
"759 1772 OFFCURVE",
"693 1798 OFFCURVE",
"616 1798 CURVE SMOOTH",
"539 1798 OFFCURVE",
"475 1772 OFFCURVE",
"422 1719 CURVE SMOOTH",
"369 1666 OFFCURVE",
"342 1601 OFFCURVE",
"342 1524 CURVE SMOOTH",
"342 1447 OFFCURVE",
"369 1382 OFFCURVE",
"422 1329 CURVE SMOOTH",
"475 1276 OFFCURVE",
"539 1249 OFFCURVE",
"616 1249 CURVE SMOOTH",
"693 1249 OFFCURVE",
"759 1276 OFFCURVE",
"812 1329 CURVE SMOOTH",
"865 1382 OFFCURVE",
"891 1447 OFFCURVE",
"891 1524 CURVE SMOOTH"
);
},
{
closed = 1;
nodes = (
"768 1481 OFFCURVE",
"753 1445 OFFCURVE",
"724 1416 CURVE SMOOTH",
"695 1387 OFFCURVE",
"659 1372 OFFCURVE",
"616 1372 CURVE SMOOTH",
"573 1372 OFFCURVE",
"538 1387 OFFCURVE",
"509 1416 CURVE SMOOTH",
"480 1445 OFFCURVE",
"465 1481 OFFCURVE",
"465 1524 CURVE SMOOTH",
"465 1567 OFFCURVE",
"480 1603 OFFCURVE",
"509 1632 CURVE SMOOTH",
"538 1661 OFFCURVE",
"573 1675 OFFCURVE",
"615 1675 CURVE SMOOTH",
"659 1675 OFFCURVE",
"695 1660 OFFCURVE",
"724 1631 CURVE SMOOTH",
"753 1602 OFFCURVE",
"768 1566 OFFCURVE",
"768 1524 CURVE SMOOTH"
);
}
);
width = 1233;
}
);
note = "\012\011aring\012  ";
unicode = 00E5;
},
{
glyphname = ae;
layers = (
{
layerId = "A8E9A3C4-7003-4333-ABE9-545A429BAB07";
name = Regular;
paths = (
{
closed = 1;
nodes = (
"543 442 LINE SMOOTH",
"543 307 OFFCURVE",
"529 234 OFFCURVE",
"506 192 CURVE SMOOTH",
"481 147 OFFCURVE",
"439 125 OFFCURVE",
"375 125 CURVE SMOOTH",
"323 125 OFFCURVE",
"281 140 OFFCURVE",
"250 174 CURVE SMOOTH",
"220 206 OFFCURVE",
"205 251 OFFCURVE",
"205 313 CURVE SMOOTH",
"205 385 OFFCURVE",
"225 439 OFFCURVE",
"265 469 CURVE SMOOTH",
"305 499 OFFCURVE",
"381 514 OFFCURVE",
"494 514 CURVE SMOOTH",
"543 514 LINE"
);
},
{
closed = 1;
nodes = (
"1036 657 LINE",
"709 657 LINE",
"709 700 LINE SMOOTH",
"709 805 OFFCURVE",
"722 880 OFFCURVE",
"747 925 CURVE SMOOTH",
"772 970 OFFCURVE",
"814 993 OFFCURVE",
"872 993 CURVE SMOOTH",
"934 993 OFFCURVE",
"975 967 OFFCURVE",
"998 927 CURVE SMOOTH",
"1022 885 OFFCURVE",
"1036 812 OFFCURVE",
"1036 709 CURVE SMOOTH"
);
},
{
closed = 1;
nodes = (
"1200 514 LINE",
"1200 604 LINE SMOOTH",
"1200 808 OFFCURVE",
"1176 950 OFFCURVE",
"1128 1029 CURVE SMOOTH",
"1080 1108 OFFCURVE",
"995 1147 OFFCURVE",
"882 1147 CURVE SMOOTH",
"822 1147 OFFCURVE",
"770 1136 OFFCURVE",
"726 1114 CURVE SMOOTH",
"682 1092 OFFCURVE",
"649 1061 OFFCURVE",
"627 1020 CURVE",
"602 1063 OFFCURVE",
"569 1095 OFFCURVE",
"528 1116 CURVE SMOOTH",
"487 1137 OFFCURVE",
"435 1147 OFFCURVE",
"376 1147 CURVE SMOOTH",
"334 1147 OFFCURVE",
"293 1142 OFFCURVE",
"249 1131 CURVE SMOOTH",
"205 1120 OFFCURVE",
"157 1102 OFFCURVE",
"106 1079 CURVE",
"106 911 LINE",
"147 937 OFFCURVE",
"194 959 OFFCURVE",
"234 972 CURVE SMOOTH",
"273 985 OFFCURVE",
"319 993 OFFCURVE",
"357 993 CURVE SMOOTH",
"419 993 OFFCURVE",
"467 972 OFFCURVE",
"500 929 CURVE SMOOTH",
"533 886 OFFCURVE",
"549 825 OFFCURVE",
"549 745 CURVE SMOOTH",
"549 657 LINE",
"432 657 LINE SMOOTH",
"305 657 OFFCURVE",
"208 627 OFFCURVE",
"141 568 CURVE SMOOTH",
"71 506 OFFCURVE",
"41 416 OFFCURVE",
"41 304 CURVE SMOOTH",
"41 202 OFFCURVE",
"66 117 OFFCURVE",
"123 57 CURVE SMOOTH",
"177 0 OFFCURVE",
"257 -29 OFFCURVE",
"358 -29 CURVE SMOOTH",
"426 -29 OFFCURVE",
"479 -16 OFFCURVE",
"524 11 CURVE SMOOTH",
"568 38 OFFCURVE",
"603 78 OFFCURVE",
"629 131 CURVE",
"650 79 OFFCURVE",
"686 39 OFFCURVE",
"736 12 CURVE SMOOTH",
"785 -15 OFFCURVE",
"849 -29 OFFCURVE",
"917 -29 CURVE SMOOTH",
"969 -29 OFFCURVE",
"1018 -21 OFFCURVE",
"1057 -8 CURVE SMOOTH",
"1096 5 OFFCURVE",
"1140 27 OFFCURVE",
"1178 55 CURVE",
"1178 227 LINE",
"1145 193 OFFCURVE",
"1107 168 OFFCURVE",
"1064 151 CURVE SMOOTH",
"1021 134 OFFCURVE",
"972 125 OFFCURVE",
"923 125 CURVE SMOOTH",
"849 125 OFFCURVE",
"794 146 OFFCURVE",
"758 196 CURVE SMOOTH",
"726 241 OFFCURVE",
"707 313 OFFCURVE",
"707 443 CURVE SMOOTH",
"707 473 OFFCURVE",
"708 478 OFFCURVE",
"708 482 CURVE SMOOTH",
"708 493 OFFCURVE",
"708 504 OFFCURVE",
"709 514 CURVE"
);
}
);
width = 1233;
}
);
note = "\012\011ae\012  ";
unicode = 00E6;
},
